<?xml version="1.0" encoding="utf-8"?>
<!-- Generator: Adobe Illustrator 19.1.0, SVG Export Plug-In . SVG Version: 6.00 Build 0)  -->
<svg version="1.1" id="Layer_1" xmlns="http://www.w3.org/2000/svg" xmlns:xlink="http://www.w3.org/1999/xlink" x="0px" y="0px"
	 width="500px" height="500px" viewBox="0 0 500 500" style="enable-background:new 0 0 500 500;" xml:space="preserve">
<g>
	<path d="M440.091,331.138L387.478,52.73c0.15,0.026,0.304,0.05,0.454,0.076c0,0,0-16.263,0-23.039
		c0-6.776-9.487-10.164-15.585-11.519c-6.098-1.355-68.438-7.454-124.002-7.454h-1.355c-55.564,0-117.904,6.098-124.002,7.454
		c-6.098,1.355-15.585,4.743-15.585,11.519c0,6.776,0,23.039,0,23.039c0.15-0.026,0.303-0.05,0.453-0.076L55.243,331.138
		c-0.252-0.616-0.493-1.235-0.694-1.867c0,0,0,18.973,0,26.427c0,7.454,8.131,19.651,21.006,26.427
		c7.144,3.76,18.888,13.151,50.143,20.768v44.96c0,0-7.115,3.727-6.098,7.454c0.713,2.615,1.615,5.055,4.743,8.809
		c5.066,6.079,50.202,26.13,122.647,26.255c72.445-0.125,117.581-20.175,122.647-26.255c3.128-3.754,4.03-6.194,4.743-8.809
		c1.016-3.727-6.098-7.454-6.098-7.454v-44.63c32.281-7.673,44.252-17.284,51.498-21.098c12.875-6.776,21.006-18.973,21.006-26.427
		c0-7.454,0-26.427,0-26.427C440.583,329.903,440.343,330.522,440.091,331.138z M319.736,46.264l38.312,323.022
		c-6.442,1.073-12.965,2-19.455,2.807L301.465,45.51C307.361,45.709,313.494,45.957,319.736,46.264z M284.151,45.033l28.372,329.725
		c-8.822,0.722-17.258,1.247-24.97,1.626l-17.78-331.592C274.137,44.844,278.967,44.921,284.151,45.033z M240.688,44.681
		c2.318-0.006,4.219-0.006,5.623-0.006h2.711c1.404,0,3.305,0,5.623,0.006l8.592,332.545c-7.145,0.143-12.365,0.155-14.893,0.155
		h-1.355c-2.527,0-7.748-0.011-14.892-0.155L240.688,44.681z M225.56,44.792l-17.78,331.592c-7.711-0.379-16.147-0.904-24.969-1.626
		l28.372-329.725C216.366,44.921,221.197,44.844,225.56,44.792z M193.869,45.51L156.74,372.093
		c-6.49-0.807-13.013-1.735-19.455-2.807l38.312-323.022C181.84,45.957,187.972,45.709,193.869,45.51z M66.695,345.189
		l52.775-294.206c3.547-0.473,7.195-0.91,10.915-1.315L77.327,351.854C73.371,349.801,69.796,347.586,66.695,345.189z
		 M113.759,364.565c-6.625-1.593-12.979-3.384-18.915-5.397l48.083-310.724c5.688-0.497,11.462-0.929,17.231-1.303L113.759,364.565z
		 M359.133,449.546c0,0-33.203,19.989-110.789,19.989h-1.355c-77.586,0-110.789-19.989-110.789-19.989v-34.558
		c34.558,17.449,98.253,17.448,110.789,17.448h1.355c12.536,0,76.231,0,110.789-17.448V449.546z M381.574,364.565L335.176,47.141
		c5.768,0.374,11.542,0.807,17.231,1.303l48.083,310.724C394.553,361.181,388.199,362.972,381.574,364.565z M418.007,351.854
		L364.949,49.668c3.72,0.405,7.368,0.842,10.915,1.315l52.775,294.206C425.537,347.586,421.962,349.801,418.007,351.854z"/>
	<path d="M244.279,443.447v18.635c0,1.863,1.525,3.388,3.388,3.388c1.863,0,3.388-1.525,3.388-3.388v-18.635
		c0-1.863-1.525-3.388-3.388-3.388C245.803,440.059,244.279,441.584,244.279,443.447z"/>
	<path d="M231.404,440.059c-1.864,0-3.388,1.525-3.388,3.388v18.635c0,1.863,1.525,3.388,3.388,3.388
		c1.863,0,3.388-1.525,3.388-3.388v-18.635C234.792,441.584,233.267,440.059,231.404,440.059z"/>
	<path d="M215.142,438.027c-1.864,0-3.388,1.525-3.388,3.388v18.635c0,1.863,1.525,3.388,3.388,3.388
		c1.863,0,3.388-1.525,3.388-3.388v-18.635C218.529,439.551,217.005,438.027,215.142,438.027z"/>
	<path d="M198.879,435.994c-1.864,0-3.388,1.525-3.388,3.388v18.635c0,1.863,1.525,3.388,3.388,3.388
		c1.863,0,3.388-1.525,3.388-3.388v-18.635C202.267,437.518,200.742,435.994,198.879,435.994z"/>
	<path d="M182.616,433.961c-1.864,0-3.388,1.525-3.388,3.388v18.635c0,1.863,1.525,3.388,3.388,3.388
		c1.863,0,3.388-1.525,3.388-3.388v-18.635C186.004,435.486,184.48,433.961,182.616,433.961z"/>
	<path d="M166.354,429.895c-1.864,0-3.388,1.525-3.388,3.388v18.635c0,1.863,1.525,3.388,3.388,3.388
		c1.863,0,3.388-1.525,3.388-3.388v-18.635C169.742,431.42,168.217,429.895,166.354,429.895z"/>
	<path d="M150.091,424.813c-1.864,0-3.388,1.525-3.388,3.388v18.635c0,1.863,1.525,3.388,3.388,3.388
		c1.863,0,3.388-1.525,3.388-3.388v-18.635C153.479,426.338,151.954,424.813,150.091,424.813z"/>
	<path d="M263.929,465.47c1.863,0,3.388-1.525,3.388-3.388v-18.635c0-1.863-1.525-3.388-3.388-3.388
		c-1.864,0-3.388,1.525-3.388,3.388v18.635C260.541,463.945,262.066,465.47,263.929,465.47z"/>
	<path d="M280.192,463.437c1.863,0,3.388-1.525,3.388-3.388v-18.635c0-1.863-1.525-3.388-3.388-3.388
		c-1.864,0-3.388,1.525-3.388,3.388v18.635C276.804,461.913,278.328,463.437,280.192,463.437z"/>
	<path d="M296.455,461.404c1.863,0,3.388-1.525,3.388-3.388v-18.635c0-1.863-1.525-3.388-3.388-3.388
		c-1.864,0-3.388,1.525-3.388,3.388v18.635C293.066,459.88,294.591,461.404,296.455,461.404z"/>
	<path d="M312.717,459.372c1.863,0,3.388-1.525,3.388-3.388v-18.635c0-1.863-1.525-3.388-3.388-3.388
		c-1.864,0-3.388,1.525-3.388,3.388v18.635C309.329,457.847,310.854,459.372,312.717,459.372z"/>
	<path d="M328.98,455.306c1.863,0,3.388-1.525,3.388-3.388v-18.635c0-1.863-1.525-3.388-3.388-3.388
		c-1.864,0-3.388,1.525-3.388,3.388v18.635C325.592,453.781,327.116,455.306,328.98,455.306z"/>
	<path d="M345.242,450.224c1.863,0,3.388-1.525,3.388-3.388v-18.635c0-1.863-1.525-3.388-3.388-3.388
		c-1.864,0-3.388,1.525-3.388,3.388v18.635C341.854,448.699,343.379,450.224,345.242,450.224z"/>
</g>
</svg>
