<?xml version="1.0" encoding="utf-8"?>
<!-- Generator: Adobe Illustrator 19.1.0, SVG Export Plug-In . SVG Version: 6.00 Build 0)  -->
<svg version="1.1" xmlns="http://www.w3.org/2000/svg" xmlns:xlink="http://www.w3.org/1999/xlink" x="0px" y="0px" width="500px"
	 height="500px" viewBox="0 0 500 500" style="enable-background:new 0 0 500 500;" xml:space="preserve">
<g id="Layer_1">
	<g>
		<path d="M100.083,381.667c20.402,0,37-16.598,37-37s-16.598-37-37-37s-37,16.598-37,37S79.681,381.667,100.083,381.667z
			 M100.083,315.667c15.99,0,29,13.01,29,29s-13.01,29-29,29s-29-13.01-29-29S84.093,315.667,100.083,315.667z"/>
		<circle cx="100.083" cy="344.667" r="19"/>
		<path d="M395.083,381.667c20.402,0,37-16.598,37-37s-16.598-37-37-37s-37,16.598-37,37S374.681,381.667,395.083,381.667z
			 M395.083,315.667c15.99,0,29,13.01,29,29s-13.01,29-29,29s-29-13.01-29-29S379.093,315.667,395.083,315.667z"/>
		<circle cx="395.083" cy="344.667" r="19"/>
		<path d="M490.5,258H487l0.5-4c0,0,0,0,2,0s0.5-7-1.5-14.5S477,225,477,225c-1-14-14-19-14-19s-1-9,1-10s-0.5-4-4.5-7s-9-2.5-9-2.5
			s-68-4-71.5-4s0.5,4.5,0.5,4.5l-18-20l-9.5,3c0,0-3-4-4-6.5s-2-2.5-5-2.5s-4-0.5-4-0.5s2-5,2-8.5s-5-6.5-9.5-10.5s-5.5-5-5.5-5
			s-8-5-11.5-5.5s-6,1.5-9,2.5s-1.5,2-1.5,2s-3.5,0-7.5-1.5s-7,0-7,3s2,7.5,6,7s5,1.5,4.5,3s-2,4-2,4l16.5,1l-3,5.5c0,0,4.5,5.5,3,8
			s3.5,5.5,6,5c1.517-0.303,3.946-2.074,5.182-3.089C324.702,169.477,329,175.5,329,175.5s-8,2-14,2.5s-4,3.5-6.5,5s-2-4.5-4-5.5
			s-6,1-6,1s-30.5,9.5-36,11.5c-2.518,0.916-3.143,2.454-3.183,3.572c-1.222-2.297-5.112,0.193-19.317,4.928c-15,5-30.5,1-60.5-1
			s-68-6.5-68-6.5s4.5-1,5-3.5s-9.5-3.5-14-3.5s-56.5-4.5-60-6s-12-1-12-1s-12,1.5-21,3.5s-6,7.5-6,9s15,2.5,15,2.5l13.5,2
			c0,0-12,13-16,19s0,11,3.5,11c2.698,0,11.037-0.01,18.384-2.301l33.384,41.428C71.099,263.594,71,264.055,71,264.5
			c0,1.399,1.759,4.716,4.093,8.385l-6.954,2.531l1.355,3.724c-3.81,1.785-7.434,3.895-10.848,6.291l-2.563-3.055l-9.703,8.142
			l2.558,3.048c-2.955,2.958-5.641,6.18-8.051,9.61l-3.454-1.994l-6.333,10.97l3.434,1.982c-1.761,3.765-3.207,7.703-4.304,11.785
			l-3.891-0.686l-2.2,12.474l3.901,0.688c-0.179,2.069-0.289,4.158-0.289,6.273c0,2.115,0.11,4.203,0.289,6.272l-3.901,0.688
			l2.2,12.474l3.89-0.686c1.097,4.082,2.543,8.02,4.304,11.785l-3.433,1.982l6.333,10.97l3.454-1.994
			c2.411,3.429,5.097,6.652,8.052,9.61l-2.558,3.048l9.703,8.142l2.563-3.055c3.414,2.395,7.039,4.505,10.848,6.29l-1.355,3.725
			l11.902,4.332l1.351-3.711c3.995,1.07,8.125,1.799,12.358,2.168v3.961h12.667v-3.961c4.233-0.369,8.363-1.098,12.358-2.168
			l1.351,3.711l11.903-4.332l-1.356-3.725c3.809-1.785,7.434-3.895,10.848-6.29l2.563,3.055l9.703-8.142l-2.558-3.048
			c2.955-2.958,5.641-6.18,8.052-9.61l3.454,1.994l6.333-10.97l-3.433-1.982c1.761-3.765,3.208-7.703,4.304-11.785l3.891,0.686
			l2.199-12.474l-3.9-0.688c0.179-2.069,0.289-4.157,0.289-6.272c0-1.33-0.042-2.65-0.113-3.962
			C187.531,342.076,208,339.5,208,339.5s12.5,1,16.5,1s7.5,3,7.5,3s30.5,3,38,3s6.5-4,10-4s6,5,8,6s4.5-7,4.5-7l23.5,1
			c0,0,3.022,0.172,6.804,0.051c-0.021,0.705-0.054,1.407-0.054,2.116c0,2.115,0.11,4.203,0.289,6.272l-3.901,0.688l2.2,12.474
			l3.89-0.686c1.097,4.082,2.543,8.02,4.304,11.785l-3.433,1.982l6.333,10.97l3.454-1.994c2.411,3.429,5.097,6.652,8.052,9.61
			l-2.558,3.048l9.703,8.142l2.563-3.055c3.414,2.395,7.039,4.505,10.848,6.29l-1.355,3.725l11.902,4.332l1.351-3.711
			c3.995,1.07,8.125,1.799,12.358,2.168v3.961h12.667v-3.961c4.233-0.369,8.363-1.098,12.358-2.168l1.351,3.711l11.903-4.332
			l-1.356-3.725c3.809-1.785,7.434-3.895,10.848-6.29l2.563,3.055l9.703-8.142l-2.558-3.048c2.955-2.958,5.641-6.18,8.052-9.61
			l3.454,1.994l6.333-10.97l-3.433-1.982c1.761-3.765,3.208-7.703,4.304-11.785l3.891,0.686l2.199-12.474l-3.9-0.688
			c0.179-2.069,0.289-4.157,0.289-6.272c0-2.115-0.11-4.203-0.289-6.273l3.9-0.688l-2.199-12.474l-3.891,0.686
			c-0.87-3.239-1.948-6.393-3.241-9.437c0.67-0.287,1.29-0.481,1.802-0.481c2.5,0,3.5-3,4-5.5s5,0,7.5-0.5s11-17.5,12-21.5
			s5-14.5,5-14.5L490.5,258z M100.083,304.333c22.24,0,40.334,18.094,40.334,40.334c0,22.239-18.094,40.333-40.334,40.333
			c-22.239,0-40.333-18.094-40.333-40.333C59.75,322.427,77.844,304.333,100.083,304.333z M73.878,259.32l-31.792-39.272
			c0.66-0.325,1.305-0.667,1.914-1.048c8-5,14.184-2.667,14.184-2.667L77,256.5C77,256.5,75.417,257.69,73.878,259.32z
			 M395.083,304.333c22.24,0,40.334,18.094,40.334,40.334c0,22.239-18.094,40.333-40.334,40.333
			c-22.239,0-40.333-18.094-40.333-40.333C354.75,322.427,372.844,304.333,395.083,304.333z M454,268l6.5,13l-10.5,4.5L454,268z
			 M448.5,268l-4,16l-5.417-1.624l0,0l0,0l0,0L445,256.5L448.5,268z M440.5,252.5v9l-3.5,11l-1.945-24.874L440.5,252.5z"/>
	</g>
</g>
<g id="Layer_2">
</g>
</svg>
