<?xml version="1.0" encoding="utf-8"?>
<!-- Generator: Adobe Illustrator 19.1.0, SVG Export Plug-In . SVG Version: 6.00 Build 0)  -->
<svg version="1.1" xmlns="http://www.w3.org/2000/svg" xmlns:xlink="http://www.w3.org/1999/xlink" x="0px" y="0px" width="500px"
	 height="500px" viewBox="0 0 500 500" style="enable-background:new 0 0 500 500;" xml:space="preserve">
<g id="Layer_1">
	<g>
		<path d="M79.999,319.609c-18.289,0-33.168,14.879-33.168,33.168s14.879,33.168,33.168,33.168s33.168-14.879,33.168-33.168
			S98.288,319.609,79.999,319.609z M79.999,378.773c-14.334,0-25.996-11.662-25.996-25.996s11.662-25.996,25.996-25.996
			s25.996,11.662,25.996,25.996S94.333,378.773,79.999,378.773z"/>
		<circle cx="79.999" cy="352.777" r="17.032"/>
		<path d="M487.411,352.777c0-1.896-0.099-3.768-0.259-5.623l3.497-0.617l-1.972-11.182l-3.487,0.615
			c-0.983-3.659-2.28-7.189-3.858-10.564l3.078-1.777l-5.678-9.833l-3.096,1.788c-2.161-3.074-4.568-5.963-7.217-8.614l2.292-2.732
			l-8.698-7.299l-2.298,2.738c-3.061-2.147-6.31-4.038-9.724-5.639l1.215-3.339l-10.67-3.884l-1.21,3.327
			c-3.581-0.959-7.283-1.613-11.078-1.944v-3.55h-1.223c-1.443-5.052-4.454-10.695-10.663-14.421
			c-2.472-1.483,9.392-15.324,11.864-15.324s14.83,12.358,16.807,15.324c1.978,2.966-0.494-11.864-7.909-18.785
			c-7.415-6.921-4.449-4.449-8.403-12.853c-3.955-8.404-11.37-20.762-18.291-25.705c-6.92-4.943-11.37-13.841-6.92-10.875
			c4.449,2.966,6.92,3.46-3.955-10.875c-10.875-14.336-18.784-26.2-21.256-26.694s-9.887,4.943-9.887,4.943
			s-15.818,1.483-18.29,2.966c-2.472,1.483-11.37-18.785-16.313-18.785s-8.404-1.483-8.404-1.483s-2.472-15.324-8.403-16.313
			c-5.932-0.989-9.887-1.483-11.864-1.483c-1.977,0-7.415-3.46-9.886-0.494c-2.472,2.966-0.989,5.438-0.989,5.438l-14.335,2.472
			c0,0-4.449-1.977-4.943,0c-0.495,1.977-0.989,9.887,2.966,8.898s18.29-2.966,18.29-2.966s4.943,2.472,4.943-0.494
			c0-2.966,0-2.966,0-2.966s4.943-0.989,8.404-0.989s7.909,0.989,9.392,4.943c1.483,3.955,2.472,5.932-1.483,5.932
			s-4.449,1.977-4.449,5.438s-2.472,8.404,0,8.898c2.471,0.494,4.943,0.494,4.943,1.977c0,1.483,4.449,6.921-1.483,4.449
			c-5.932-2.472-19.279-9.392-32.625-7.909c-13.347,1.483-34.109,8.404-38.063,10.381c-3.955,1.977,3.955-7.415-3.955-3.46
			c-7.91,3.955-43.501,28.177-77.116,27.682s-68.218-8.898-71.184-8.898s-6.92,0-6.92,0s-36.581-20.268-45.479-24.222
			s-15.818-7.909-17.301-5.932c-1.483,1.977,3.46,4.449,6.426,6.426c2.966,1.977,19.279,13.841,20.268,15.819
			c0.989,1.977,2.472,9.392-0.988,12.358c-3.46,2.966-14.83-1.977-16.808,0c-1.977,1.977,1.73,3.955,3.955,5.932
			c1.168,1.039,16.312,13.347,16.312,13.347s-18.784-6.426-21.75-6.426c-2.966,0-4.159,0.503-4.449,5.438
			c-0.247,4.202-0.093,10.878,0,12.358c0.247,3.955,3.708,6.179,13.841,9.887c11.836,4.33,82.553,34.603,82.553,34.603
			s6.673,3.707,9.886,2.966c5.32-1.228,7.415-3.46,10.381-2.966c2.966,0.494,13.841,9.887,13.841,9.887s-2.966,0-2.966,4.449
			s1.978,13.841,1.978,13.841s-5.438-3.955-5.438-0.989s0.495,12.853,0.495,12.853s-6.6,2.2-13.509,4.547l-1.73-2.997l-3.096,1.788
			c-2.161-3.074-4.569-5.963-7.218-8.614l2.293-2.733l-8.698-7.299l-2.298,2.739c-3.06-2.147-6.309-4.039-9.724-5.639l1.215-3.339
			l-10.67-3.884l-1.211,3.327c-3.581-0.959-7.283-1.613-11.078-1.944v-3.55H74.321v3.55c-3.795,0.331-7.497,0.985-11.078,1.944
			l-1.211-3.327l-10.67,3.884l1.215,3.339c-3.415,1.6-6.664,3.492-9.724,5.639l-2.298-2.738l-8.698,7.299l2.293,2.732
			c-2.649,2.651-5.057,5.54-7.218,8.614l-3.096-1.788l-5.677,9.833l3.078,1.777c-1.578,3.375-2.875,6.905-3.858,10.564l-3.487-0.615
			l-1.972,11.182l3.497,0.617c-0.16,1.855-0.259,3.727-0.259,5.623c0,1.896,0.099,3.768,0.259,5.623l-3.497,0.617l1.972,11.182
			l3.487-0.615c0.983,3.659,2.28,7.189,3.858,10.564l-3.078,1.777l5.677,9.833l3.097-1.788c2.161,3.074,4.569,5.963,7.217,8.614
			l-2.293,2.733l8.698,7.299l2.298-2.739c3.06,2.147,6.31,4.038,9.724,5.639l-1.216,3.339l10.67,3.884l1.211-3.327
			c3.581,0.959,7.283,1.613,11.078,1.944v3.551h11.355v-3.551c3.794-0.331,7.497-0.985,11.078-1.944l1.211,3.327l10.67-3.884
			l-1.215-3.339c3.415-1.6,6.664-3.492,9.724-5.639l2.298,2.739l8.698-7.299l-2.293-2.733c2.649-2.651,5.056-5.54,7.217-8.614
			l3.097,1.788l5.678-9.833l-3.078-1.777c1.578-3.375,2.875-6.905,3.858-10.564l3.488,0.615l1.972-11.182l-3.497-0.617
			c0.039-0.445,0.073-0.892,0.102-1.34c6.74-2.591,14.496-5.493,16.11-5.762c2.966-0.494,9.392-7.415,9.392-10.381
			s3.592,7.263,16.808,1.977c2.472-0.989-3.46,5.438,7.909,5.438s91.451,0.494,91.451,0.494s2.472-2.966,5.438-3.46
			c1.995-0.332,38.645-1.112,63.187-1.587l-0.487,2.759l3.498,0.617c-0.16,1.855-0.259,3.727-0.259,5.623
			c0,1.896,0.099,3.768,0.259,5.622l-3.498,0.617l1.972,11.182l3.488-0.615c0.983,3.659,2.28,7.189,3.858,10.564l-3.078,1.777
			l5.677,9.833l3.097-1.788c2.161,3.074,4.568,5.963,7.217,8.614l-2.293,2.733l8.698,7.299l2.298-2.739
			c3.06,2.147,6.31,4.038,9.724,5.639l-1.215,3.339l10.67,3.884l1.211-3.327c3.581,0.959,7.283,1.613,11.078,1.944v3.551h11.355
			v-3.551c3.794-0.331,7.497-0.985,11.078-1.944l1.211,3.327l10.67-3.884l-1.215-3.339c3.415-1.6,6.664-3.492,9.724-5.639
			l2.298,2.739l8.698-7.299l-2.293-2.733c2.649-2.651,5.057-5.54,7.218-8.614l3.096,1.788l5.678-9.833l-3.078-1.777
			c1.578-3.375,2.875-6.905,3.858-10.564l3.487,0.615l1.972-11.182l-3.497-0.617C487.312,356.545,487.411,354.673,487.411,352.777z
			 M116.154,352.777c0,19.937-16.219,36.155-36.155,36.155s-36.156-16.219-36.156-36.155s16.22-36.156,36.156-36.156
			S116.154,332.841,116.154,352.777z M180.071,274.677l-4.696-2.224l-2.719,4.202l-8.403-5.932l4.943-6.426l4.696-3.213l0.742,4.696
			h7.168l4.449,2.966L180.071,274.677z M258.176,254.574c-3.955,0-15.16-3.955-37.24,16.148l17.796-21.421
			c0,0,4.284-4.284,7.58-3.625c3.296,0.659,13.512,5.932,13.512,5.932S262.13,254.574,258.176,254.574z M322.438,257.87
			l2.719-12.111l8.651,1.73c0,0,15.571,14.088,7.662,32.626c-0.92,2.157-1.236-4.449-6.426-6.673s-6.426-6.673-17.549-9.392
			L322.438,257.87z M294.015,300.877c0.494-2.224,6.179-2.719,4.449-14.583c0,0,21.503,5.932,27.683,3.955
			c6.179-1.977,5.932-3.213,5.932-3.213h5.19c0,0-10.381,19.032-11.37,19.279c-0.989,0.247-13.841,2.719-17.549,2.719
			s-6.92-3.213-9.64-3.213C295.992,305.82,293.52,303.101,294.015,300.877z M327.876,336.468h-6.426l6.426-5.19V336.468z
			 M314.282,335.233l-29.166-1.236c0,0,13.1-0.741,14.088-16.066c0,0,18.537,0,22.739-0.494c4.202-0.494,6.92-1.73,12.605-7.909
			c5.685-6.179,9.639-7.909,9.639-7.909L314.282,335.233z M422.569,316.621c19.937,0,36.156,16.22,36.156,36.156
			s-16.22,36.155-36.156,36.155s-36.155-16.219-36.155-36.155S402.633,316.621,422.569,316.621z M405.486,268.745
			c0,0,9.644,6.55,13.117,15.904h-1.71v3.55c-3.795,0.331-7.497,0.985-11.078,1.944l-0.175-0.482l-3.119-19.433L405.486,268.745z"/>
		<path d="M422.569,385.945c18.289,0,33.168-14.879,33.168-33.168s-14.879-33.168-33.168-33.168s-33.168,14.879-33.168,33.168
			S404.28,385.945,422.569,385.945z M422.569,326.781c14.334,0,25.996,11.662,25.996,25.996s-11.662,25.996-25.996,25.996
			s-25.996-11.662-25.996-25.996S408.235,326.781,422.569,326.781z"/>
		<circle cx="422.569" cy="352.777" r="17.032"/>
	</g>
</g>
<g id="Layer_2">
</g>
</svg>
