<?xml version="1.0" encoding="utf-8"?>
<!-- Generator: Adobe Illustrator 19.1.0, SVG Export Plug-In . SVG Version: 6.00 Build 0)  -->
<svg version="1.1" xmlns="http://www.w3.org/2000/svg" xmlns:xlink="http://www.w3.org/1999/xlink" x="0px" y="0px" width="500px"
	 height="500px" viewBox="0 0 500 500" style="enable-background:new 0 0 500 500;" xml:space="preserve">
<g id="Layer_1">
	<g>
		<path d="M205.472,344.199c2.005,3.497,3.445,7.826,7.754,5.636c5.221-2.653,15.242-8.172,17.241-9.175
			c1.998-1.003,3.218-2.167,1.745-5.065c-0.936-1.84-4.746-9.124-5.762-10.965c-1.126,0.534-2.504,1.163-3.506,1.541
			c-1.999,0.753-2.25-0.247-2.752-1.246s-0.004-2.5,0.996-3.002c0.5-0.251,1.75-0.941,2.874-1.568
			c-2.843-5.021-5.409-9.331-6.644-11.177c0,0-0.977-3.05-7,0.011c-4.983,2.533-12.49,6.52-14.988,8.023
			c-2.498,1.504-3.115,3.782,0.015,9.5C198.453,332.21,204.022,341.67,205.472,344.199z"/>
		<path d="M151.616,95.6c2.123,0.234,1.895,1.239,1.889,2.357c-0.006,1.118-1.129,2.23-2.248,2.225
			c-0.559-0.003-1.986,0.046-3.272,0.096c0.26,5.764,0.595,10.769,0.859,12.974c0,0-0.511,3.162,6.246,3.162
			c5.59,0,14.088-0.153,16.996-0.362c2.908-0.209,4.491-1.96,4.291-8.476c-0.192-6.262-0.871-17.218-1.018-20.13
			c-0.204-4.026,0.475-8.537-4.359-8.537c-5.856,0-17.291,0.379-19.526,0.368c-2.236-0.011-3.851,0.474-3.851,3.724
			c0,2.064,0.097,10.284,0.168,12.385C149.038,95.419,150.552,95.483,151.616,95.6z"/>
		<path d="M457,426c0,0,7.5,9-17,18s-68.988,22.371-111.5,23.5c-56.5,1.5-84-20-107.5-27s-76.5-17-106.5-19s-49-11-52-17
			c0,0,8,30,3,55C63.358,470.208,84,473,96.5,474s69,5.5,73.5,5.5s4.5-3,7.5-6.5s4.69-7.595,12.5-11.5c2-1,1-12.5,1-12.5
			s26,6,51.5,17.5S283,486,331,483s109.475-16.356,131-32.5C464,449,467.5,431.5,457,426z"/>
		<path d="M126.5,416c33,3,87,11.5,116.5,25s46.774,21.475,93.126,17.767c50-4,101.737-21.676,109.374-26.767c13.5-9,9-11.5,3-29
			s-30-20-60-22.5S348,367,336.5,359s-47.5-37.5-46-39.5s-0.5-8-0.5-8s-7-26-8.5-31.5s-5-6-5-8s1-4.5,1.5-12s1-73.5,2.5-90
			s8-109,9.5-117s-2-16.5,0-22s-3-5.5-9-6s-62-3.5-99-4s-94.5,3.5-98.5,3.5S82,30,82.5,33s-2,31.5-3,40.5s-1.5,60,3,95
			s5,66,5.5,74.5s-3.5,28.5-6.5,35s-4,17.5-4,21s-3,22.5-3,28s-9,28-9.5,56.5S93.5,413,126.5,416z M225.405,301.168
			c1.504,2.498,11.032,20.483,15.042,26.977c4.01,6.494,3.814,9.553,0.518,11.499c-2.318,1.369-26.319,14.43-35.69,19.193
			c-4.754,2.416-6.142,0.582-8.787-4.623c-1.013-1.993-14.038-24.478-16.044-28.475c-2.006-3.997,0.99-6.502,2.988-7.505
			c1.998-1.003,25.066-14.794,33.857-19.262C223.232,295.951,223.901,298.67,225.405,301.168z M141.654,75.425
			c2.688-0.17,30.001-0.94,40.513-0.94c5.333,0,5.739,2.264,5.739,8.102c0,2.236,1.425,28.182,1.402,32.654
			c-0.022,4.472-3.828,5.348-6.064,5.336s-29.049,1.832-38.91,1.832c-6.667,0-6.031-2.727-6.24-5.635
			c-0.209-2.908-0.555-23.258-1.188-30.864C136.273,78.306,137.833,75.667,141.654,75.425z"/>
	</g>
</g>
<g id="Layer_2">
</g>
</svg>
