<?xml version="1.0" encoding="utf-8"?>
<!-- Generator: Adobe Illustrator 19.1.0, SVG Export Plug-In . SVG Version: 6.00 Build 0)  -->
<svg version="1.1" id="Layer_1" xmlns="http://www.w3.org/2000/svg" xmlns:xlink="http://www.w3.org/1999/xlink" x="0px" y="0px"
	 width="500px" height="500px" viewBox="0 0 500 500" style="enable-background:new 0 0 500 500;" xml:space="preserve">
<g>
	<path d="M144.828,52.229c-9.347,9.347-14.422,21.34-15.253,33.568c-1.343,11.298-6.333,22.244-15.002,30.913
		c-9.017,9.017-20.497,14.052-32.275,15.144c-0.139,0.013-0.277,0.029-0.416,0.043c-0.037,0.003-0.073,0.008-0.11,0.011l0.002,0.002
		c-11.586,1.196-22.852,6.225-31.73,15.103c-20.52,20.52-20.52,53.79,0,74.31s53.79,20.52,74.31,0
		c9.66-9.66,14.769-22.146,15.334-34.797c1.524-10.917,6.465-21.447,14.859-29.842c8.299-8.299,18.684-13.219,29.466-14.804
		c12.763-0.49,25.382-5.598,35.125-15.342c20.52-20.52,20.52-53.79,0-74.31S165.348,31.709,144.828,52.229z M97.651,194.623
		c-5.773,5.773-15.133,5.773-20.906,0c-5.773-5.773-5.773-15.133,0-20.906c5.773-5.773,15.133-5.773,20.906,0
		C103.424,179.49,103.424,188.85,97.651,194.623z M192.436,99.837c-5.773,5.773-15.133,5.773-20.906,0
		c-5.773-5.773-5.773-15.133,0-20.906c5.773-5.773,15.133-5.773,20.906,0C198.209,84.704,198.209,94.064,192.436,99.837z"/>
	<path d="M447.771,144.828c-9.347-9.347-21.34-14.422-33.568-15.253c-11.298-1.343-22.244-6.333-30.913-15.002
		c-9.017-9.017-14.052-20.497-15.144-32.275c-0.013-0.139-0.029-0.277-0.043-0.416c-0.003-0.037-0.008-0.073-0.011-0.11
		l-0.002,0.002c-1.196-11.586-6.225-22.852-15.103-31.73c-20.52-20.52-53.79-20.52-74.31,0c-20.52,20.52-20.52,53.79,0,74.31
		c9.66,9.66,22.146,14.769,34.797,15.334c10.917,1.524,21.447,6.465,29.842,14.859c8.298,8.299,13.219,18.684,14.804,29.466
		c0.49,12.763,5.598,25.382,15.342,35.125c20.52,20.52,53.79,20.52,74.31,0C468.291,198.618,468.291,165.348,447.771,144.828z
		 M305.377,97.651c-5.773-5.773-5.773-15.133,0-20.906c5.773-5.773,15.133-5.773,20.906,0c5.773,5.773,5.773,15.133,0,20.906
		C320.51,103.424,311.151,103.424,305.377,97.651z M400.163,192.436c-5.773-5.773-5.773-15.133,0-20.906
		c5.773-5.773,15.133-5.773,20.906,0c5.773,5.773,5.773,15.133,0,20.906C415.296,198.209,405.936,198.209,400.163,192.436z"/>
	<path d="M355.172,447.771c9.347-9.347,14.422-21.34,15.253-33.568c1.343-11.298,6.333-22.244,15.002-30.913
		c9.017-9.017,20.497-14.052,32.275-15.144c0.139-0.013,0.277-0.029,0.416-0.043c0.037-0.003,0.073-0.008,0.11-0.011l-0.002-0.002
		c11.586-1.196,22.852-6.225,31.73-15.103c20.52-20.52,20.52-53.79,0-74.31c-20.52-20.52-53.79-20.52-74.31,0
		c-9.66,9.66-14.769,22.146-15.334,34.797c-1.524,10.917-6.465,21.447-14.859,29.842c-8.299,8.298-18.684,13.219-29.466,14.804
		c-12.763,0.49-25.382,5.598-35.125,15.342c-20.52,20.52-20.52,53.79,0,74.31C301.382,468.291,334.652,468.291,355.172,447.771z
		 M402.349,305.377c5.773-5.773,15.133-5.773,20.906,0c5.773,5.773,5.773,15.133,0,20.906c-5.773,5.773-15.133,5.773-20.906,0
		C396.576,320.51,396.576,311.151,402.349,305.377z M307.564,400.163c5.773-5.773,15.133-5.773,20.906,0
		c5.773,5.773,5.773,15.133,0,20.906c-5.773,5.773-15.133,5.773-20.906,0C301.791,415.296,301.791,405.936,307.564,400.163z"/>
	<path d="M52.229,355.172c9.347,9.347,21.34,14.422,33.568,15.253c11.298,1.343,22.244,6.333,30.913,15.002
		c9.017,9.017,14.052,20.497,15.144,32.275c0.013,0.139,0.029,0.277,0.043,0.416c0.003,0.037,0.008,0.073,0.011,0.11l0.002-0.002
		c1.196,11.586,6.225,22.852,15.103,31.73c20.52,20.52,53.79,20.52,74.31,0c20.52-20.52,20.52-53.79,0-74.31
		c-9.66-9.66-22.146-14.769-34.797-15.334c-10.917-1.524-21.447-6.465-29.842-14.859c-8.299-8.299-13.219-18.684-14.804-29.466
		c-0.49-12.763-5.598-25.382-15.342-35.125c-20.52-20.52-53.79-20.52-74.31,0C31.709,301.382,31.709,334.652,52.229,355.172z
		 M194.623,402.349c5.773,5.773,5.773,15.133,0,20.906c-5.773,5.773-15.133,5.773-20.906,0c-5.773-5.773-5.773-15.133,0-20.906
		C179.49,396.576,188.85,396.576,194.623,402.349z M99.837,307.564c5.773,5.773,5.773,15.133,0,20.906
		c-5.773,5.773-15.133,5.773-20.906,0c-5.773-5.773-5.773-15.133,0-20.906C84.704,301.791,94.064,301.791,99.837,307.564z"/>
</g>
<path d="M262.937,57.761c-4.588,1.399-9.442,2.194-14.479,2.273c-5.047,0.079-9.936-0.563-14.573-1.822
	c11.134,18.543,11.457,41.799,0.985,60.623c4.588-1.398,9.441-2.196,14.478-2.276c5.057-0.08,9.951,0.571,14.597,1.834
	C252.798,99.851,252.468,76.591,262.937,57.761z"/>
<path d="M442.236,262.937c-1.399-4.588-2.194-9.442-2.273-14.479c-0.079-5.047,0.563-9.936,1.822-14.573
	c-18.543,11.134-41.799,11.457-60.623,0.985c1.398,4.588,2.196,9.441,2.276,14.478c0.08,5.057-0.571,9.951-1.834,14.597
	C400.146,252.799,423.406,252.468,442.236,262.937z"/>
<path d="M237.06,442.236c4.588-1.399,9.442-2.194,14.479-2.273c5.047-0.079,9.936,0.563,14.573,1.822
	c-11.134-18.543-11.457-41.799-0.985-60.623c-4.588,1.398-9.441,2.196-14.478,2.276c-5.057,0.08-9.951-0.571-14.597-1.834
	C247.198,400.146,247.528,423.407,237.06,442.236z"/>
<path d="M57.761,237.06c1.399,4.588,2.194,9.442,2.273,14.479c0.079,5.047-0.563,9.936-1.822,14.573
	c18.543-11.134,41.799-11.457,60.623-0.985c-1.398-4.588-2.196-9.441-2.276-14.478c-0.08-5.057,0.571-9.951,1.834-14.597
	C99.851,247.198,76.59,247.529,57.761,237.06z"/>
</svg>
