<?xml version="1.0" encoding="utf-8"?>
<!-- Generator: Adobe Illustrator 19.1.0, SVG Export Plug-In . SVG Version: 6.00 Build 0)  -->
<svg version="1.1" id="Layer_1" xmlns="http://www.w3.org/2000/svg" xmlns:xlink="http://www.w3.org/1999/xlink" x="0px" y="0px"
	 width="500px" height="500px" viewBox="0 0 500 500" style="enable-background:new 0 0 500 500;" xml:space="preserve">
<g>
	<path d="M344.084,136.434c-3.995,0.391-42.212,3.413-69.993,18.815c0,0-1.766-4.409-2.119-5.738
		c-0.353-1.328-0.245-5.058,1.575-6.357c4.29-3.062,13.536-9.196,31.143-13.45c24.991-6.038,33.277-4.147,34.615-3.832
		c1.338,0.314,2.671,0.295,3.367,2.285C343.367,130.148,344.084,136.434,344.084,136.434z"/>
	<path d="M483.539,226.154c-29.833-91.333-120.5-92.333-162.833-80.333c-151.837,43.041-302.667,148-311.167,185.833
		c-7.609,33.869,17.5,32,28.5,32c0,0,333,11,363,11s48.976-7.175,53-10.5C465.539,354.654,510.149,307.618,483.539,226.154z
		 M465.804,294.197c-2.042,4.668-3.62,13.137-14.122,12.002c-10.503-1.135-15.328,7.38-19.018,14.193
		c-3.69,6.813-8.515,16.747-30.94,21.289s-46.836-15.328-74.938-17.883c-28.102-2.555-65.003,17.599-86.008,20.154
		c-21.005,2.555-37.469-5.393-42.011-8.232c-4.542-2.839-3.122-4.258,1.136-3.122c4.258,1.135,23.276,5.677,38.32,4.826
		c15.044-0.852,27.25-7.096,46.552-13.625s39.172-8.232,55.068-7.096c15.896,1.135,33.495,11.354,52.513,7.664
		c19.018-3.69,22.425-27.25,4.826-35.766c-17.599-8.516-54.784,14.76-76.357,17.599c-21.573,2.839-55.92-5.677-77.777-6.813
		c-21.857-1.135-38.604,8.8-43.43,11.922c-4.826,3.122-11.638,3.974-2.839-3.69c8.799-7.664,25.547-13.625,45.417-16.464
		c19.87-2.839,34.63,8.232,78.628,6.529c23.549-0.912,41.443-20.154,68.409-27.25c26.966-7.096,37.469,11.922,51.662,23.56
		c14.193,11.638,16.18-2.839,16.18-7.664c0-4.826-7.609-26.851-24.412-31.224c-14.538-3.784-40.88-2.364-54.676-1.462
		c-11.897,0.778-24.216,4.96-28.008,11.67c-2.772,4.905-7.297,17.609-31.709,23.287c-24.411,5.677-53.648-12.773-75.222-15.044
		c-21.573-2.271-45.133,12.206-61.597,13.625c-16.463,1.419-24.979-4.258-24.979-5.393c0-1.135,1.987-2.555,7.38-1.419
		c5.393,1.135,17.031,2.555,30.656-2.839c13.625-5.393,35.482-9.935,49.675-11.354c14.193-1.419,23.276,2.839,45.985,7.948
		c22.708,5.109,31.508-7.948,33.779-16.18c2.271-8.232-4.825-17.315-21.857-19.586c-17.032-2.271-44.282,15.044-57.339,18.451
		c-13.057,3.406-22.424,2.271-47.404-1.987c-24.979-4.258-32.967,4.564-36.617,7.096c-4.475,3.104-5.509,0.132-2.433-2.731
		c21.006-19.547,49.039-7.601,70.896-8.169c21.857-0.568,43.376-16.918,71.478-26.001c28.101-9.083,35.482,0.852,43.714,9.651
		c8.232,8.799,17.315,9.935,31.224,9.651c13.909-0.284,47.688-7.096,60.177-14.193c12.49-7.096,7.948-26.399-1.987-30.089
		c-9.935-3.69-16.464,10.503-27.25,19.302c-10.786,8.8-36.617,6.813-45.133,3.69c-8.516-3.122-42.862-11.922-54.5-10.503
		c-11.638,1.419-44.282,11.922-56.771,13.625c-12.49,1.703-22.708-3.122-24.411-3.974c-1.703-0.852-2.958-3.545,1.71-2.67
		c2.232,0.419,8.169,2.626,23.837,1.25c7.069-0.621,33.325-9.487,50.56-13.796c22.173-5.543,44.532,2.441,63.266,6.132
		c18.735,3.69,25.831-14.76,24.412-20.721c-1.419-5.961-14.477-12.774-26.115-9.083c-11.638,3.69-39.351,12.642-48.434,14.629
		c-9.083,1.987-27.355,2.402-42.116,1.551c-14.761-0.852-27.534,2.555-33.211,4.258c-5.677,1.703-8.785,0.877,0.346-3.766
		c17.214-8.753,42.489-5.075,63.019-6.71c25.803-2.056,48.474-16.773,65.79-24.721c17.315-7.948,33.115-0.953,37.783,6.925
		c2.66,4.49,6.127,17.505,23.53,17.203c5.676-0.098,8.541,1.585,11.922,5.109C476.599,233.804,466.693,292.166,465.804,294.197z"/>
</g>
</svg>
