<?xml version="1.0" encoding="utf-8"?>
<!-- Generator: Adobe Illustrator 19.1.0, SVG Export Plug-In . SVG Version: 6.00 Build 0)  -->
<svg version="1.1" xmlns="http://www.w3.org/2000/svg" xmlns:xlink="http://www.w3.org/1999/xlink" x="0px" y="0px"
	 viewBox="0 0 500 500" style="enable-background:new 0 0 500 500;" xml:space="preserve">
<g id="Layer_1">
	<g>
		<path d="M127.936,295.786c-15.476-6.653-27.088-14.395-32.118-20.686c-1.733-2.168-3.266-6.532-7.077-1.089
			c-3.811,5.444-67.529,47.33-70.251,49.507c-2.722,2.177-7.077,7.621-3.266,12.521c3.811,4.899,44.651,65.369,72.959,150.29
			c1.721,5.164,2.177,8.166,8.166,3.266c0,0,31.043-35.942,56.628-61.528s48.313-38.883,49.81-40.555
			c4.627-5.172,13.065-22.591-2.994-38.922C178.456,326.892,151.869,306.075,127.936,295.786z"/>
		<path d="M458.912,189.09c-6.532,0.544-15.242,3.811-24.497,10.343c-7.573,5.346-39.739,27.763-43.549,28.852
			c-3.811,1.089-25.585,9.254-25.585,9.254s19.597-14.698,23.408-16.331c3.811-1.633,21.23-8.71,32.118-16.331
			c10.887-7.621,29.94-26.13,33.751-27.763c3.811-1.633,16.331-15.787,22.863-23.952s8.71-21.775,6.532-28.307
			c-2.177-6.532-3.811-13.609-10.887-14.698c-6.135-0.944-15.787,0.544-28.307,10.887c-12.521,10.343-28.307,22.863-57.159,40.283
			c-28.852,17.42-40.283,22.864-40.283,22.864s-1.089-3.811,2.177-7.621c3.266-3.811,14.154-14.698,22.863-19.053
			c8.71-4.355,34.84-22.864,40.283-28.307c5.444-5.444,22.319-19.597,28.307-23.952c5.988-4.355,17.964-14.698,20.686-17.42
			c2.722-2.722,6.532-14.154,0.544-25.041c-3.645-6.627-8.71-11.976-16.875-11.432s-16.331,5.444-29.94,14.698
			c-13.609,9.254-22.863,16.331-28.852,18.509c-5.988,2.177-9.539,3.275-19.597,9.799c-10.071,6.532-15.515,11.16-25.313,20.142
			c-9.799,8.982-16.059,19.597-26.946,25.585c-10.887,5.988-18.509,7.077-13.609,1.633c4.899-5.444,18.509-15.787,24.497-25.041
			c5.988-9.254,23.952-28.852,33.207-35.928c9.254-7.077,33.751-27.218,36.473-30.485c2.722-3.266,9.612-13.944,6.532-23.952
			c-2.177-7.077-9.799-15.787-21.23-14.154c-11.432,1.633-26.674,6.532-45.183,21.23s-41.916,33.751-43.549,37.017
			c-1.633,3.266-8.166,11.432-11.976,14.698c-3.811,3.266-30.485,24.497-30.485,24.497s-13.609,6.532-17.964,10.887
			c-4.355,4.355-13.609,9.799-13.609,9.799s-11.432-4.355-3.266-11.976s15.949-17.484,18.509-22.319
			c4.899-9.254,10.569-21.988,13.065-28.852c4.355-11.976,4.163-27.337,1.633-34.295c-4.355-11.976-21.23-14.154-26.13-9.254
			c-4.899,4.899-13.065,18.509-13.065,18.509s-3.141,3.64-8.166,10.343c-3.362,4.484-5.444,5.444-9.254,9.799
			c-3.811,4.355-12.855,16.359-23.946,32.369c-8.764,12.65-18.387,25.645-18.387,25.645s-22.882,27.069-20.27,61.748
			c1.399,18.573-3.811,52.804-12.521,62.602s-12.52,14.698-12.52,14.698s-3.6,5.005,1.089,11.16
			c4.355,5.716,23.952,12.793,54.437,30.757c30.485,17.964,53.893,43.005,57.703,55.526c3.811,12.521-0.544,16.875,1.633,17.42
			c2.177,0.544,4.627-0.272,12.793-4.083s70.496-43.277,81.383-47.088c10.887-3.811,45.183-18.509,53.348-22.864
			c8.166-4.355,72.945-48.993,77.3-53.348c4.355-4.355,16.331-10.343,21.23-14.698c4.899-4.355,19.053-17.964,13.065-30.485
			C471.433,189.09,465.445,188.546,458.912,189.09z M405.542,160.681c0.484-1.285,1.906-1.938,3.196-1.466
			c0.54,0.2,13.295,5.127,18.574,26.059c0.338,1.339-0.474,2.698-1.812,3.035c-0.205,0.052-0.411,0.077-0.613,0.077
			c-1.118,0-2.137-0.756-2.422-1.89c-4.592-18.203-15.033-22.426-15.476-22.597C405.708,163.405,405.057,161.966,405.542,160.681z
			 M396.747,168.01c0.479-1.296,1.918-1.956,3.212-1.479c0.54,0.2,13.295,5.128,18.574,26.059c0.338,1.339-0.474,2.697-1.812,3.035
			c-0.205,0.052-0.411,0.077-0.613,0.077c-1.118,0-2.136-0.756-2.422-1.89c-4.642-18.403-15.352-22.551-15.459-22.59
			C396.932,170.743,396.27,169.306,396.747,168.01z M387.984,175.313c0.485-1.284,1.905-1.938,3.196-1.466
			c0.54,0.2,13.295,5.127,18.574,26.058c0.338,1.339-0.474,2.697-1.812,3.035c-0.205,0.052-0.411,0.077-0.613,0.077
			c-1.118,0-2.136-0.756-2.422-1.89c-4.591-18.202-15.033-22.425-15.476-22.596C388.151,178.036,387.499,176.598,387.984,175.313z
			 M379.144,98.348c0.344-1.338,1.714-2.141,3.043-1.799c0.626,0.16,15.423,4.203,23.738,27.046
			c0.472,1.298-0.197,2.732-1.494,3.205c-0.282,0.103-0.571,0.151-0.855,0.151c-1.021,0-1.979-0.631-2.35-1.646
			c-7.423-20.395-20.156-23.882-20.283-23.915C379.605,101.047,378.8,99.685,379.144,98.348z M369.232,105.286
			c0.344-1.338,1.712-2.142,3.043-1.799c0.626,0.16,15.423,4.203,23.738,27.046c0.472,1.298-0.197,2.732-1.494,3.205
			c-0.282,0.103-0.571,0.151-0.855,0.151c-1.021,0-1.979-0.631-2.35-1.646c-7.423-20.395-20.156-23.882-20.283-23.915
			C369.693,107.986,368.888,106.623,369.232,105.286z M359.319,112.225c0.344-1.337,1.714-2.143,3.043-1.799
			c0.626,0.16,15.424,4.202,23.739,27.045c0.472,1.298-0.197,2.732-1.494,3.205c-0.282,0.103-0.571,0.151-0.855,0.151
			c-1.021,0-1.979-0.631-2.35-1.646c-7.423-20.394-20.157-23.881-20.284-23.914C359.78,114.924,358.976,113.562,359.319,112.225z
			 M321.63,55.747c0.197-1.359,1.446-2.305,2.807-2.118c0.59,0.081,14.559,2.223,24.548,22.199c0.617,1.235,0.116,2.736-1.118,3.354
			c-0.359,0.179-0.74,0.265-1.116,0.265c-0.917,0-1.8-0.507-2.238-1.383c-4.578-9.156-9.992-13.967-13.729-16.391
			c-4.022-2.609-7.018-3.09-7.048-3.095C322.378,58.372,321.433,57.107,321.63,55.747z M313.928,63.45
			c0.197-1.359,1.446-2.306,2.807-2.118c0.59,0.081,14.559,2.223,24.548,22.199c0.617,1.235,0.116,2.736-1.118,3.354
			c-0.359,0.179-0.74,0.265-1.116,0.265c-0.917,0-1.8-0.507-2.238-1.383c-4.578-9.156-9.992-13.967-13.729-16.391
			c-4.022-2.609-7.018-3.09-7.048-3.095C314.676,66.075,313.731,64.809,313.928,63.45z M306.215,71.168
			c0.188-1.367,1.438-2.318,2.818-2.135c0.59,0.081,14.559,2.221,24.547,22.198c0.617,1.235,0.116,2.736-1.118,3.354
			c-0.359,0.179-0.74,0.265-1.116,0.265c-0.917,0-1.8-0.507-2.238-1.383c-8.822-17.646-20.639-19.465-20.758-19.481
			C306.983,73.798,306.026,72.536,306.215,71.168z M216.153,200.706c-3.293,0-6.067-0.977-8.132-2.918
			c-3.688-3.466-4.447-9.381-2.139-16.655c2.113-6.656,6.598-13.855,12.629-20.271c6.029-6.416,12.938-11.338,19.451-13.858
			c7.117-2.755,13.067-2.362,16.756,1.104c3.688,3.465,4.447,9.38,2.138,16.655c-2.112,6.656-6.598,13.855-12.628,20.271
			s-12.938,11.338-19.451,13.858C221.646,200.104,218.739,200.706,216.153,200.706z M243.466,237.453
			c-4.359,0-7.822-1.378-10.039-4.064c-6.297-7.634,0.322-23.143,15.069-35.308c14.747-12.164,31.231-15.714,37.528-8.081
			c6.297,7.634-0.322,23.143-15.069,35.308c-6.792,5.603-14.267,9.612-21.045,11.291C247.6,237.17,245.442,237.453,243.466,237.453z
			 M259.879,268.823c-6.296-7.633,0.323-23.142,15.069-35.308c14.749-12.165,31.231-15.713,37.529-8.081
			c3.221,3.904,3.227,9.867,0.017,16.793c-2.937,6.336-8.294,12.912-15.087,18.515c-6.792,5.603-14.267,9.612-21.045,11.291
			c-2.311,0.571-4.469,0.854-6.444,0.854C265.559,272.887,262.096,271.509,259.879,268.823z M314.529,303.21
			c-8.751,4.887-17.548,7.358-24.631,7.358c-6.427,0-11.443-2.033-13.738-6.144c-4.824-8.641,4.471-22.709,21.162-32.029
			s33.545-9.854,38.369-1.215S331.22,293.89,314.529,303.21z M413.141,258.576c-0.205,0.052-0.411,0.077-0.613,0.077
			c-1.118,0-2.136-0.756-2.422-1.89c-3.483-13.811-11.404-16.88-11.484-16.909c-1.295-0.479-1.957-1.916-1.479-3.212
			c0.479-1.296,1.917-1.957,3.212-1.479c0.426,0.158,10.479,4.04,14.6,20.378C415.291,256.879,414.48,258.239,413.141,258.576z
			 M421.6,252.056c-0.205,0.052-0.411,0.077-0.613,0.077c-1.118,0-2.136-0.756-2.422-1.89c-3.483-13.811-11.404-16.88-11.484-16.909
			c-1.295-0.479-1.957-1.916-1.479-3.212c0.479-1.296,1.916-1.956,3.212-1.479c0.426,0.158,10.479,4.04,14.6,20.378
			C423.75,250.36,422.939,251.719,421.6,252.056z M430.059,245.536c-0.205,0.052-0.411,0.077-0.613,0.077
			c-1.118,0-2.136-0.756-2.422-1.89c-3.483-13.811-11.404-16.88-11.484-16.909c-1.295-0.479-1.957-1.916-1.479-3.212
			c0.479-1.296,1.916-1.956,3.212-1.479c0.426,0.158,10.479,4.04,14.6,20.378C432.209,243.84,431.398,245.2,430.059,245.536z"/>
	</g>
</g>
<g id="Layer_2">
</g>
</svg>
