<?xml version="1.0" encoding="utf-8"?>
<!-- Generator: Adobe Illustrator 19.1.0, SVG Export Plug-In . SVG Version: 6.00 Build 0)  -->
<svg version="1.1" xmlns="http://www.w3.org/2000/svg" xmlns:xlink="http://www.w3.org/1999/xlink" x="0px" y="0px"
	 viewBox="0 0 500 500" style="enable-background:new 0 0 500 500;" xml:space="preserve">
<g id="Layer_1">
	<g>
		<path d="M460.922,302.931c-3.416-4.968-8.819-7.233-12.761-8.286c-7.934,22.762-21.26,31.141-31.159,34.141
			c-8.711,2.64-19.55,4.035-31.346,4.035c-24.65,0-49.531-5.808-66.556-15.537c-37.7-21.543-56.811-55.776-59.026-80.146
			c-1.323-14.552-1.727-31.181,10.302-44.356c6.622-7.253,14.879-12.464,24.541-15.49c7.08-2.217,14.985-3.295,24.166-3.295h58.988
			c0.408,0,0.842-0.003,1.3-0.007c0.592-0.005,1.219-0.009,1.877-0.009c5.542,0,20.265,0,33.492,9.7
			c11.149,8.176,20.841,20.153,28.028,34.638c6.198,12.49,10.085,25.89,10.946,37.731c0.028,0.388,0.049,0.803,0.07,1.219
			c1.361,0.061,2.909,0.027,4.721-0.199c4.835-0.604,8.095-2.843,10.298-5.261c-0.637-25.6-4.857-52.014-30.807-73.16
			c-35.314-28.776-66.022-31.054-100.775-31.054s-57.735,0.523-94.73,1.046c-12.891,0.182-41.479-3.662-51.569-3.139
			c-10.09,0.523-36.995,2.093-48.206,2.093s-42.04,4.709-58.296,13.08s-31.39,18.835-36.995,24.59s-13.453,20.405-17.377,32.961
			c-1.874,5.997-3.618,14.62-4.931,23.644c0.098,0.174,0.195,0.358,0.287,0.562c1.207,2.655,4.586,10.379,14.241,11.586
			c1.765,0.221,3.277,0.257,4.613,0.202c1.109-11.381,4.904-24.05,10.786-35.903c7.187-14.484,16.879-26.462,28.028-34.638
			c13.228-9.7,27.95-9.7,33.493-9.7c0.658,0,1.285,0.005,1.877,0.009c0.458,0.003,0.892,0.007,1.3,0.007h58.988
			c7.805,0,31.556,0,48.708,18.786c12.029,13.175,11.625,29.804,10.302,44.356c-2.215,24.37-21.326,58.603-59.026,80.146
			c-17.025,9.729-41.906,15.537-66.556,15.537c-11.796,0-22.635-1.395-31.346-4.035c-10.135-3.071-23.865-11.772-31.72-35.784
			c-0.115-0.35-0.217-0.702-0.327-1.052c-3.78,1.181-8.462,3.461-11.534,7.93c-5.31,7.724-5.31,12.552-9.172,12.793
			c-2.078,0.13-4.918,0.19-7.105,0.217c2.017,1.003,4.574,1.838,8.795,1.714c0.159-0.005,0.33-0.011,0.497-0.017
			c2.568,6.95,5.964,13.738,10.452,19.788c15.134,20.405,29.148,25.636,45.964,25.636c16.816,0,43.161-0.523,59.977-3.139
			c16.816-2.616,43.722-11.51,67.264-35.577c23.542-24.067,25.224-24.59,29.708-24.59c4.484,0,11.211,4.709,16.816,12.557
			c5.605,7.848,47.085,46.564,82.399,50.75c35.314,4.186,72.678,7.768,105.941-16.742c5.805-4.277,11.438-13.226,15.277-25.812
			c1.63,0.092,3.119,0.161,4.358,0.198c4.221,0.124,6.777-0.711,8.795-1.714c-2.187-0.028-5.027-0.087-7.105-0.217
			C466.232,315.482,466.232,310.655,460.922,302.931z"/>
		<path d="M26.132,303.018c0-3.138-6.517-54.551-6.759-55.758c-0.139-0.695-0.525-0.984-1.099-1.109
			c-3.099,0.376-7.854,0.951-9.28,1.109c-2.172,0.241-5.552,0.966-4.586,8.69c0.966,7.724,5.793,46.344,6.034,48.275
			c0.225,1.801,1.292,4.442,4.57,5.768c-0.137-0.255-0.225-0.495-0.225-0.699c0-1.207,2.655-2.414,4.103-2.414
			c1.448,0,2.414,0.724,3.379,0.724C23.235,307.604,26.132,306.156,26.132,303.018z"/>
		<path d="M458.508,268.173c-1.931,1.448-2.172,2.655-2.172,2.655s-0.483,6.034-0.724,9.172c-0.241,3.138,0.483,5.552,1.207,6.276
			c0.724,0.724,4.345,5.793,7.241,8.931c2.896,3.138,5.069,0.241,5.069-1.931c0-2.172,2.172-24.862,2.655-30.413
			c0.483-5.552-3.379-2.896-4.586-1.931C465.991,261.897,459.745,267.245,458.508,268.173z"/>
		<path d="M34.097,292.156c2.897-3.138,6.517-8.207,7.241-8.931c0.724-0.724,1.448-3.138,1.207-6.276
			c-0.241-3.138-0.724-9.172-0.724-9.172s-0.241-1.207-2.172-2.655c-1.237-0.927-7.483-6.276-8.689-7.241
			c-1.207-0.966-5.069-3.621-4.586,1.931c0.483,5.552,2.655,28.241,2.655,30.413C29.028,292.397,31.201,295.294,34.097,292.156z"/>
		<path d="M489.163,250.311c-1.426-0.159-6.182-0.733-9.281-1.109c-0.573,0.125-0.959,0.414-1.099,1.109
			c-0.241,1.207-6.759,52.62-6.759,55.758c0,3.138,2.897,4.586,3.862,4.586c0.966,0,1.931-0.724,3.379-0.724
			c1.448,0,4.103,1.207,4.103,2.414c0,0.204-0.087,0.444-0.225,0.699c3.277-1.326,4.344-3.967,4.57-5.768
			c0.241-1.931,5.069-40.551,6.034-48.275C494.715,251.276,491.335,250.552,489.163,250.311z"/>
		<path d="M405.872,195.776c-8.605-6.311-18.182-6.796-24.622-6.796c-1.171,0-2.238,0.016-3.177,0.016c-6.102,0-52.886,0-58.988,0
			c-12.883,0-27.063,2.326-37.63,13.9c-7.119,7.797-7.797,17.968-6.441,32.884c1.554,17.096,15.891,48.115,51.53,68.481
			c15.82,9.04,38.874,13.561,59.114,13.561c10.121,0,19.536-1.13,26.995-3.39c22.375-6.78,27.093-43.701,26.104-57.293
			C437.4,238.492,425.947,210.497,405.872,195.776z M390.772,297.997c-71.139-1.525-89.947-43.847-94.904-56.735
			c-4.957-12.888,3.869-24.587,10.905-28.75c13.599-8.046,83.999-4.023,83.999-4.023V297.997z"/>
		<path d="M85.166,314.431c7.459,2.26,16.874,3.39,26.995,3.39c20.239,0,43.294-4.521,59.114-13.561
			c35.639-20.365,49.976-51.385,51.53-68.481c1.356-14.917,0.678-25.087-6.441-32.884c-10.567-11.573-24.748-13.9-37.63-13.9
			c-6.102,0-52.886,0-58.988,0c-0.939,0-2.006-0.016-3.177-0.016c-6.44,0-16.017,0.486-24.622,6.796
			c-20.074,14.721-31.528,42.716-32.884,61.361C58.073,270.73,62.791,307.65,85.166,314.431z M108.286,208.49
			c0,0,70.399-4.023,83.999,4.023c7.036,4.163,15.862,15.862,10.905,28.75c-4.957,12.888-23.765,55.21-94.904,56.735V208.49z"/>
	</g>
</g>
<g id="Layer_2">
</g>
</svg>
