<?xml version="1.0" encoding="utf-8"?>
<!-- Generator: Adobe Illustrator 19.1.0, SVG Export Plug-In . SVG Version: 6.00 Build 0)  -->
<svg version="1.1" xmlns="http://www.w3.org/2000/svg" xmlns:xlink="http://www.w3.org/1999/xlink" x="0px" y="0px"
	 viewBox="0 0 500 500" style="enable-background:new 0 0 500 500;" xml:space="preserve">
<g id="Layer_1">
	<path d="M495.903,117.454c-0.063-6.178-92.67-22.641-125.315-28.433C349.579,85.294,313.494,75.244,297,73
		c-24-14-54.408-25.272-101.221-23.996C79.941,52.164,12.018,154.838,10.439,157.47c0,0-3.159,8.425-5.265,16.849
		c-2.106,8.424-4.212,21.061-3.159,24.221c1.053,3.159,4.212,11.584,4.212,23.167c0,11.584-1.58,47.915-1.053,52.653
		c0.526,4.739,5.265,16.849,7.371,26.327s10.004,34.225,10.531,35.804c0.527,1.58,0.527,9.478,11.584,9.478
		c11.057,0,126.895,18.429,205.348,46.335s150.589,65.817,154.801,69.503c4.212,3.686,12.11,7.898,15.796,4.212
		c3.686-3.686,0.526-8.424,4.212-10.531s16.323-11.584,16.849-16.849c0.526-5.265,3.159-37.384,3.159-43.176
		s5.265-22.114,7.371-25.274c2.106-3.159,11.057-16.849,4.212-27.38c-6.845-10.531-21.061-17.902-21.061-17.902
		s-35.661,30.048-42.123,28.433c-29.486-7.371-101.621-54.76-97.935-73.715s10.004-47.915,11.584-51.6s6.845-18.429,29.486-24.221
		c22.641-5.792,63.184-11.584,66.343-13.69c0,0,0-12.637-2.106-17.902c-0.482-1.205,0.665-3.702-5.596-14.213
		c15-11,52.885-24.523,61-25C480,131,496,127,495.903,117.454z M253.592,183.592c-5.85,0-10.592-4.742-10.592-10.592
		c0-5.85,4.742-10.592,10.592-10.592c5.85,0,10.592,4.742,10.592,10.592C264.183,178.85,259.441,183.592,253.592,183.592z"/>
</g>
<g id="Layer_2">
</g>
</svg>
