<?xml version="1.0" encoding="utf-8"?>
<!-- Generator: Adobe Illustrator 19.1.0, SVG Export Plug-In . SVG Version: 6.00 Build 0)  -->
<svg version="1.1" xmlns="http://www.w3.org/2000/svg" xmlns:xlink="http://www.w3.org/1999/xlink" x="0px" y="0px" width="500px"
	 height="500px" viewBox="0 0 500 500" style="enable-background:new 0 0 500 500;" xml:space="preserve">
<g id="Layer_1">
	<path d="M498.501,194.92c-0.475-9.032-1.011-9.101-6.067-16.18c-4.238-5.934-33.286-162.593-248.581-164.593
		C145.763,13.236,3,72,3,240.425c0,78.6,33.37,151.684,34.382,156.74c1.011,5.056-1.011,21.236,11.123,26.292
		c6.6,2.75,164.83,35.393,201.234,43.483c36.404,8.09,111.345,16.112,128.426-46.516c12.135-44.494-6.067-73.819-11.123-113.257
		c-3.986-31.094-1.011-51.573,31.348-67.752c32.359-16.18,67.11-23.585,76.853-26.292
		C493.445,208.066,499.512,214.133,498.501,194.92z M294.297,421.022c-7.312,0-13.24-5.928-13.24-13.24
		c0-7.312,5.928-13.24,13.24-13.24c7.312,0,13.24,5.928,13.24,13.24C307.537,415.094,301.609,421.022,294.297,421.022z
		 M358.18,214.778c-7.312,0-13.24-5.928-13.24-13.24c0-7.312,5.928-13.24,13.24-13.24c7.312,0,13.24,5.928,13.24,13.24
		C371.42,208.85,365.492,214.778,358.18,214.778z"/>
</g>
<g id="Layer_2">
</g>
</svg>
