<?xml version="1.0" encoding="utf-8"?>
<!-- Generator: Adobe Illustrator 19.1.0, SVG Export Plug-In . SVG Version: 6.00 Build 0)  -->
<svg version="1.1" xmlns="http://www.w3.org/2000/svg" xmlns:xlink="http://www.w3.org/1999/xlink" x="0px" y="0px" width="500px"
	 height="500px" viewBox="0 0 500 500" style="enable-background:new 0 0 500 500;" xml:space="preserve">
<g id="Layer_1">
	<path d="M488.693,226.117c-4.344-26.875-9.759-45.435-13.168-55.489c-5.061-24.98-36.462-159.977-225.044-168.358
		c-26.298-1.169-159.975,27-196.425,88c-36.45,61-63.962,103.433-42.525,204c4.05,19,8.1,27,0,32s-4.05,11,13.163,20
		s67.838,45,175.163,75s218.701,63,229.838,70c11.138,7,20.25,14,25.312,3c5.063-11,27.338-49,31.388-68
		c2.657-12.466,6.084-34.982,6.635-54.621C498.235,307.531,493.866,258.119,488.693,226.117z M261.637,270.612
		c-8.901,0-16.117-7.216-16.117-16.117c0-8.901,7.216-16.117,16.117-16.117c8.901,0,16.117,7.216,16.117,16.117
		C277.754,263.396,270.538,270.612,261.637,270.612z M484.249,324.242C481.84,319.758,478.71,317,474,317
		c-10.125,0-29.119,8.269-37.219,8.269c-8.1,0-55.688-20-65.813-27c-10.125-7-22.275-34-26.325-44s-11.138-34,0-39
		s107.325-26,119.475-26c2.029,0,3.77-0.199,5.263-0.562C476.183,213.812,485.148,259.579,484.249,324.242z"/>
</g>
<g id="Layer_2">
</g>
</svg>
