<?xml version="1.0" encoding="utf-8"?>
<!-- Generator: Adobe Illustrator 19.1.0, SVG Export Plug-In . SVG Version: 6.00 Build 0)  -->
<svg version="1.1" xmlns="http://www.w3.org/2000/svg" xmlns:xlink="http://www.w3.org/1999/xlink" x="0px" y="0px"
	 viewBox="0 0 500 500" style="enable-background:new 0 0 500 500;" xml:space="preserve">
<g id="Layer_1">
	<path d="M488,202c-19-10-31-23-32-29s-7-14-13-19S400,22,231,21C198,20.805,19,37,5,242c-1.09,15.963-1,32,1,42s11,31,29,37
		c2.772,0.924,6.663,1.396,11.369,1.495C49.918,327.235,78.403,364.765,99,376c22,12,73,42,84,55s31,49,63,36s34-24,30-56
		s-1-77,2-97c1.343-8.954,1.883-20.309,2.072-30.125c9.284-0.947,17.69-2.827,24.928-5.875c19-8,49-22,69-25s80-11,97-18
		S507,212,488,202z M166.246,240.94c5.85,0,10.592,4.742,10.592,10.592c0,5.85-4.742,10.592-10.592,10.592
		c-5.85,0-10.592-4.742-10.592-10.592C155.654,245.682,160.396,240.94,166.246,240.94z M212,327c-4,22-3,45-43,26
		c-33.805-16.057-49.039-29.258-57.172-39.601c14.088-3.221,27.341-6.91,37.172-10.399c25.418-9.019,42.773-20.048,64.735-21.525
		C214.265,293.953,214.505,313.221,212,327z M355.6,215.778c-5.85,0-10.592-4.742-10.592-10.592c0-5.85,4.742-10.592,10.592-10.592
		c5.85,0,10.592,4.742,10.592,10.592C366.191,211.036,361.449,215.778,355.6,215.778z"/>
</g>
<g id="Layer_2">
</g>
</svg>
