<?xml version="1.0" encoding="utf-8"?>
<!-- Generator: Adobe Illustrator 19.1.0, SVG Export Plug-In . SVG Version: 6.00 Build 0)  -->
<svg version="1.1" xmlns="http://www.w3.org/2000/svg" xmlns:xlink="http://www.w3.org/1999/xlink" x="0px" y="0px"
	 viewBox="0 0 500 500" style="enable-background:new 0 0 500 500;" xml:space="preserve">
<g id="Layer_1">
	<path d="M457.231,288.061c0.531-0.109,1.018-0.237,1.435-0.394c2.667-1,1.285-2.487-2-5.333
		c-4.801-4.161-39.731-32.907-81.759-13.334L344,208.5c0,0,7.5,1.5,11.5,2.5s10.14-0.945,15.5-3.5
		c1.225-0.584,2.009-1.27,2.509-1.965c3.022-1.285,6.97-3.868,8.403-8.885c1.777-6.22-0.312-12.854-5.082-16.134
		c-2.442-1.679-5.559-2.662-9.269-2.955C367.113,177.185,366.603,177,366,177c-2,0-8,0.5-9,2.5s-9.471,5.391-12.971,5.891
		S334.5,189.5,333.5,188s-5.5,0-5.5,0s-7.225-10.36-10.278-23.749c-2.197-9.632-11.275-10.335-11.275-10.335
		s-4.933-2.584-10.947-1.916c-4.473,0.497-4,4-4,4s-10.975,0.53-13.475,0.03s-6.373,1.372-5.873,5.872s6.347,3.598,6.347,3.598
		l12.679-0.779c0,4.5,5.321,4.279,9.321,4.279s3-5,3-5s0,0,3.5,0s5.024,9.67,6.024,13.17S320,189.5,320,189.5s-2.5-0.5-5.5,1
		s-1.5,7-1.5,7l5.5,7.5l-10,12c0,0-3,2-6,2s-8,4-7.5,6s4,3,4,3s-3.5,6.5-7,7s-5,2.5-7,5.5s-28,29-30,32c-2,3-6,3-6,3s-40.5,0-48,0
		s-9.5-3-9.5-3s-10.5-6.5-13-9.5s0-3,0-3s14.5-14.5,22.5-23.5c2.454-2.761,3.068-4.436,2.748-5.437
		c1.007-0.18,1.777-0.317,2.252-0.397c4-0.667,7.333-1.333,6.667-5c-0.667-3.667-3.333-14-3.667-15.333s-0.333-4.667-5.333-3.333
		c-5,1.333-53.001,3.361-69.667,2.667c-8-0.333-10.667,0.333-11.334,4.667c-0.131,0.856-0.25,1.592-0.356,2.249
		c-0.887-2.539-2.435-4.916-4.977-4.916c-4.667,0-77.333-3.333-80.333-3.333s-8,0-8.333,2.667c-0.333,2.667-1.667,7.667-1.667,9.333
		c0,1.028-0.376,2.942,0.505,4.337l-14.367-0.667l-0.277,5.993l17.472,0.812v3.858c0,8.727,4.04,14.069,11.085,14.657
		c8.431,0.702,48.506,2.01,52.249,2.01c5.45,0,13.948-2.772,14.603-10.102c7.829,0.448,13.953,1.444,18.795,2.658l-4.625,13.433
		c-2.282-0.398-4.643-0.735-7.107-0.988c-68-7-85,39.667-88.333,51.333c-3.333,11.667-8,20.667-10,22c-2,1.333-2.333,3.333,1,3
		c1.843-0.184,6.64-0.78,11.687-3.412c-0.765,4.304-1.187,8.725-1.187,13.245c0,41.631,33.869,75.5,75.5,75.5
		c29.072,0,54.342-16.527,66.953-40.67c16.847,0.558,32.436,1.068,43.913,1.435c5.708,5.243,11.473,9.102,19.778,9.102
		c4.548-0.001,9.858-1.155,16.336-3.87c1.54-0.645,2.917-1.389,4.162-2.21c6.051,0.507,12.075,0.61,16.192-0.452
		c10.333-2.667,20.717-10.151,24-20c1.278-3.835,1.963-10.798,1.464-15.493c0.959-0.074,1.721-0.133,2.203-0.174
		c4-0.333,6.333-1.333,7.333-2c1-0.667,1.667-5.333,2.333-7.333c0.667-2,2.667-5,0.667-7s-1-4-0.667-5.667
		c0.333-1.667,0-4.667-2.333-5c-2.333-0.333-5.333-5-6.667-7c-1.333-2-4.333-1.333-5.667-0.667
		c-1.333,0.667-3.333,6.667-3.333,6.667l-2.055,0.451c-0.707-2.613-1.331-4.859-1.723-6.259c-1.598-5.708-5.341-8.125-9.299-9.143
		c15.052-13.584,46.022-41.695,47.91-44.716c2.5-4,14-25,14-30s2.5-4.5,2.5-4.5l24.281,50.141
		c-37.909,22.947-40.29,57.167-40.614,62.026c-0.333,5-3.667,15.667-5,17.667c-1.333,2-1.333,4.667,2,4.667
		c1.769,0,5.036-0.391,8.015-2.287C336.95,391.062,367.878,418,405,418c41.631,0,75.5-33.869,75.5-75.5
		C480.5,321.124,471.556,301.81,457.231,288.061z M376.143,195.002c-0.479,1.68-1.56,2.895-2.75,3.766
		c-0.884-3.977-2.503-11.262-3.277-14.747c1.288,0.333,2.4,0.811,3.316,1.44C376.022,187.242,377.188,191.344,376.143,195.002z
		 M242,315.667c1.667-1,2-3,4.333-2.667c2.333,0.333,7.667-0.333,7.667-0.333s1.667,5,2.666,7c1,2-1.666,3-1.666,3l-14.667,2.667
		C239,322.667,240.334,316.667,242,315.667z M243.334,368.333c4,0,6-2.667,10-2.667c1,0,2.063-0.104,3.094-0.302
		c0.371,1.658,0.59,4.046-0.306,6.396c-0.128,0.336-0.28,0.663-0.449,0.983c-9.644-0.049-19.162-0.73-22.34-1.411
		c-0.442-0.095-2.348-0.374-5.431-0.802c1.244-0.458,2.281-0.865,3.097-0.865C233.667,369.667,239.334,368.333,243.334,368.333z
		 M204.77,367.325l-0.086,0.094c-0.204-0.027-0.41-0.054-0.615-0.081c0.091-0.002,0.195-0.004,0.265-0.004
		C204.473,367.333,204.619,367.33,204.77,367.325z M150.671,318.504l-30.858-1.325l7.475-21.713
		C137.321,300.454,145.536,308.557,150.671,318.504z M185.5,320l-5.182-0.223c-0.581-5.768-2.074-14.21-5.834-23.091L182,297
		L185.5,320z M93.667,245.334c-3.617,0-43.742-1.322-51.751-1.99c-1.381-0.115-5.583-0.465-5.583-8.677v-3.58l28.223,1.31
		c0.507,2.363,1.161,4.84,1.944,6.603c2,4.5,10,3,17.5,2.5c6.846-0.456,12.896-0.593,18.262-0.492
		C101.565,244.289,95.838,245.334,93.667,245.334z M142.802,250.403c1.632,0.963,2.736,1.597,3.698,1.597c4.5,0,34,29.5,34,29.5
		l-9.285,8.477c-6.076-10.924-16.044-21.649-32.36-28.112L142.802,250.403z M104,290c2.383,0,4.725,0.175,7.024,0.484l-8.748,25.411
		c-13.924,0.889-24.943,12.457-24.943,26.605c0,2.995,0.501,5.87,1.411,8.557c-10.695-1.378-17.357-2.235-17.357-2.235
		s-3.964-1.137-5.488,4.704c-0.645,2.473-0.977,5.031-1.057,7.39c-2.156-5.734-3.343-11.938-3.343-18.417
		C51.5,313.552,75.052,290,104,290z M104,395c-17.322,0-32.706-8.437-42.273-21.413c0.296,0.035,0.608,0.063,0.939,0.08
		c1.463,0.074,40.752,1.411,81.346,2.767C134.375,387.78,120.019,395,104,395z M224.939,379.081c5.207,0.16,8.459,0.252,9.061,0.252
		c1.537,0,4.995,0.507,9.303,1.09C235.185,382.922,229.844,382.08,224.939,379.081z M288.667,358c-0.333,2-7.667,13.333-20,14.333
		c-2.042,0.166-4.25,0.275-6.532,0.34c1.153-4.029,0.439-7.816-0.232-10.044c0.271-0.4,0.431-0.832,0.431-1.297
		c0-2.667,3.667-4,6-5.667c2.333-1.667,3.667-8,3.667-8s8.31-0.602,15.809-1.155C288.143,349.339,288.932,356.409,288.667,358z
		 M281.111,313.476c0.567,2.026,1.112,4.01,1.631,5.93L277,320.667c0,0,0.5-3.167-2.5-3.167s-7,1.5-7,1.5l-2-6l4-3
		c0,0,0.806-0.723,2.218-1.993C276.585,308.131,279.866,309.03,281.111,313.476z M377.869,297.57l6.635,13.702l-29.203,14.343
		C359.314,313.836,367.392,303.921,377.869,297.57z M387.222,293.105C392.777,291.099,398.762,290,405,290
		c5.956,0,11.677,1.011,17.019,2.847l-27.922,13.714L387.222,293.105z M405,395c-28.948,0-52.5-23.552-52.5-52.5
		c0-3.151,0.295-6.232,0.829-9.232l33.79-16.596l4.176,8.624C386.242,329.328,383,335.533,383,342.5c0,12.15,9.85,22,22,22
		s22-9.85,22-22s-9.85-22-22-22c-1.236,0-2.447,0.107-3.628,0.303l-4.546-8.899l32.443-15.935
		c16.761,8.778,28.23,26.335,28.23,46.531C457.5,371.448,433.948,395,405,395z"/>
</g>
<g id="Layer_2">
</g>
</svg>
