<?xml version="1.0" encoding="utf-8"?>
<!-- Generator: Adobe Illustrator 19.1.0, SVG Export Plug-In . SVG Version: 6.00 Build 0)  -->
<svg version="1.1" id="Layer_1" xmlns="http://www.w3.org/2000/svg" xmlns:xlink="http://www.w3.org/1999/xlink" x="0px" y="0px"
	 width="500px" height="500px" viewBox="0 0 500 500" style="enable-background:new 0 0 500 500;" xml:space="preserve">
<path d="M420.748,275.216c-9.831,0-19.202,1.957-27.761,5.483L373.535,247l-2.978,1.624l-2.719-4.52
	c1.936,0.527,3.219,0.657,3.696,0.896c1,0.5,3.5,2,4.5,2s6.25-7,6.25-17.75c0-11.003-5.25-16.75-5.25-16.75s-1-0.75-2.25-0.75
	s-0.75,1.5-2.75,1.75c-5.568,0.696-13.184,6.681-16.752,9.729l-4.498-7.479l-4.75-4.25c0,0-1.672-0.315-3.406,0.007L335.035,199
	c0,0-1.25-4.75-2.75-5.25s-5,0.25-5.75,0.25s-2.75-3.75-7.5-2.5s-6.75,1.5-6.75,1.5s-4-1.75-5.75-0.5s-2.75,4-2.75,4l-4.5,1.25
	c0,0-3,2.25-1.75,5.25s3.75,3.25,5.75,2.5s6.75-3.25,6.75-3.25s-0.5,1.5,2,0.75s4.5-1,4.5,0.5s0.25,2.75,1.25,4s5.022,2.758,9.25-1
	c2.25-2,2.25-2,2.25-2l7.75,13.25l-5.5,4.25c0,0-1.5-3-3.5-1s-3,2.25-3,3.25s1.5,1.75,1.25,2.5s-1.5,2.5-1.5,2.5s0.75,1.25,2.5-0.25
	s2.75,1.75,2.75,1.75s-1,1-1,2.25s-2,4-5.5,5.5s-13.25,4-13.25,4s0-11.5-7.25-17.25l-2.25-12c0,0-0.25-3.75-2.75-3.5
	s-8.5,1-10.75,3.25s0.25,3.5,0.25,3.5s2.25,2.5,0,2.5s-27.5,4.75-56.5,41.5c-4.303,5.453-3.25,11-1.5,11.5s-17.75,6.75-17.75,6.75
	s3.75-4,2.25-6.75s-3.25-6-10.75-3.25S173.535,282,167.535,282s-21.25-2.75-25-1.75s-6.5,4-6,5s0.5,3.5,0.5,3.5s-0.25,3.75-4,0
	s-19-23-52.75-20.75c-3.011,0.201-1.824,5.253-1.246,7.221C38.853,275.336,6.31,307.944,6.31,348.158
	c0,40.285,32.657,72.942,72.942,72.942c25.786,0,48.43-13.393,61.401-33.589c-0.548,1.645-0.868,3.751-0.868,4.74
	c0,1.75,1,5.25,2.5,5.25s87.75-0.75,87.75-0.75s-0.5,2.75,0.75,2.75s42.25,0.25,45.25,0s15-2.75,20.5-22c0,0,6.75,0,8.75,0
	s12-5.5,15.5-27.25s11.5-85,11.5-85s0-2.25,4.5-3.75s10-4.25,10-4.25s2.75,5.25,3.5,6.75s2.5,1.75,3.75,1.25
	c0.495-0.198,2.483-1.339,4.702-2.644l17.514,27.772c-17.293,13.338-28.445,34.251-28.445,57.779
	c0,40.285,32.657,72.942,72.942,72.942s72.942-32.657,72.942-72.942S461.033,275.216,420.748,275.216z M79.252,389.512
	c-22.84,0-41.355-18.515-41.355-41.355c0-22.84,18.515-41.355,41.355-41.355c14.81,0,27.795,7.791,35.099,19.492l-9.249,15.607
	c-2.814-11.67-13.317-20.342-25.851-20.342c-14.69,0-26.598,11.908-26.598,26.598c0,14.69,11.908,26.598,26.598,26.598
	c6.809,0,13.018-2.562,17.723-6.771l16.057,4.014C105.543,382.59,93.21,389.512,79.252,389.512z M152.535,386
	c-1.5,0-8.75-0.75-10.25-0.75c-0.09,0-0.178,0.021-0.264,0.057c3.602-6.073,6.345-12.71,8.068-19.751l1.446-0.305
	c0,0,4,15.25,4,17.5S154.035,386,152.535,386z M184.535,344.25c-0.75,0.5-0.75,3.5-0.75,5.5s-3.25,6.75-6,6.75s-6.5,0.5-5.75,4.75
	s0.5,9,1.5,10.25s2.75,5.5,1.5,6.5s1,7.25-2,7.25s-9.25,0-9.25,0l-6.25-44.75l38.5-10.25l1,14
	C197.035,344.25,185.285,343.75,184.535,344.25z M288.285,352c-1.25,0-1.75-6.5-1.5-7.75s1.5-9,2-10.75s3.75,1.75,5,1.75
	s9.75-13.75,9.75-13.75c2.75,0.25,2.5,6,2.5,10.5s-6,7.25-9.5,7.5S289.535,352,288.285,352z M310.285,359.25c-1,4.5-6,5-11.75,5
	c0,0,2.25-12.75,3.25-13.75s10-3.25,12-9C313.785,341.5,311.285,354.75,310.285,359.25z M324.785,264.25l-7.5,49.5
	c0.75-9-3.25-11.25-3.25-11.25s4.25-6.25,4.75-8s1.75-4.438-1.75-7.5c-14-12.25-32.5-12.5-35-12.75s-5.5,1.25-5.5,1.25l-4,8.25
	l-3.5-0.75c0,0,0.5-3.5,0.5-6s-1-2.75-0.25-2.75c37.53,0,38.75-22,38.75-22c0.75-2.25,5.25,1.5,6.5,1.5s4.5-3,4.5-3
	s2.25,1.75,4.5,5.75S324.785,264.25,324.785,264.25z M420.748,389.512c-22.84,0-41.355-18.515-41.355-41.355
	c0-13.086,6.085-24.745,15.572-32.322l7.67,12.852c-5.218,4.856-8.486,11.78-8.486,19.471c0,14.69,11.908,26.598,26.598,26.598
	s26.598-11.908,26.598-26.598c0-14.69-11.908-26.598-26.598-26.598c-2.566,0-5.045,0.371-7.393,1.049l-7.637-12.977
	c4.66-1.82,9.726-2.829,15.03-2.829c22.84,0,41.355,18.515,41.355,41.355C462.103,370.997,443.588,389.512,420.748,389.512z"/>
</svg>
