<?xml version="1.0" encoding="utf-8"?>
<!-- Generator: Adobe Illustrator 19.1.0, SVG Export Plug-In . SVG Version: 6.00 Build 0)  -->
<svg version="1.1" id="Layer_1" xmlns="http://www.w3.org/2000/svg" xmlns:xlink="http://www.w3.org/1999/xlink" x="0px" y="0px"
	 width="500px" height="500px" viewBox="0 0 500 500" style="enable-background:new 0 0 500 500;" xml:space="preserve">
<path d="M423.588,280.5c-12.244,0-23.743,3.228-33.715,8.856L385.588,283c0,0,0,0,1-1.667s-2-3.667-2-3.667l-27-39
	c0,0,2.667,0,4.333-2c1.667-2,4.193-8.342,3.667-18.333c-0.667-12.667-4.333-17-8-18.667c-3.667-1.667-8.667,1-11.333,2
	c-2.667,1-7.667,6.333-7.667,6.333s-2.667-2.333-5.667-5c-3-2.667-7-2-9.667-2c-2.667,0-3.667-2-10-9.333
	c-6.333-7.333-8-9-12.333-8.333c-2.306,0.355-5.667,3-6.667,1s-6.455-2.981-10,0c-3.423,2.878-2.333,8.667-2.333,8.667
	s-6.85,5.456-9,7.333c-1.28,1.118-1.678,5.478-0.333,6.667c2.483,2.196,6,0,6,0l6.333-7c0,0,5,2,9-0.667s4.333-7.333,4.333-7.333
	s-1,0,2.667-1.333c3.667-1.333,12,14,16,15.667s7.667,10.667,7.667,13s-6,6.333-8,6.333s-2.333-2.333-8-5.667
	c-5.667-3.333-16.667-3.333-26.333-0.667c-9.667,2.667-62.334,36.333-64.667,38.333s-3,5-2.333,2.667c0.667-2.333,0-2.333-2-3.667
	c-2-1.333-6.667,0.333-10.333,3.333c-3.667,3-20,12.667-34,13c-14,0.333-25.333-17-29.667-21c-4.333-4-9.667-0.667-13.333,1
	c-3.667,1.667-29.667,1-39.333,2s-13.333,6.667-13.333,8.333s4.652,1.516-1.667,3.667c-48,16.333-57.667,37-61,43.667
	c-3.333,6.667-3,12.667-3,14.333c0,1.667,7.667,0,14.667-0.333c3.569-0.17,8.002-2.853,11.493-5.442
	c-5.234,7.05-9.02,15.235-10.926,24.108c-3.684,0-5.762,0-5.857,0c-1.042,0-1.807,0.127-2.606,1.065
	c-2.997,3.518-5.343,12.51-5.473,13.943s-0.782,2.991,2.215,2.991c0.206,0,4.012,0,10.525,0
	c2.478,32.302,29.535,57.834,62.462,57.834c26.78,0,49.663-16.895,58.61-40.581h3.227c-3.192,12.393-1.004,12.08-1.004,12.08
	s127,1.333,143.334-2.333c16.333-3.667,23.333-26.333,25-34.667c1.667-8.333,24-112.333,24-117c0-4.667,2-3,2-3s33.667,46,33.667,49
	s2.667,5,2.667,5l1.667-0.333l4.78,7.17c-16.561,12.582-27.28,32.474-27.28,54.83c0,37.955,30.878,68.834,68.833,68.834
	s68.833-30.879,68.833-68.834S461.543,280.5,423.588,280.5z M84.255,315.007c18.343,0,33.906,11.86,39.468,28.327
	c-5.713,0-11.383,0-16.962,0c-4.558-7.678-12.929-12.827-22.506-12.827s-17.948,5.149-22.506,12.827c-6.133,0-11.832,0-16.961,0
	C50.349,326.867,65.912,315.007,84.255,315.007z M84.255,398.327c-21.43,0-39.073-16.183-41.393-36.994c4.815,0,10.076,0,15.656,0
	c2.202,12.22,12.883,21.494,25.737,21.494c12.854,0,23.535-9.274,25.737-21.494c5.174,0,10.402,0,15.656,0
	C123.327,382.144,105.685,398.327,84.255,398.327z M319.48,276.709c0,0-14.583,67.22-15.723,73.373
	c-1.14,6.152-2.734,8.431-5.925,8.203c-3.19-0.228-3.874-9.57-3.874-11.849c0-2.279-5.241-0.684-5.241-0.684
	s9.798-14.128,14.583-20.964c4.785-6.836,5.697-18.457,5.697-18.457s-0.228-7.292,2.962-12.988c3.19-5.697,1.139-9.342,1.139-9.342
	l-16.862-7.519c0,0,3.19-0.912,5.241,0.228c2.051,1.139,17.09-2.962,17.09-2.962C320.847,273.519,319.48,276.709,319.48,276.709z
	 M423.588,399.167c-27.478,0-49.833-22.355-49.833-49.834c0-15.771,7.373-29.845,18.844-38.983l17.824,26.736
	c-2.991,3.214-4.835,7.51-4.835,12.247c0,9.941,8.059,18,18,18s18-8.059,18-18s-8.059-18-18-18c-1.716,0-3.37,0.255-4.941,0.704
	l-18.11-26.863c6.899-3.616,14.738-5.674,23.052-5.674c27.478,0,49.833,22.355,49.833,49.833
	C473.421,376.812,451.066,399.167,423.588,399.167z"/>
</svg>
