<?xml version="1.0" encoding="utf-8"?>
<!-- Generator: Adobe Illustrator 19.1.0, SVG Export Plug-In . SVG Version: 6.00 Build 0)  -->
<svg version="1.1" xmlns="http://www.w3.org/2000/svg" xmlns:xlink="http://www.w3.org/1999/xlink" x="0px" y="0px"
	 viewBox="0 0 500 500" style="enable-background:new 0 0 500 500;" xml:space="preserve">
<g id="Layer_1">
	<g>
		<circle cx="101.741" cy="350.48" r="20.938"/>
		<circle cx="417.072" cy="348.495" r="21.553"/>
		<path d="M486.647,351.361v-5.731h-2.356c-0.169-4.023-0.699-7.952-1.548-11.764l2.275-0.61l-1.483-5.536l-2.263,0.606
			c-1.199-3.809-2.74-7.466-4.566-10.952l2.052-1.185l-2.866-4.964l-2.062,1.191c-2.134-3.346-4.546-6.497-7.22-9.407l1.686-1.685
			l-4.053-4.053l-1.686,1.685c-2.91-2.674-6.061-5.086-9.407-7.22l1.191-2.063l-4.963-2.866l-1.185,2.053
			c-3.485-1.826-7.142-3.367-10.951-4.566l0.537-2.003c3.417-1.995,5.526-4.09,3.892-4.816
			c-23.347-10.377-55.233-3.249-55.233-3.249l-9.747-17.689c0,0,2.166-1.805,5.054-5.054c2.888-3.249-0.722-6.859-1.083-9.747
			c-0.361-2.888-3.971-6.498-3.971-10.83c0-4.332,10.83-3.61,14.44-4.693c3.61-1.083,6.137-0.722,10.108-0.722
			c3.971,0,6.859,2.166,16.606,9.025c9.747,6.859,26.714,6.137,29.602,5.776c2.888-0.361,1.794-5.656-2.527-9.386
			c-11.913-10.283-25.436-18.124-38.076-23.982c9.438-12.85-0.413-42.711-9.895-60.581c-9.452-17.815-46.865-55.323-48.453-56.911
			l-1.489-1.489l-1.72,1.214c-0.654,0.462-6.458,4.589-8.761,7.275c-1.204,1.406-3.427,5.254,1.937,10.614
			c1.763,1.763,23.555,26.356,32.232,38.327c8.45,11.655,6.432,17.892,6.067,18.792l-21.48,24.837
			c-0.158-0.321-0.252-0.671-0.252-1.054c0-2.888-5.776-7.22-8.303-8.303s-6.554-0.808-10.469,1.805
			c-2.134,1.425-7.467-0.02-6.384-1.825s-0.836-9.365-1.197-12.615c-0.361-3.249-6.137-6.498-14.801-5.054
			c-8.664,1.444-23.104,6.859-23.826,8.303c-0.722,1.444,0.722,8.664-7.22,7.22c-7.942-1.444-15.884,1.444-28.519,9.025
			c-12.635,7.581-29.602,31.046-29.602,31.046s-2.527,1.805-5.054,1.083c-2.527-0.722-3.971,0-3.971,0s-4.332,4.332-11.913,6.137
			c-7.581,1.805-25.631,0-42.598-5.776c-16.967-5.776-35.017-11.552-39.71-11.552c-4.693,0-43.681-6.498-50.179-7.581
			c-6.498-1.083-6.498,0.361-7.942,2.888s-3.971,7.22-3.971,7.22s-21.299-4.332-32.49-6.137s-16.245,0.361-18.772,0.361
			s-3.971,3.971-3.971,6.498c0,2.527,2.888,3.61,5.054,3.61s10.469,1.083,19.133,2.888c8.664,1.805,9.386,4.332,9.386,7.581
			c0,3.249,5.415,5.054,5.415,5.054l61.731,14.801l49.457,46.93l-3.971,10.469c0,0-5.256-3.248-12.833-7.934l0.434-0.751
			l-4.822-2.784l-0.349,0.605c-19.279-11.926-47.8-29.587-49.936-31.011c-3.249-2.166-6.498-1.805-7.942-1.805
			c-1.444,0-4.693,4.693-4.693,4.693s-6.137,1.444-7.942,1.444s-4.693,1.083-4.693,1.083s0,9.386,1.805,9.386s2.527,2.527,0,6.137
			c-2.527,3.61-0.722,6.137-0.722,6.137s3.125,2.074,8.136,5.392l-1.252,0.723l1.157,2.004c-3.25,2.073-6.312,4.416-9.139,7.014
			l-1.637-1.637l-3.937,3.937l1.637,1.637c-2.598,2.827-4.941,5.888-7.014,9.139l-2.004-1.157l-2.784,4.822l1.994,1.151
			c-1.774,3.386-3.271,6.939-4.436,10.639l-2.198-0.589l-1.441,5.378l2.21,0.592c-0.824,3.703-1.339,7.52-1.504,11.428h-2.289v5.568
			h2.289c0.165,3.908,0.679,7.725,1.504,11.428l-2.21,0.592l1.441,5.378l2.198-0.589c1.165,3.701,2.662,7.253,4.436,10.639
			l-1.994,1.151l2.784,4.822l2.004-1.157c2.073,3.25,4.416,6.312,7.014,9.139l-1.637,1.637l3.937,3.937l1.637-1.637
			c2.827,2.598,5.888,4.941,9.139,7.014l-1.156,2.003l4.822,2.784l1.151-1.994c3.386,1.774,6.939,3.271,10.639,4.436l-0.589,2.198
			l5.378,1.441l0.592-2.209c3.703,0.825,7.52,1.339,11.428,1.504v2.288h5.568v-2.288c3.908-0.165,7.725-0.679,11.428-1.504
			l0.592,2.209l5.378-1.441l-0.589-2.197c3.701-1.165,7.253-2.662,10.639-4.436l1.151,1.993l4.822-2.784l-1.156-2.003
			c3.25-2.073,6.312-4.416,9.139-7.014l1.637,1.637l3.937-3.937l-1.637-1.637c2.598-2.827,4.94-5.888,7.014-9.139l2.003,1.157
			l2.784-4.822l-1.994-1.151c1.774-3.386,3.271-6.939,4.436-10.639l2.198,0.589l1.441-5.378l-2.21-0.592
			c0.765-3.436,1.269-6.968,1.468-10.582c5.927,3.95,10.938,7.303,12.219,8.199c3.61,2.527,14.801,2.166,17.689,2.166
			c7.942,0,18.05,0.361,20.216-1.805c2.166-2.166,4.693-1.444,9.025-1.444c4.332,0,7.942-1.444,10.469-4.332
			c2.527-2.888,2.166,0,2.527,2.527c0.361,2.527,7.581,3.61,7.581,3.61s63.175,0.361,67.146,0.361s7.22-6.859,20.216-20.216
			c1.643-1.689,2.984-3.284,4.072-4.792c1.133,1.34,3.683,0.286,5.314-1.345c0.664-0.664,2.963-2.77,6.152-5.671l-0.505,1.886
			l2.275,0.609c-0.849,3.812-1.378,7.741-1.548,11.764h-2.356v5.731h2.356c0.169,4.023,0.699,7.952,1.548,11.764l-2.275,0.609
			l1.483,5.536l2.262-0.606c1.199,3.809,2.74,7.466,4.566,10.952l-2.052,1.185l2.866,4.964l2.062-1.191
			c2.135,3.346,4.546,6.497,7.22,9.407l-1.685,1.685l4.052,4.053l1.685-1.685c2.91,2.674,6.061,5.086,9.407,7.22l-1.191,2.062
			l4.964,2.866l1.185-2.052c3.485,1.826,7.142,3.367,10.952,4.566l-0.606,2.262l5.536,1.483l0.609-2.275
			c3.812,0.849,7.741,1.378,11.764,1.548v2.356h5.731v-2.356c4.023-0.17,7.952-0.699,11.764-1.548l0.609,2.275l5.536-1.483
			l-0.606-2.262c3.809-1.199,7.467-2.74,10.952-4.566l1.185,2.052l4.963-2.866l-1.191-2.062c3.346-2.134,6.497-4.546,9.407-7.22
			l1.685,1.685l4.053-4.053l-1.685-1.685c2.674-2.91,5.085-6.061,7.22-9.407l2.062,1.191l2.866-4.964l-2.052-1.185
			c1.826-3.485,3.367-7.142,4.566-10.952l2.263,0.606l1.483-5.536l-2.275-0.609c0.849-3.812,1.378-7.741,1.548-11.764H486.647z
			 M144.94,350.48c0,23.821-19.379,43.2-43.199,43.2c-23.821,0-43.2-19.379-43.2-43.2c0-20.119,13.823-37.067,32.471-41.85
			c21.18,13.974,45.264,29.778,47.06,30.576c3.249,1.444,4.332-1.444,4.332-1.444s0.278,0.184,0.769,0.51
			C144.316,342.147,144.94,346.241,144.94,350.48z M417.072,304.025c24.521,0,44.47,19.949,44.47,44.47s-19.949,44.47-44.47,44.47
			s-44.47-19.949-44.47-44.47S392.552,304.025,417.072,304.025z M380.748,167.202l0.253-0.349c0.53-0.884,4.861-9.079-6.257-24.413
			c-9.032-12.458-30.897-37.079-32.746-38.928c-1.771-1.769-2.334-3.056-1.675-3.825c1.202-1.403,4.08-3.666,6.14-5.201
			c7.188,7.298,38.003,38.999,46.07,54.202c5.306,10,9.721,21.9,11.81,31.833c1.735,8.251,2.701,19.031-2.228,24.283
			c-21.696-9.404-39.706-12.884-40.585-12.884c-0.411,0-1.118-0.091-1.914-0.283L380.748,167.202z M308.438,186.062
			c-0.906-0.389-1.239-0.547-0.906-0.389c3.037,0.32,10.3,0.831,15.01,0.831c0,0,1.444,0.722,4.693,0.722s0,2.527,0.722,4.693
			s1.444,7.22,0,8.303c-1.444,1.083-6.137,0.361-6.137,0.361S312.538,188.009,308.438,186.062z M331.566,329.46
			c-1.444,7.942-9.386,14.44-10.469,15.884s-5.415-7.22,5.054-26.714C326.151,318.63,333.01,321.518,331.566,329.46z
			 M341.766,323.885c-0.686-2.278-1.868-4.005-2.619-5.255c-2.166-3.61-11.191-11.552-11.191-11.552s5.054-10.83,6.498-13.357
			s6.498-1.444,9.747-2.888s11.913-10.469,14.44-11.552c2.527-1.083,1.805-3.971,1.805-3.971l4.332-3.249
			c0,0,5.415,9.025,5.776,10.83c0.361,1.805-2.166,3.971-6.137,6.859C354.647,296.855,346.673,312.558,341.766,323.885z"/>
	</g>
</g>
<g id="Layer_2">
</g>
</svg>
