<?xml version="1.0" encoding="utf-8"?>
<!-- Generator: Adobe Illustrator 19.1.0, SVG Export Plug-In . SVG Version: 6.00 Build 0)  -->
<svg version="1.1" xmlns="http://www.w3.org/2000/svg" xmlns:xlink="http://www.w3.org/1999/xlink" x="0px" y="0px"
	 viewBox="0 0 500 500" style="enable-background:new 0 0 500 500;" xml:space="preserve">
<g id="Layer_1">
	<path d="M489.475,343.167v-6h-3.409c-0.182-4.573-0.783-9.038-1.757-13.365l3.291-0.882l-1.553-5.796l-3.272,0.877
		c-1.353-4.333-3.106-8.488-5.19-12.443l2.962-1.71l-3-5.196l-2.974,1.717c-2.417-3.808-5.16-7.386-8.206-10.685l2.432-2.432
		l-4.243-4.243l-2.432,2.432c-3.3-3.046-6.878-5.79-10.685-8.206l1.717-2.974l-5.196-3l-1.71,2.962
		c-3.955-2.084-8.11-3.837-12.442-5.19l0.876-3.272l-5.795-1.553l-0.882,3.291c-4.327-0.974-8.792-1.575-13.365-1.757v-3.409h-6
		v3.409c-4.573,0.182-9.038,0.783-13.365,1.757l-0.882-3.291l-5.795,1.553l0.877,3.272c-2.415,0.754-4.774,1.633-7.077,2.62
		c-1.227-2.511-2.344-4.116-3.148-5.404c-1.25-2-7-7-7-7l-24.5-40.75c0,0,1.75-0.5,2.75-1.75s26.75-5.5,38-5.5s21.5,2.5,33.25,7.75
		s21.75,6.5,25.75,6.5s5.5-1.75,0.25-4.75s-27.75-15-40.5-19s-44.5-3.5-49.5-3.5s-2.25-1.5-2.25-1.5s1-0.25,1.25-6.25
		s-9-31.25-11.25-35.75s-20.75-18.25-22.25-19.5s-4,1.75-4,1.75s4.75,12.25,4.5,15.5S318,153.25,318,150s-2.25-5.5-3.5-5.5
		s-3-3.5-3.5-5.5s-5.5-1.75-7.25-3.25s-8.25-2-11-1.5S287.5,140,287.5,140s-4,0-6-0.25S276,141,277,145s8.75,2.75,9.5,3.75
		s4,2.75,6.25,3.25s2.75,4.75,2.75,6s0.5,2.75,3,3.75s3.5,0.25,3.5,3s3,2,4,2.75s2.75,4.75,2.75,4.75s-4.5,3.25-4.5,4.5
		s3.5,4.5,3.5,4.5s-5.25,3-8,4.5s-5.25,1-6.5-0.75s-2.75-2.25-2.75-2.25s-0.5-2.25-0.5-3.5s-3.75-0.75-10.25-0.75s-7.5,3.5-7.5,3.5
		s0.5,3.25-1.25,4s-3.25,4.5-3.25,3s-1.5-1-3.5-1.25s-4.75,2-8.25,3.75s-19,8.25-40.5,12s-112.5-5.25-115.75-5S99,202,98.25,202
		S96,200.75,96,200.75s-80.25-0.5-84.75-0.25s5.5,5,9,5s27.25,2.25,35,3.25s17,11.25,17,11.25s-1.25,1.25-4,1.75S59.5,226,59.5,226
		s-0.5,9,2.5,10.25s15.5,8,15.5,8s21,3.75,26,8.75s20.25,17.75,22.25,18s32,4.75,34.25,7.5s14.75,0.75,18.25,0.25s2.75,4,1.5,7
		c-1.101,2.643-1.62,10.905-1.557,15.23c-7.398,0.327-16.645,0.743-26.501,1.199l-2.036-3.527l-2.974,1.717
		c-2.417-3.808-5.16-7.386-8.206-10.685l2.432-2.432l-4.243-4.243l-2.432,2.432c-3.299-3.046-6.878-5.79-10.685-8.206l1.717-2.974
		l-5.196-3l-1.71,2.962c-3.955-2.084-8.11-3.837-12.442-5.19l0.877-3.272l-5.795-1.553l-0.882,3.291
		c-4.327-0.974-8.792-1.575-13.365-1.757v-3.409h-6v3.409c-4.573,0.182-9.038,0.783-13.365,1.757l-0.882-3.291l-5.795,1.553
		l0.877,3.272c-4.333,1.353-8.488,3.106-12.442,5.19l-1.71-2.962l-5.196,3l1.717,2.974c-3.807,2.417-7.386,5.16-10.685,8.206
		l-2.432-2.432l-4.243,4.243l2.432,2.432c-3.046,3.299-5.79,6.878-8.206,10.685l-2.974-1.717l-3,5.196l2.963,1.71
		c-2.084,3.955-3.837,8.11-5.19,12.442l-3.272-0.877l-1.553,5.796l3.291,0.882c-0.974,4.327-1.575,8.792-1.757,13.365H5.917v6h3.409
		c0.182,4.573,0.783,9.038,1.757,13.365l-3.291,0.882l1.553,5.796l3.272-0.877c1.353,4.332,3.106,8.488,5.19,12.442l-2.963,1.71
		l3,5.196l2.974-1.717c2.417,3.807,5.16,7.386,8.206,10.685l-2.432,2.432l4.243,4.243l2.432-2.432
		c3.299,3.046,6.878,5.79,10.685,8.206l-1.717,2.974l5.196,3l1.71-2.962c3.955,2.084,8.11,3.837,12.443,5.19l-0.877,3.272
		l5.795,1.553l0.882-3.291c4.327,0.974,8.792,1.575,13.365,1.757V418h6v-3.409c4.573-0.182,9.038-0.783,13.365-1.757l0.882,3.291
		l5.795-1.553l-0.877-3.272c4.333-1.353,8.488-3.106,12.443-5.19l1.71,2.962l5.196-3l-1.717-2.974
		c3.807-2.417,7.386-5.16,10.685-8.206l2.432,2.432l4.243-4.243l-2.432-2.432c3.046-3.299,5.79-6.878,8.206-10.685l2.974,1.717
		l3-5.196l-2.963-1.71c2.084-3.955,3.837-8.11,5.19-12.442l3.272,0.877l1.553-5.796l-3.291-0.882
		c0.559-2.483,0.994-5.01,1.298-7.579c11.358-4.676,22.6-9.335,32.039-13.259c5.643,3.439,13.497,6.556,13.497,6.556
		c14,3,36.75,3,50.5,3.5s16-2.25,23-12.5s16.5-43,18.25-49s3.5-6.25,6.5-6.25s6.25-2,8.25-6.5s19.25-35.25,23.5-36.25
		s5.25-4.25,5.25-4.25s20.25,29.75,21.75,33.75s3.25,9.75,4.5,11.75c0.466,0.746,1.559,2.188,2.745,3.702
		c-2.209,1.631-4.323,3.38-6.337,5.239l-2.432-2.432l-4.243,4.243l2.432,2.432c-3.046,3.299-5.79,6.878-8.206,10.685l-2.975-1.717
		l-3,5.196l2.963,1.711c-2.084,3.955-3.836,8.11-5.189,12.442l-3.272-0.877l-1.553,5.796l3.291,0.882
		c-0.974,4.327-1.575,8.792-1.757,13.365h-3.41v6h3.41c0.182,4.573,0.783,9.038,1.757,13.365l-3.291,0.882l1.553,5.796l3.272-0.877
		c1.353,4.332,3.105,8.488,5.189,12.442l-2.963,1.711l3,5.196l2.974-1.717c2.417,3.807,5.16,7.386,8.206,10.685l-2.432,2.432
		l4.243,4.243l2.432-2.432c3.3,3.046,6.878,5.79,10.685,8.206l-1.717,2.974l5.196,3l1.71-2.962c3.955,2.084,8.11,3.837,12.442,5.19
		l-0.877,3.272l5.795,1.553l0.882-3.291c4.327,0.974,8.792,1.575,13.365,1.757V418h6v-3.409c4.573-0.182,9.038-0.783,13.365-1.757
		l0.882,3.291l5.795-1.553l-0.876-3.272c4.332-1.353,8.488-3.106,12.442-5.19l1.71,2.962l5.196-3l-1.717-2.974
		c3.808-2.417,7.386-5.16,10.686-8.206l2.432,2.432l4.243-4.243l-2.432-2.432c3.046-3.299,5.79-6.878,8.206-10.685l2.974,1.717
		l3-5.196l-2.962-1.71c2.084-3.955,3.837-8.11,5.19-12.443l3.271,0.877l1.553-5.796l-3.291-0.882
		c0.974-4.327,1.575-8.792,1.757-13.365H489.475z M179.4,311.501c-7.479,1.336-16.502,2.979-25.151,4.631
		c-0.926-2.709-1.991-5.353-3.21-7.912c10.335-0.48,20.046-0.917,27.712-1.257C178.926,308.305,179.145,309.85,179.4,311.501z
		 M132.443,320.574c-6.991,1.575-17.813,4.224-28.356,6.853c-4.245-6.762-11.763-11.261-20.337-11.261c-13.255,0-24,10.745-24,24
		c0,13.255,10.745,24,24,24c11.626,0,21.319-8.267,23.527-19.243c10.18-2.13,20.926-4.482,28.93-6.466
		c0.019,0.569,0.043,1.136,0.043,1.709c0,3.997-0.464,7.885-1.314,11.629c-17.777,7.242-33.011,13.313-38.124,14.989
		c-10.893,3.567-22.412,2.85-30.822-1.921c-6.442-3.657-10.722-9.457-12.372-16.774c-2.033-9.011-0.616-17.194,4.1-23.665
		c5.161-7.081,14.02-11.52,24.943-12.497c6.965-0.624,24.44-1.576,43.594-2.522C128.748,312.84,130.832,316.585,132.443,320.574z
		 M158.174,337.167c-0.063-1.597-0.165-3.185-0.328-4.755c8.446-2.522,16.936-5.188,24.242-7.534
		c0.743,2.745,1.57,5.066,2.458,6.479c-7.019,2.915-14.885,6.174-22.963,9.507v-3.696H158.174z M83.75,392.667
		c-28.948,0-52.5-23.552-52.5-52.5c0-28.949,23.552-52.501,52.5-52.501c14.759,0,28.106,6.131,37.653,15.969
		c-17.353,0.872-32.723,1.728-39.277,2.315c-12.672,1.135-23.062,6.44-29.257,14.939c-5.682,7.797-7.495,17.926-5.104,28.52
		c2.033,9.011,7.312,16.159,15.265,20.672c5.766,3.271,12.72,4.937,19.996,4.937c5.159,0,10.481-0.837,15.654-2.532
		c4.827-1.581,18.088-6.833,33.984-13.284C125.024,378.764,105.986,392.667,83.75,392.667z M379.997,298.308
		c5.729,8.929,13.289,20.779,18.787,29.643c-3.025,3.183-4.894,7.477-4.894,12.215c0,9.803,7.947,17.75,17.75,17.75
		c9.803,0,17.75-7.947,17.75-17.75c0-9.087-6.832-16.567-15.638-17.613c-5.947-9.182-14.164-21.895-20.377-31.605
		c5.692-2.119,11.844-3.283,18.265-3.283c28.948,0,52.5,23.552,52.5,52.501c0,28.948-23.552,52.5-52.5,52.5s-52.5-23.552-52.5-52.5
		C359.142,323.094,367.338,307.903,379.997,298.308z"/>
</g>
<g id="Layer_2">
</g>
</svg>
