<?xml version="1.0" encoding="utf-8"?>
<!-- Generator: Adobe Illustrator 19.1.0, SVG Export Plug-In . SVG Version: 6.00 Build 0)  -->
<svg version="1.1" id="Layer_1" xmlns="http://www.w3.org/2000/svg" xmlns:xlink="http://www.w3.org/1999/xlink" x="0px" y="0px"
	 width="500px" height="500px" viewBox="0 0 500 500" style="enable-background:new 0 0 500 500;" xml:space="preserve">
<path d="M475.858,319.179c8.597,1.534,12.58-3.558,12.58-4.429c0-1.017-4.069-8.139-8.139-7.461s-12.887-5.087-16.278-6.782
	c-3.21-1.605-30.738-14.436-61.573,2.326c-0.822-1.35-1.25-2.179-1.165-2.326c1.187-2.035-0.678-4.748-0.678-4.748l-19.754-29.25
	l-0.351,0.103c-0.231-0.669-0.33-1.396,0.436-1.205c1.357,0.339,4.917,3.222,8.648,2.713c3.73-0.509,10.344-6.613,10.344-19.161
	c0-12.548-2.713-18.821-5.935-18.821c-2.156,0-7.35,0.77-12.38,3.407c-4.085-9.497-11.058-24.734-16.803-37.054
	c-17.004-36.465-16.999-36.469-19.515-35.634c-2.849,0.95-4.906,2.79-6.114,5.47c-3.892,8.63,2.484,23.635,5.549,30.847l0.223,0.524
	c5.951,14.035,11.379,27.842,15.575,38.851c-0.586,0.248-1.189,0.586-1.804,1.051c-2.734,2.068-4.067,3.068-4.067,3.068
	s-22.333-38.5-24.333-42.167c-3.498-6.413-9.545-6.941-13.312-5.326c-2.374,1.017-2.374,1.017-2.374,1.017s-2.374-2.543-3.561-1.865
	c-1.187,0.678-5.426,3.052-5.426,3.052s-1.017,1.865-0.509,2.374c0.509,0.509-7.527,3.954-7.527,3.954s-2.532-0.641-3.617,0
	c-1.085,0.641-1.628,4.062-0.362,6.2c1.266,2.138,4.341,2.566,5.245,0.855c0.904-1.71,8.126-4.905,8.126-4.905
	s1.865,2.543,2.883,2.543s3.391-1.696,4.748-1.865c1.356-0.169,4.07-3.222,4.07-3.222s-0.323-1.908,1.526-2.204
	c2.757-0.441,3.59,0.059,5.757,3.392c8.518,13.105,24.333,42,24.333,42s-3.638,1.746-2.791,3.781
	c0.848,2.035,1.187,6.443,1.187,6.443s-3.222,4.239-4.409,4.409c-1.187,0.17-17.804-28.656-18.312-29.165
	c-0.509-0.509-2.035-2.035-3.9-0.848c-1.865,1.187-12.208,6.952-12.208,6.952s-2.883,1.526-2.204,2.713s2.035,2.035,1.526,2.883
	c-0.509,0.848-1.187,1.526-2.035,0.678c-0.848-0.848-2.204-2.374-3.73-1.696c-1.526,0.678-12.039,6.782-12.039,6.782
	s-2.035,0.678-1.526,2.035c0.509,1.356,2.543,2.883,0,4.239c-2.543,1.356-25.265,2.374-41.034,22.382
	c-1.806,2.291-1.356-0.17-2.713-0.509s-9.326-1.187-17.635,2.035c-8.309,3.222-12.548,6.274-15.769,7.122
	c-3.222,0.848-3.321,2.629-7.8-1.357c-12.659-11.265-22.926-13.648-24.621-13.648c-1.696,0,4.578-3.561,2.035-10.004
	c-2.543-6.443-8.987-7.63-16.787-7.291c-7.8,0.339-22.594,1.243-33.743,0.339c-6.274-0.509-4.408-0.848-6.443-0.509
	c-2.035,0.339-2.713-6.274-2.713-6.783c0-0.509,1.526,0.17,3.391-2.713c1.865-2.883,4.069-18.041,3.052-24.315
	s-5.203-15.136-12.038-13.667c-2.989,0.642-10.682,3.222-11.869,4.578c-1.187,1.356-2.374,4.748-1.865,8.309
	c0.175,1.222,0.692,3.348,1.36,5.75H57.41c-1.242,0-2.25,1.007-2.25,2.25s1.008,2.25,2.25,2.25h24.247
	c-7.855,1.364-15.929,3.684-22.076,7.617c-17.295,11.066-20.856,23.792-20.856,27.665c0,3.612,4.431,17.803,26.478,19.703
	c-24.787,12.888-36.196,32.741-44.282,65.75c-3.37,13.76-15.091,23.739-15.091,23.739s-1.356,1.696,0.848,1.696
	c0.584,0,12.59,0.095,29.966,0.235c5.943,30.036,32.425,52.687,64.206,52.687c31.414,0,57.647-22.132,63.989-51.651
	c6.783,0.054,10.93,0.085,11.267,0.085c2.205,0,12.548-0.169,12.548-0.169s3.9-1.696,3.9-0.17s-1.357,3.222-0.678,5.256
	c0.678,2.035,2.882,3.73,7.969,3.73s104.111,1.865,110.385,1.865s22.552-2.883,27.469-25.265
	c4.917-22.382,14.074-67.147,14.074-67.147s2.883-1.865,2.883-3.052c0-1.187-0.848-5.935,0.848-6.613
	c0.799-0.32,6.49-3.951,12.286-7.702c6.477,9.047,19.84,27.703,20.609,28.728c1.017,1.357,3.73,1.696,3.73,1.696l1.372,1.928
	c-28.923,21.569-26.088,55.161-25.111,66.236c1.017,11.53-3.73,9.495-4.07,11.53c-0.339,2.035,2.374,5.765,12.208,6.443
	c5.367,0.37,8.401-2.087,10.059-4.397c9.62,18.155,28.698,30.528,50.675,30.528c31.658,0,57.322-25.664,57.322-57.322
	C494.583,344.766,487.362,329.663,475.858,319.179z M100.849,399.518c-16.396,0-30.364-10.396-35.673-24.956
	c4.789,0.039,9.701,0.079,14.668,0.119c4.378,6.992,12.146,11.646,21.005,11.646c8.715,0,16.372-4.504,20.787-11.307
	c5.083,0.041,10,0.081,14.661,0.119C130.833,389.393,117.027,399.518,100.849,399.518z M344.65,295.928
	c0,0-10.852,50.021-11.7,54.599c-0.848,4.578-2.035,6.274-4.409,6.104c-2.374-0.169-2.883-7.122-2.883-8.817
	c0-1.696-3.9-0.509-3.9-0.509s7.291-10.513,10.852-15.6s4.239-13.735,4.239-13.735s-0.17-5.426,2.204-9.665
	c2.374-4.239,0.848-6.952,0.848-6.952l-12.548-5.596c0,0,2.374-0.678,3.9,0.17c1.526,0.848,12.717-2.204,12.717-2.204
	C345.667,293.554,344.65,295.928,344.65,295.928z M348.871,195.413c-2.371-5.581-8.67-20.403-5.589-27.237
	c0.434-0.961,1.048-1.715,1.857-2.276c4.661,8.846,24.915,52.112,32.633,70.117c-1.103,0.862-2.157,1.827-3.11,2.939
	c-6.104,7.122-5.935,2.374-5.935,2.374s-0.509-5.426-2.035-5.256c-0.413,0.046-0.942-0.009-1.555-0.063
	c-4.265-11.219-9.876-25.527-16.043-40.07L348.871,195.413z M437.261,398.867c-20.606,0-37.311-16.704-37.311-37.31
	c0-10.771,4.57-20.469,11.869-27.28l9.672,13.589c-3.188,3.669-5.133,8.448-5.133,13.691c0,11.544,9.358,20.902,20.902,20.902
	s20.902-9.358,20.902-20.902c0-11.544-9.358-20.902-20.902-20.902c-2.699,0-5.27,0.529-7.638,1.46
	c-3.005-4.218-6.347-8.926-9.653-13.618c5.17-2.709,11.049-4.25,17.291-4.25c20.606,0,37.311,16.704,37.311,37.31
	C474.571,382.163,457.867,398.867,437.261,398.867z"/>
</svg>
