<?xml version="1.0" encoding="utf-8"?>
<!-- Generator: Adobe Illustrator 19.1.0, SVG Export Plug-In . SVG Version: 6.00 Build 0)  -->
<svg version="1.1" xmlns="http://www.w3.org/2000/svg" xmlns:xlink="http://www.w3.org/1999/xlink" x="0px" y="0px"
	 viewBox="0 0 500 500" style="enable-background:new 0 0 500 500;" xml:space="preserve">
<g id="Layer_1">
	<path d="M451.223,278.075c4.207-2.711,7.521-5.238,8.101-5.818c1.423-1.423-7.969-4.838-14.799-6.546
		c-5.833-1.458-28.064-5.189-50.031,3.677l-4.83-10.885c10.439-6.808,20.29-11.858,27.967-16.758
		c24.362-15.55,18.587-30.174,6.22-48.724c-6.877-10.316-29.375-35.429-32.315-37.582c-8.328-8.226-23.784-21.843-26.744-23.878
		c-5.33-3.664-18.331,1.829-21.731,4.076c-0.432,0.285-0.962,0.609-1.536,0.961c-3.814,2.339-7.759,4.757-6.83,8.049
		c0.776,2.751,4.394,3.824,12.901,3.824c10.457,0,26.724,11.401,33.327,19.25l0.038-0.032c3.509,4.547,5.383,8.762,5.57,10.818
		c0.49,5.393-8.762,13.1-25.994,14.358l-5.597-12.612c1.765-1.878,2.673-4.01,2.045-5.893c-1.555-4.665,2.073-9.33-1.555-11.922
		c-3.628-2.592-8.812-4.147-12.44-1.555c-3.628,2.592-4.665,3.628-8.812,3.628s-6.739,0-8.812,2.592
		c-2.073,2.592,0.518,5.183,0.518,5.183l-10.367,5.702c0,0-0.519,6.738,5.702,4.665l13.477-5.183c0,0,1.397,6.94,7.681,7.699
		l4.415,9.948c-6.659,2.068-14.105,5.39-20.936,8.747c-2.93-4.76-9.086-13.336-17.492-17.44
		c-10.816-5.281-46.145-23.82-70.208-7.803c-21.752,14.478-36.003,27.998-42.918,36.888c-1.791-0.703-3.509-1.175-5.045-1.289
		c-7.381-0.551-10.508-0.798-26.356,0.568c-26.356,2.273-38.07-3.977-42.755-6.25c-0.439-0.213-0.899-0.366-1.368-0.467
		c-1.272-5.932-3.504-14.678-7.818-14.483c-5.63,0.254-34.034,2.22-40.586,0.802c-6.552-1.418-17.466-5.724-20-5.61
		c-1.667,0.075-3.009,1.769-3.069,3.474c-9.055-3.931-17.996-7.937-20.928-7.937c-3.985,0-3.985,3.415,1.138,4.838
		c5.123,1.423,12.807,19.352,12.238,21.06c-0.57,1.708,8.538,8.253,37.85,16.791c14.413,4.198,36.186,14.519,55.208,24.266
		c-0.707,5.667,2.464,22.446,0.87,23.129c-1.992,0.854-4.84,0.824-11.966-3.567c-9.39-5.786-19.065-6.408-18.498-5.123
		c0,0,0.017,0.996,4.761,5.417c-28.706-11.597-62.877-4.756-84.727,19.58C-3.69,321.759-1.109,369.7,29.941,397.578
		c14.429,12.955,32.504,19.332,50.52,19.332c20.752,0,41.427-8.465,56.349-25.084v-0.001c8.017-8.929,13.5-19.257,16.527-30.101
		c8.885,3.137,15.357,5.447,17.126,6.155c7.115,2.846,11.099,3.984,17.36,2.277c6.261-1.707,6.261,3.415,6.261,3.415l20.491,0.854
		c0,0,3.984-2.277,5.407-2.277c1.423,0,3.984,2.277,3.984,2.277s43.258,0.854,47.811,0.569c4.553-0.285,5.692-3.415,10.53-3.984
		c4.838-0.569,35.289,4.838,43.827,5.692c8.538,0.854,5.123-6.83,3.415-9.107c-1.029-1.372-3.037-6.984-5.07-13.21
		c1.432,0.349,3.083-2.206,5.033-10.008c10.042-40.17,29.537-62.903,48.934-77.923l4.077,9.189
		c-24.395,15.999-32.2,42.434-32.2,42.434s2.008,0.61,4.329,1.01c-3.168,8.175-4.925,17.047-4.925,26.328
		c0,40.3,32.786,73.086,73.086,73.086c40.3,0,73.086-32.786,73.086-73.086C495.901,315.184,477.453,289.182,451.223,278.075z
		 M115.983,373.127L115.983,373.127c-17.569,19.564-47.78,21.19-67.343,3.624c-19.565-17.568-21.192-47.777-3.625-67.343
		c5.771-6.427,12.909-10.91,20.582-13.421c-5.412,7.045-11.513,15.476-13.239,19.243c-3.003,6.551,6.039,12.054,16.074,16.26
		c-5.185,6.392-4.515,15.788,1.678,21.348c6.39,5.738,16.222,5.208,21.959-1.182c2.212-2.464,3.483-5.44,3.855-8.496l1.229-1.208
		c9.21,3.258,19.64,6.924,29.704,10.459C125.076,359.881,121.464,367.022,115.983,373.127z M189.247,302.708
		c-3.415-1.708-10.245-8.822-14.514-11.668c-4.269-2.846-8.577-4.382-10.569-5.235c-1.992-0.854-1.384-3.018,3.739-6.433
		c3.401-2.267,3.195-6.008,1.43-9.02c1.688,0.942,2.861,1.601,3.408,1.905c4.755,2.641,11.705,7.724,11.997,6.166
		c1.233,1.545,2.225,2.793,2.841,3.577c0.85,1.082,1.466,2.071,1.992,2.931c1.456,4.436,3.481,11.726,5.084,14.932
		C196.931,304.416,192.662,304.416,189.247,302.708z M382.901,163.038c-3.765-3.985-9.227-8.363-14.771-11.791
		c-5.438-3.364-13.416-7.374-20.533-7.374c-4.401,0-6.638-0.319-7.748-0.593c1.107-0.936,3.093-2.153,4.08-2.758
		c0.625-0.383,1.2-0.736,1.668-1.046c4.376-2.892,14.351-5.663,16.591-4.123c2.485,1.708,17.465,14.834,25.923,23.169
		C386.432,160.086,384.513,161.713,382.901,163.038z M422.815,395.693c-27.724,0-50.279-22.555-50.279-50.279
		c0-17.416,8.904-32.788,22.395-41.814l14.821,33.398c-1.567,2.427-2.487,5.312-2.487,8.416c0,8.588,6.962,15.55,15.55,15.55
		c8.588,0,15.55-6.962,15.55-15.55c0-8.588-6.962-15.55-15.55-15.55c-0.49,0-0.974,0.029-1.452,0.073l-14.314-32.256
		c4.963-1.643,10.26-2.546,15.766-2.546c27.724,0,50.279,22.555,50.279,50.279S450.54,395.693,422.815,395.693z"/>
</g>
<g id="Layer_2">
</g>
</svg>
