<?xml version="1.0" encoding="utf-8"?>
<!-- Generator: Adobe Illustrator 19.1.0, SVG Export Plug-In . SVG Version: 6.00 Build 0)  -->
<svg version="1.1" id="Layer_1" xmlns="http://www.w3.org/2000/svg" xmlns:xlink="http://www.w3.org/1999/xlink" x="0px" y="0px"
	 width="500px" height="500px" viewBox="0 0 500 500" style="enable-background:new 0 0 500 500;" xml:space="preserve">
<path d="M428.062,288.197c-16.813,0-32.144,6.326-43.761,16.719l-42.835-43.251c0,0,2.366-2.003,4.572-9.842
	c2.206-7.839-0.976-16.256-0.976-16.256s-2.185-1.735-2.956-1.799s-1.242,0.932-1.649,1.157s0.086-1.028-1.307-1.403
	c-10.549-2.84-16.909,7.262-16.909,7.262s-1.425-1.542-2.292-2.002c-0.867-0.461-1.735,0.632-1.735,0.632l-15.575-15.795
	l-0.387-1.934l-2.579-2.579c0,0-1.161,0.774-1.161,0.258s-0.645-0.387-1.418-0.387c-0.774,0-2.263,2.024-2.263,2.024l-4.701-5.893
	c0,0-0.966-0.941-0.799-1.441c0.502-1.507,1.167-3.167-0.667-4.833c-2.196-1.996-4.471-0.712-5.821,0.095
	c-0.679,0.405-2.845-3.261-2.845-3.261s-19.802-33.682-23.875-39.792c-4.957-7.436-9.75-6.375-13-3
	c-0.921,0.956-4.875,4.25-4.875,4.25s-1.504-0.891-3.181,0.011c-1.676,0.903-1.161,4.513-1.161,4.513s-8.124,8.898-8.898,9.027
	c-0.774,0.129-1.677,1.161-1.677,1.934c0,1.419,2.321,3.998,3.611,3.998s2.192-2.063,2.192-2.063l8.511-9.156
	c0,0,1.676,1.161,3.74,0.129c1.919-0.96,0.827-3.701,0.665-4.08c0.074,0.016,0.984-1.525,2.447-2.439c2.563-1.6,4.25-2.75,7.25,1.5
	c0.64,0.906,22.696,37.597,23.083,38.5c0.387,0.903,2.917,3.75,1.667,5c-0.516,0.516-3.334,3.491-1,6.667
	c1.537,2.091,4.226,1.5,5,1.5s4.088,4.675,4.088,4.675s-2.837,2.708-3.482,3.611c-0.645,0.903-0.774,2.45-0.774,2.45
	s1.548,1.418,2.192,0.645c0.645-0.774,0.903,2.321,1.547,2.579c0.645,0.258,0.903,2.321,1.805,2.063
	c0.903-0.258,1.16,2.708,0.645,2.192c-0.516-0.516-3.998-0.516-4.9-0.516c-0.903,0-0.774-1.419-1.805-2.45
	c-1.032-1.032-1.161,0-1.677,0.129s-0.359,3.294-1.161,1.676c-7.737-15.603-18.827-11.606-19.214-11.348
	c-0.387,0.258-0.903-1.032-1.29-1.676c-0.387-0.645-1.418-0.258-1.418-0.258c-3.74,0.903-8.253,4.513-8.511,4.9
	c-0.258,0.387,1.369,0.878,0.387,1.547c-41.265,28.112-42.942,41.781-41.652,43.973s2.579,2.321,2.579,2.321l-11.348,5.158
	c0,0-1.032,0.516-0.903-0.774c0.578-5.776-6.963-5.287-7.866-5.287c-0.903,0-1.547,1.289-2.321,1.289s-2.966,0.258-4.126,0.516
	c-1.161,0.258-2.45,1.032-2.579,1.676s-1.934,0.258-2.837,0.258c-0.903,0-2.837,1.032-4.385,1.676
	c-1.547,0.645-1.29,1.805-2.063,2.45s-1.547-0.258-2.192,0c-0.645,0.258-3.74,2.063-4.9,2.579s-1.031,2.063-1.031,2.063
	s-1.805-0.258-2.579,0.129s-1.934,0.774-3.095,1.547c-1.161,0.774-1.934,1.547-2.192,2.321c-0.258,0.774-1.934-0.129-2.45,0.129
	c-0.516,0.258-3.482,1.547-4.513,2.063c-1.031,0.516-1.418,1.547-2.063,1.934c-0.645,0.387-1.547,0-2.192,0.129
	s-1.934,0.258-2.063,0.903c-0.129,0.645-1.677,0.774-1.677,0c0-0.774-0.774-1.419-1.805-2.321c-1.032-0.903-1.29-0.645-2.063-0.516
	c-0.774,0.129-1.031-0.903-1.031-1.418s-2.192-1.934-3.353-2.579s-1.29-1.032-2.321-1.032c-1.031,0-1.418-1.419-1.418-1.419
	s-2.45-1.676-3.998-2.45c-1.547-0.774-1.805,0-2.837,0s-1.29-0.129-1.29-0.516c0-0.387,0-1.547-0.645-1.676
	c-0.645-0.129-5.029-2.579-5.803-2.579s-1.805,1.547-1.805,0.645c0-0.903-1.419-1.676-2.063-1.676s-2.579-0.903-4.126-1.032
	c-1.547-0.129-1.418,0.516-2.321,1.161c-0.903,0.645-1.676-0.645-1.805-1.161c-0.129-0.516-1.161-0.903-2.192-0.903
	c-1.031,0-3.482-0.387-4.255-0.387s-1.934,0.258-2.063,0.774s-1.805,1.419-2.063,0.258s-1.547-0.774-1.547-0.774
	s-3.224-0.129-4.643-0.129c-1.418,0-1.934-0.129-2.45,0.903s-1.161-0.516-1.677-1.419c-0.516-0.903-2.192-0.516-3.224-0.516
	c-1.032,0-1.161-0.645-1.677-1.805s-0.258-2.321-0.258-2.321s-0.903-3.224-1.547-4.255c-0.645-1.032-1.547-1.161-1.547-1.676
	c0-0.516-0.258-2.579-1.032-4.255c-0.774-1.676-2.321-2.45-2.321-2.837c0-0.387,0.129-1.676,0-2.45
	c-0.129-0.774-0.903-2.579-1.548-3.095c-0.645-0.516-1.547-1.032-1.29-1.547c0.258-0.516-0.387-2.579-0.774-3.353
	c-0.387-0.774-0.903-2.579-1.547-3.353c-0.645-0.774-1.418-1.161-1.677-2.063c-0.258-0.903-0.258-1.419-0.387-2.579
	s-1.547-3.095-2.579-3.611c-1.032-0.516-0.258-1.161-0.258-1.934c0-0.774-0.387-1.934-0.903-2.837
	c-0.516-0.903-1.676-2.321-2.192-2.321s-0.645-0.645-0.516-1.29s0.129-1.161-0.774-3.611s-2.45-2.837-2.321-3.482
	c0.129-0.645-0.129-2.192-0.258-2.966s-1.547-3.482-2.321-3.869c-0.774-0.387-1.032-0.516-1.032-1.547
	c0-1.032-0.645-2.579-1.29-3.998c-0.645-1.418-1.032-2.063-1.547-2.192c-0.516-0.129-1.075,0.301-0.559-1.419
	c0.516-1.719-0.688-3.955-1.203-4.814c-0.516-0.86-2.063-1.375-2.063-1.375s0.344-2.235-1.547-4.642
	c-1.892-2.407-5.33-4.642-7.221-4.642s0,0,0,0s-4.971-10.569-7.549-15.383c-2.579-4.814-6.778-5.324-9.445-5.324
	c-1.922,0-2.779,1.278-2.435,2.138c0.344,0.86,0.516,1.547,2.063,1.719c1.547,0.172,4.814,2.407,6.362,5.502
	c1.547,3.095,44.876,111.932,44.876,111.932s-25.447-11.176-27.51-12.036c-2.063-0.86-4.126,0.688-4.126,0.688
	s-0.516,0.86-3.267-2.063c-2.751-2.923-3.439-7.909-5.158-15.131c-1.719-7.221-6.878-11.004-7.737-11.176
	c-0.86-0.172-1.892,0-0.86,2.579c1.032,2.579-0.688,13.411-1.719,15.99c-1.032,2.579-5.502,2.063-6.706,3.611
	c-1.204,1.547-0.86,2.923,0.516,3.439c1.375,0.516,14.615,7.565,16.85,8.425s2.923,0.86,3.267,2.063
	c0.344,1.204,4.642,4.814,6.706,5.674c1.631,0.68,12.815,5.438,17.435,7.404c-7.04,3.883-13.241,9.093-18.274,15.293
	c-0.006,0-0.015-0.001-0.021-0.001c-1.375,0-3.954,1.375-5.502,0.516c-1.547-0.86-3.783-4.47-4.814-9.972
	c-1.032-5.502-1.719-8.769-4.126-12.895c-2.407-4.127-5.158-4.814-6.018-4.47s0,0,0.344,4.127
	c0.949,11.391-5.502,16.678-7.565,17.194S4.5,314.617,4.5,315.648s2.235,1.547,3.955,1.891c1.719,0.344,14.958,8.081,16.334,8.253
	c1.375,0.172,2.407,1.375,3.095,2.063c0.047,0.047,0.112,0.113,0.189,0.191c-4.557,8.636-7.148,18.47-7.148,28.913
	c0,34.274,27.784,62.058,62.058,62.058c27.766,0,51.269-18.238,59.194-43.386c6.706,2.504,13.145,4.844,16.896,6.041
	c10.427,3.328,50.206-1.247,61.683-2.149c11.477-0.903,27.983-2.063,36.752-3.611c1.606-0.283,6.577-2.579,7.479-3.353
	s1.418,0,2.192-0.387c0.774-0.387,7.608-5.932,7.608-5.932s11.735-4.513,14.701-9.543c2.966-5.029,1.032-11.606,0.645-13.024
	c-0.387-1.419-1.67-2.299-1.418-4.255c1.805-14.056,2.837-38.815,3.095-44.618c0.142-3.202,0.402-18.692,0.607-31.936l17.859-14.815
	l0.456,0.445l0.428,1.071c0,0,3.01,2.709,3.631,3.02c0.621,0.311,1.092-0.685,1.092-0.685l62.516,59.03
	c-9.963,11.514-16.005,26.515-16.005,42.936c0,36.268,29.401,65.668,65.668,65.668c36.268,0,65.668-29.401,65.668-65.668
	C493.73,317.598,464.33,288.197,428.062,288.197z M104.689,350.569c-2.759-9.384-11.43-16.238-21.707-16.238
	c-2.949,0-5.763,0.57-8.347,1.596c-6.766-3.295-13.3-6.476-18.598-9.052c7.149-6.407,16.59-10.308,26.945-10.308
	c22.308,0,40.393,18.084,40.393,40.393c0,0.918-0.042,1.827-0.102,2.73c-1.284-0.571-2.096-0.955-2.198-1.057
	c-0.688-0.688-0.688-1.719-1.375-2.063c-0.688-0.344-2.235-1.204-3.095-1.204c-0.86,0-1.719,0.172-1.719,0.172
	S110.84,353.567,104.689,350.569z M82.982,397.353c-22.308,0-40.393-18.084-40.393-40.393c0-6.664,1.624-12.945,4.482-18.486
	c4.89,1.919,10.65,4.182,16.683,6.557c-2.154,3.464-3.401,7.55-3.401,11.929c0,12.498,10.131,22.629,22.629,22.629
	c10.946,0,20.076-7.772,22.175-18.099c3.488,1.424,5.635,2.334,5.773,2.473c0.86,0.86,2.063,1.719,3.782,2.235
	c1.719,0.516,2.751,0,2.751,0s1.692,0.659,4.399,1.704C117.09,384.892,101.496,397.353,82.982,397.353z M167.326,375.827
	c-3.095,0-9.285-2.063-11.52-2.751c-0.573-0.176-3.092-1.167-6.526-2.552c2.673-4.294,2.367-13.418,1.531-20.837
	c0.266,0.101,0.452,0.165,0.524,0.177c1.032,0.172,4.127,0.86,4.127,0.86l8.425-2.407c0,0-5.846,5.33-4.126,15.302
	C161.48,373.591,170.42,375.827,167.326,375.827z M284.699,291.02c-0.191,1.67-1.014,2.105-1.014,2.105s0.903-4.255-0.645-4.9
	c-1.547-0.645-3.611,0.774-3.482-0.258c0.129-1.032,0-2.192-0.903-2.579c-0.903-0.387-4.642-2.579-13.153-5.158
	c-8.511-2.579-15.861-3.353-16.248-3.095c-0.387,0.258-0.645,1.805-1.419,2.321s-2.192,3.224-2.321,3.74
	c-0.129,0.516-1.032,1.419-2.321,1.547s-0.903,0.903-0.903,0.903l-3.482-1.161c0,0-2.396-2.901-2.849-3.467
	c-1.608-2.01-1.809-4.22,0-4.823c19.615-6.538,38.956-21.885,38.956-21.885c1.062-1.443,0.516,2.708,1.805,2.966
	c1.29,0.258,3.482-1.032,4.126-1.419c0.645-0.387,2.063-0.516,3.353,1.547c1.29,2.063,0.985,3.778,0.985,4.681
	C285.185,262.085,285.566,283.447,284.699,291.02z M428.062,402.798c-27.025,0-48.933-21.908-48.933-48.933
	c0-11.125,3.719-21.378,9.973-29.598l25.239,25.523c-0.383,1.292-0.597,2.658-0.597,4.075c0,7.907,6.41,14.317,14.317,14.317
	c7.907,0,14.317-6.41,14.317-14.317c0-7.907-6.41-14.317-14.317-14.317c-2.238,0-4.348,0.528-6.235,1.444
	c-8.005-8.367-17.716-18.502-24.313-25.339c8.373-6.703,18.989-10.721,30.549-10.721c27.025,0,48.933,21.908,48.933,48.933
	C476.995,380.89,455.087,402.798,428.062,402.798z"/>
</svg>
