<?xml version="1.0" encoding="utf-8"?>
<!-- Generator: Adobe Illustrator 19.1.0, SVG Export Plug-In . SVG Version: 6.00 Build 0)  -->
<svg version="1.1" id="Layer_1" xmlns="http://www.w3.org/2000/svg" xmlns:xlink="http://www.w3.org/1999/xlink" x="0px" y="0px"
	 width="500px" height="500px" viewBox="0 0 500 500" style="enable-background:new 0 0 500 500;" xml:space="preserve">
<g>
	<path d="M436.95,276.414c4.619-1.583,9.282-5.238,10.044-6c0.948-0.948-0.444-1.866-2.412-2.412
		c-30.378-8.425-52.219,1.506-54.717,2.721l-7.024-12.258l-6.572-12c0,0-0.431-0.689,0-0.861c0.43-0.172,0.344-1.981,0.258-2.412
		c-0.086-0.431-1.378-2.671-1.895-3.532c-0.517-0.861-1.723-0.086-1.723-0.086l-1.895-3.532l3.876-4.652
		c7.753,5.083,17.315,4.91,18.952,4.652c1.637-0.258,2.027-1.922,2.756-4.221c4.307-13.583,2.338-33.599,0.517-37.904
		c-0.773-1.827-0.948-3.446-3.446-3.446c-8.281,0-14.731,1.292-22.484,7.495c-7.276,5.821-6.805,15.42-6.805,15.42l-3.963,0.172
		c0,0-5.858-9.821-6.892-12.233c-1.034-2.412,1.637-3.79,2.326-4.652c0.689-0.862-0.689-3.36-0.689-3.36s0.258-2.068-0.775-2.843
		c-1.034-0.775-4.824-0.345-6.03-0.086c-1.206,0.258,1.206-2.154,1.206-2.154s1.551-12.491-2.584-13.956
		c-10.241-3.627-15.42,6.892-15.937,7.581c-0.517,0.689-0.603,1.895,0.172,2.412c0.775,0.517,2.498,1.809,2.843,2.24
		c0.345,0.431-1.895,0-1.895,0c-6.818-1.049-7.322,4.824-7.322,4.824s-6.719,4.48-8.701,5.772s-1.981,4.393-0.775,6.375
		c1.206,1.981,4.135,2.412,5.427,1.981s9.821-5.686,9.821-5.686c4.479-0.086,5.944-5.6,5.944-5.6l4.135,5.858
		c0,0-3.015,2.326-3.532,2.326s-9.907,6.633-10.596,7.322c-0.689,0.689,0.431,2.068,0.431,2.068l4.221,5.858
		c0,0-3.651,2.612-4.394,1.551c-10.251-14.645-26.533-16.282-26.533-16.282c-0.862-0.086-0.603-0.689-0.603-0.689
		c0.258-0.345,0.172-1.551-0.259-1.895c-0.431-0.345-1.723-1.895-8.873-2.671c-5.824-0.631-9.39,0.603-9.993,1.551
		c-1.01,1.587-0.09,2.305-1.464,2.412c-48.414,3.79-69.261,34.631-69.348,35.234c-0.086,0.603-1.378,0.431-1.378-0.861
		s-0.948-2.068-2.929-1.981c-1.981,0.086-13.18,2.67-14.473,3.101c-1.292,0.431-1.637,0.689-1.637,1.464
		c0,0.775-0.947,0.258-0.947-0.172c0-0.431-0.689-0.603-1.809-0.603c-1.12,0-4.566,0.689-5.255,0.689
		c-0.689,0-1.034,0.517-1.206,1.292c-0.172,0.775-0.775,0-0.775-0.431c0-0.431-0.689-0.345-1.379-0.345
		c-0.689,0-5.341,0.258-6.203,0.258c-0.861,0-1.034,0.431-1.206,1.12c-0.172,0.689-0.689-0.172-0.689-0.689
		c0-0.517-1.12-0.345-1.637-0.345c-0.517,0-4.824-0.258-5.772-0.258c-0.948,0-0.775,0.517-0.861,1.034
		c-0.086,0.517-1.034,0-1.034-0.517c0-0.517-0.603-0.431-1.637-0.431c-1.034,0-4.652-0.345-6.202-0.431
		c-1.551-0.086-1.637,0.345-1.809,0.689c-0.172,0.345-1.12,1.465-1.12,0.258c0-1.206-0.861-1.551-1.378-1.551
		c-0.517,0-4.135-0.258-5.6-0.517c-1.464-0.258-1.292,1.206-2.068,1.12c-0.775-0.086-0.344-1.723-1.464-1.637
		c-1.892,0.146-5.599-0.861-6.547-1.034c-0.948-0.172-1.12,1.12-1.723,1.12c-0.603,0-0.258-1.723-0.689-1.723
		c-0.431,0-3.704-1.378-5.083-1.809c-1.378-0.431-1.206,0-2.326,0.345c-1.12,0.345-1.12-1.292-1.464-2.326
		c-0.345-1.034-5.729-3.618-6.246-3.618c-0.517,0,0-0.905,0-0.905c0.258-0.775-4.158-5.189-8.012-5.686
		c-45.097-5.815-70.941,19.512-72.75,21.321c-1.809,1.809-1.551,4.135,0.332,3.959c1.882-0.176,0,0,37.659,4.828
		c18.323,2.349,32.392,6.921,42.963,11.861c-0.036,0.072-0.063,0.124-0.082,0.162c-0.093,0.185-0.278,0.4-0.865,0.492
		c-0.586,0.091-1.095,0.106-1.59,1.091c-0.495,0.986-1.161,2.31-1.161,2.31s1.641-0.134,5.069,1.584
		c3.424,1.727,4.295,3.124,4.295,3.124s0.666-1.324,1.161-2.31c0.495-0.986,0.203-1.403-0.073-1.927
		c-0.276-0.525-0.214-0.802-0.121-0.987c0.016-0.031,0.037-0.073,0.063-0.125c13.707,7.63,19.662,15.139,20.378,15.997
		c1.292,1.551,10.337,23.001,10.337,23.001l-10.459,8.506c-6.336-12.463-16.2-22.821-28.285-29.768l0.114-0.227
		c0.816,0.158,1.606,0.311,2.338,0.453c0.179,0.035,0.364,0.01,0.527-0.071c0.239-0.119,0.509-0.383,0.596-0.766
		c0.207,0.076,0.443,0.072,0.655-0.034c0.409-0.204,0.575-0.701,0.371-1.11c-0.027-0.054-0.058-0.108-0.089-0.161
		c0.552-1.103,1.437-2.882,1.778-3.612c0.511-1.093,0.681-1.432,0.713-1.725c0.031-0.293,0.11-0.755,0.238-3.083
		c0.124-2.237-3.669-4.198-4.702-4.718c-0.003-0.001-0.005-0.003-0.008-0.004c-0.015-0.008-0.03-0.015-0.044-0.022
		s-0.028-0.014-0.044-0.022c-0.006-0.003-0.012-0.006-0.018-0.009l0.013,0.007c-1.03-0.517-4.871-2.397-6.595-0.962
		c-1.792,1.492-2.116,1.83-2.333,2.03s-0.387,0.539-0.959,1.601c-0.474,0.88-1.745,3.396-2.167,4.235
		c-0.254,0.238-0.443,0.584-0.514,0.982c-0.12,0.675,0.046,1.704,1.346,2.935c-8.312-3.367-17.391-5.238-26.911-5.238
		c-39.625,0-71.748,32.122-71.748,71.748s32.123,71.748,71.748,71.748c30.607,0,56.722-19.173,67.031-46.157
		c3.162,1.11,5.077,1.756,5.254,1.756c1.292,0,1.981-0.345,3.015-0.345s8.184,2.412,11.458,3.618
		c3.273,1.206,9.562,2.24,13.697,2.412s91.918,5.772,110.87,5.083c18.952-0.689,28.428-24.724,29.031-26.016
		c0.603-1.292,7.409-18.694,11.458-28.084c4.049-9.39,5.427-14.386,5.427-20.933c0-6.547-4.049-12.836-4.049-12.836l11.716-42.47
		c0,0,3.101-1.981,5.169-3.446c2.068-1.464,1.723-0.345,1.895,0.603c0.454,2.494,2.326,4.393,3.188,4.652
		c0.861,0.258,6.547-3.101,6.892-3.36c0.345-0.258,2.498-1.292,2.498-1.292l14.073,24.141c0.19,0.594,0.229,0.989,0.055,1.1
		c-27.739,17.66-35.147,44.365-35.578,47.036c-0.431,2.671,7.753-1.464,9.907-2.929c0.856-0.582,3.511-2.404,6.516-4.523
		c-4.28,9.192-6.684,19.434-6.684,30.241c0,39.625,32.123,71.748,71.748,71.748c39.625,0,71.748-32.122,71.748-71.748
		C494.698,311.953,469.872,282.927,436.95,276.414z M102.741,337.284c-1.583-4.056-4.146-7.619-7.401-10.398
		c0.018-0.022,0.043-0.038,0.06-0.062c0.206-0.288,0.556-1.051-0.421-2.114c1.514,0.123,1.87-0.381,1.999-0.563
		c0.251-0.355,0.333-0.974-0.265-1.546c-0.506-0.485-2.174-1.469-3.957-2.458l0.745-1.481c1.872,0.359,3.806,0.733,5.451,1.053
		c0.179,0.035,0.364,0.01,0.527-0.071c0.288-0.144,0.626-0.495,0.627-1.015c0.002-0.755-0.654-1.407-2.184-2.176l-2.627-1.359
		l0.715-1.422c1.872,0.359,3.807,0.733,5.451,1.053c0.179,0.035,0.364,0.01,0.527-0.071c0.289-0.144,0.626-0.495,0.627-1.015
		c0.002-0.755-0.654-1.407-2.188-2.177c-0.027-0.014-1.191-0.61-2.628-1.348l0.719-1.431c1.872,0.359,3.807,0.733,5.451,1.053
		c0.179,0.035,0.364,0.01,0.527-0.071c0.289-0.144,0.626-0.495,0.627-1.015c0.001-0.739-0.63-1.38-2.101-2.133l0.323-0.642
		c9.034,5.527,16.089,13.964,19.877,24.005l-13.317,10.83L102.741,337.284z M78.367,394.718c-26.472,0-47.932-21.46-47.932-47.932
		s21.46-47.932,47.932-47.932c4.909,0,9.643,0.741,14.103,2.112c-0.155,0.148-0.261,0.323-0.303,0.498
		c-0.185,0.775,0.481,1.543,2.029,2.346l-1.089,2.167c-1.219-0.222-2.052-0.362-2.2-0.363c-0.956-0.002-1.189,0.619-1.238,0.81
		c-0.198,0.775,0.459,1.526,2.132,2.436c0.465,0.253,1.459,0.772,2.589,1.357l-0.67,1.332c-2.796-0.529-5.067-0.944-5.323-0.944
		c-0.772-0.002-1.151,0.433-1.249,0.84c-0.19,0.798,0.518,1.589,2.158,2.413l2.581,1.336l-0.677,1.346
		c-2.796-0.529-5.067-0.944-5.323-0.944c-0.772-0.002-1.151,0.433-1.249,0.84c-0.19,0.798,0.518,1.589,2.161,2.415
		c0.761,0.39,1.654,0.856,2.573,1.344l-0.24,0.478c-1.037-0.636-1.798-1.087-1.819-1.099c-0.538-0.315-1.234-0.665-1.911-0.961
		c-0.933-0.407-1.608-0.702-2.013-0.011c-0.044,0.075-0.405,0.745,0.429,1.237c0.1,0.059,0.203,0.122,0.32,0.194
		c0.596,0.365,1.542,0.944,4.166,2.289l-0.111,0.22c-0.795-0.323-1.61-0.607-2.442-0.851c-0.287-0.15-0.584-0.303-0.894-0.458
		c-0.602-0.303-1.07-0.493-1.43-0.581c-0.667-0.164-1.028,0.051-1.214,0.259c-1.256-0.185-2.541-0.284-3.848-0.284
		c-2.758,0-5.416,0.43-7.912,1.221L64.505,319c0,0-10.854-1.981-13.266-2.154c-0.945-0.068-2.326-0.258-3.446,0.775
		c-1.12,1.034-3.963,8.098-4.221,9.734c-0.259,1.637,0.431,2.326,0.431,2.326c0.784,0.855,6.798,6.762,9.494,8.982
		c-0.835,2.558-1.292,5.286-1.292,8.122c0,14.449,11.713,26.162,26.162,26.162c10.86,0,20.173-6.618,24.13-16.04
		c7.021,2.553,14.042,5.102,20.471,7.427C115.964,382.123,98.642,394.718,78.367,394.718z M148.033,329.627
		c-0.816-3.324-1.866-6.553-3.127-9.677l9.794-7.583l9.39,16.368L148.033,329.627z M193.121,316.933
		c-2.498,0.517-8.098-3.187-12.491-2.24c-4.393,0.948-3.704,3.36-6.892,2.369c0,0-3.956-5.541-7.753-4.781
		c-0.646,0.129-16.152-32.822-16.152-32.822s-1.68-4.264-1.292-6.849c0.388-2.584,1.421-4.393,4.264-4.523
		c2.843-0.129,49.62,1.292,49.62,1.292s6.073,0.517,7.882,0c1.809-0.517,1.594,0,1.594,0.517c0,0.517-1.723,3.187-1.809,4.996
		c-0.086,1.809-1.896,1.723-3.015,1.723s-1.723-0.258-1.723,0.258c0,0.517-0.517,1.12-0.517,2.154s-1.206,1.206-1.637,1.206
		c-0.431,0-1.034-3.963-1.034-3.963h-1.981l-15.478,2.796c0,0-0.871,0.148-0.871,1.081c0,0.933-0.254,8.162-0.254,9.008
		c0,0.846,0.78,1.075,0.78,1.075l13.928,4.561l2.498-0.086l1.206-3.618l0.862-0.086c0,0,0,1.895,0,2.412
		c0,0.517,0.258,1.895,0.258,1.895s0.311,0.86,0.779,1.559l-7.222,20.923C195.611,317.226,194.53,316.641,193.121,316.933z
		 M302.958,361.729c-0.517,0.948-1.378-0.172-1.981-0.861c-0.603-0.689-1.723-1.378-1.464-2.757
		c0.259-1.378-0.172-2.757-0.172-2.757l-2.24-2.757c0,0,0.689-1.378,2.154-1.378c1.464,0,2.412-0.517,2.412-0.517
		s-0.172-0.603,1.551-1.981c1.723-1.378,0.603-3.618,0.603-3.618s-0.258-5.427-0.172-9.131c0.086-3.704-1.809-4.91-2.671-6.375
		c-0.861-1.465-11.199-7.236-12.663-7.581c-1.464-0.345-0.689-2.24-0.689-2.24l4.221-18.78l1.465-0.258c0,0-0.259-1.809,0.861-1.809
		s0.689-1.464,0.689-1.464s1.206,0,1.895,0s1.206-0.948,1.206-0.948s6.461,0.603,13.697,0.431c7.236-0.172,8.7,3.36,8.7,3.36
		S303.475,360.781,302.958,361.729z M330.094,266.623c0,0-6.117,23.949-6.806,23.173c-0.689-0.775-2.929-1.12-5.341-1.292
		c-2.412-0.172-16.109-0.603-17.574-0.603s-1.637,0.086-1.637-0.775c0-0.862-1.034-1.034-1.034-1.034s0.462-10.056-0.431-13.697
		c-2.112-8.618-8.787-11.199-8.787-11.199c-1.12-0.172-0.517-0.775-0.517-0.775s24.808-5.5,35.501-5.5
		C328.273,254.921,332.307,256.458,330.094,266.623z M422.951,398.853c-28.756,0-52.067-23.311-52.067-52.067
		c0-17.762,8.901-33.439,22.479-42.836l13.122,22.51c-5.914,4.797-9.696,12.118-9.696,20.326c0,14.449,11.713,26.162,26.162,26.162
		s26.162-11.713,26.162-26.162s-11.713-26.162-26.162-26.162c-1.46,0-2.891,0.125-4.286,0.355l-13.3-23.208
		c5.494-1.972,11.413-3.052,17.586-3.052c28.756,0,52.067,23.311,52.067,52.067C475.018,375.542,451.707,398.853,422.951,398.853z"
		/>
	<polygon points="116.596,269.503 116.6,269.505 116.61,269.51 	"/>
</g>
</svg>
