<?xml version="1.0" encoding="utf-8"?>
<!-- Generator: Adobe Illustrator 19.1.0, SVG Export Plug-In . SVG Version: 6.00 Build 0)  -->
<svg version="1.1" xmlns="http://www.w3.org/2000/svg" xmlns:xlink="http://www.w3.org/1999/xlink" x="0px" y="0px"
	 viewBox="0 0 500 500" style="enable-background:new 0 0 500 500;" xml:space="preserve">
<g id="Layer_1">
	<g>
		<path d="M425,280.5c-12.244,0-23.743,3.228-33.715,8.856L387,283c0,0,0,0,1-1.667s-2-3.667-2-3.667l-27-39c0,0,2.667,0,4.333-2
			c1.667-2,4.193-8.342,3.667-18.333c-0.667-12.667-4.333-17-8-18.667c-3.667-1.667-8.667,1-11.333,2C345,202.667,340,208,340,208
			s-2.667-2.333-5.667-5c-3-2.667-7-2-9.667-2c-2.667,0-3.667-2-10-9.333c-6.333-7.333-8-9-12.333-8.333
			c-2.306,0.355-5.667,3-6.667,1s-6.455-2.981-10,0c-3.423,2.878-2.333,8.667-2.333,8.667s-6.85,5.456-9,7.333
			c-1.28,1.118-1.678,5.478-0.333,6.667c2.483,2.196,6,0,6,0l6.333-7c0,0,5,2,9-0.667s4.333-7.333,4.333-7.333s-1,0,2.667-1.333
			c3.667-1.333,12,14,16,15.667S326,217,326,219.333s-6,6.333-8,6.333s-2.333-2.333-8-5.667c-5.667-3.333-16.667-3.333-26.333-0.667
			C274,222,221.333,255.667,219,257.667s-3,5-2.333,2.667c0.667-2.333,0-2.333-2-3.667c-2-1.333-6.667,0.333-10.333,3.333
			c-3.667,3-20,12.667-34,13c-14,0.333-25.333-17-29.667-21c-4.333-4-9.667-0.667-13.333,1c-3.667,1.667-29.667,1-39.333,2
			s-13.333,6.667-13.333,8.333S79.319,264.85,73,267c-48,16.333-57.667,37-61,43.667C8.667,317.333,9,323.333,9,325
			c0,1.667,7.667,0,14.667-0.333c3.569-0.17,8.002-2.853,11.493-5.442c-7.74,10.425-12.327,23.323-12.327,37.275
			c0,34.555,28.112,62.667,62.667,62.667c29.451,0,54.194-20.431,60.865-47.858l-21.96,0.084
			c-6.007,15.64-21.176,26.774-38.905,26.774c-17.085,0-31.795-10.34-38.217-25.088c-0.847,0.025-4.08,0.095-6.949-0.191
			C37,372.555,36,369.555,36,366.555s0.891-6.113,3.669-6.366c1.212-0.11,2.825,0.009,4.341,0.067
			c-0.111-1.238-0.177-2.489-0.177-3.756c0-22.976,18.691-41.667,41.667-41.667s41.667,18.691,41.667,41.667
			c0,1.414-0.072,2.811-0.21,4.189l29.377-0.356c0,0,54.667-37.667,56.333-39.333c1.667-1.667,3.667,0.333,3.667,0.333
			c4.667,3.667,0,9,0,9s-28.766,19.805-43.367,30.633l93.701,0.401c2.333,0,11-3,15.333-13.667c4.333-10.667,14.333-27,16-27
			s7.333-4.667,3.667,6c-3.667,10.667-15,30.333-15.333,32.333c-0.333,2-3.667,10.667-19.667,11s-48.333,1-48.333,1l-69.118,0.264
			c-0.406,1.679-0.913,3.666-1.548,6.035c-3.667,13.667-1.333,13.333-1.333,13.333s127,1.333,143.333-2.333
			C306,384.667,313,362,314.667,353.667c1.667-8.333,24-112.333,24-117c0-4.667,2-3,2-3s33.667,46,33.667,49s2.667,5,2.667,5
			l1.667-0.333l4.78,7.17c-16.561,12.582-27.28,32.474-27.28,54.83c0,37.955,30.878,68.834,68.833,68.834
			s68.833-30.879,68.833-68.834S462.955,280.5,425,280.5z M425,399.167c-27.478,0-49.833-22.355-49.833-49.834
			c0-15.771,7.373-29.845,18.844-38.983l17.824,26.736c-2.991,3.214-4.835,7.51-4.835,12.247c0,9.941,8.059,18,18,18s18-8.059,18-18
			s-8.059-18-18-18c-1.716,0-3.37,0.255-4.941,0.704l-18.11-26.863c6.899-3.616,14.738-5.674,23.052-5.674
			c27.478,0,49.833,22.355,49.833,49.833C474.833,376.812,452.478,399.167,425,399.167z"/>
		<path d="M117.667,356.5c0-17.765-14.402-32.167-32.167-32.167S53.333,338.735,53.333,356.5c0,0.307,0.015,0.611,0.023,0.916
			c9.477,0.038,59.079,0.238,64.281,0.25C117.651,357.278,117.667,356.891,117.667,356.5z"/>
		<path d="M85.5,388.667c10.786,0,20.324-5.314,26.16-13.461c-12.335,0.122-41.316,0.154-52.162,0.224
			C65.348,383.45,74.813,388.667,85.5,388.667z"/>
	</g>
</g>
<g id="Layer_2">
</g>
</svg>
