<?xml version="1.0" encoding="utf-8"?>
<!-- Generator: Adobe Illustrator 19.1.0, SVG Export Plug-In . SVG Version: 6.00 Build 0)  -->
<svg version="1.1" xmlns="http://www.w3.org/2000/svg" xmlns:xlink="http://www.w3.org/1999/xlink" x="0px" y="0px" width="500px"
	 height="500px" viewBox="0 0 500 500" style="enable-background:new 0 0 500 500;" xml:space="preserve">
<g id="Layer_1">
	<g>
		<path d="M350.961,43.6c0,0-0.689-28.606-0.689-32.052c0-3.446-4.48-5.17-6.204-5.17c-1.723,0-14.82-1.379-26.193-1.379
			c-11.373,0-22.057,1.379-25.848,2.068s-4.48,3.791-4.48,5.859s0,31.018,0,31.018s9.305-2.413,29.984-2.413
			C336.486,41.532,350.961,43.6,350.961,43.6z"/>
		<path d="M328.178,426.845v-240.39c0-6.452-1.334-7.731-1.485-7.856c-0.117-0.096-0.345-0.133-0.63-0.133
			c-0.64,0-1.573,0.186-2.209,0.313c-0.515,0.103-1.003,0.198-1.45,0.262c-4.944,0.852-133.91,32.76-143.7,35.557
			c-7.817,2.233-8.472,7.497-8.472,12.697v204.202c0,3.901,0.999,7.89,8.407,7.89c1.468,0,18.291-0.066,39.591-0.15
			c39.201-0.155,92.888-0.367,101.541-0.367c2.357,0,5.47-0.305,6.908-1.756c1.571-1.585,1.541-5.03,1.509-8.678
			C328.183,427.906,328.178,427.375,328.178,426.845z"/>
		<path d="M363.196,466.135c0-4.653,0-269.857,0-304.494c0-34.637-6.72-44.976-8.271-61.002
			c-1.551-16.026-3.274-50.146-3.274-50.146s-17.922-2.585-33.948-2.585c-19.128,0-29.467,2.585-29.467,2.585s0,6.204,0,15.509
			s-11.89,24.814-18.611,27.916c-6.72,3.102-98.741,34.12-113.216,38.773c-14.475,4.653-18.611,18.094-18.611,28.433
			s-1.034,282.264-1.034,305.528c0,23.263,14.475,25.848,22.746,25.848s154.056,0,179.905,0
			C365.264,492.5,363.196,470.787,363.196,466.135z M167.168,151.773l63.07-18.611c2.12-0.622,4.343,0.586,4.969,2.705
			c0.625,2.119-0.586,4.343-2.705,4.968l-63.07,18.611c-0.378,0.111-0.759,0.165-1.134,0.165c-1.728,0-3.32-1.128-3.835-2.869
			C163.837,154.623,165.048,152.398,167.168,151.773z M165.108,175.896l153.022-44.804c2.119-0.622,4.342,0.595,4.963,2.715
			s-0.595,4.342-2.715,4.963l-153.022,44.804c-0.375,0.11-0.754,0.162-1.126,0.162c-1.73,0-3.326-1.132-3.837-2.877
			C161.772,178.739,162.988,176.517,165.108,175.896z M332.361,442.747c-2.751,2.775-6.869,4.125-12.59,4.125
			c-8.638,0-62.315,0.212-101.509,0.367c-21.309,0.084-38.14,0.15-39.623,0.15c-10.273,0-16.407-5.94-16.407-15.89V227.296
			c0-4.461,0-16.311,14.274-20.389c10.865-3.104,140.749-35.21,144.767-35.785c0.313-0.044,0.653-0.115,1.014-0.187
			c2.31-0.46,6.174-1.232,9.479,1.478c3.011,2.469,4.413,6.931,4.413,14.042v240.39c0,0.505,0.005,1.014,0.009,1.521
			C336.231,433.253,336.28,438.793,332.361,442.747z"/>
	</g>
</g>
<g id="Layer_2">
</g>
</svg>
