<?xml version="1.0" encoding="utf-8"?>
<!-- Generator: Adobe Illustrator 19.1.0, SVG Export Plug-In . SVG Version: 6.00 Build 0)  -->
<svg version="1.1" xmlns="http://www.w3.org/2000/svg" xmlns:xlink="http://www.w3.org/1999/xlink" x="0px" y="0px"
	 viewBox="0 0 500 500" style="enable-background:new 0 0 500 500;" xml:space="preserve">
<g id="Layer_1">
	<g>
		<path d="M177,289c37.293,0,45.556-2.032,60.556-5.723c11.713-2.881,27.753-6.827,64.391-11.585
			c78.562-10.203,145,2.302,171.862,8.736c-8.075-6.63-17.421-12.383-20.559-13.429c-4.5-1.5-7.75-4.25-7.75-5.25
			s-1-2.25-14.5-13.25S398.75,233,395.5,232s-11.75-1.25-14-1.25s-1-1-1-1s3.25-0.75,4-3s-2.5-5.25-4.25-7.75s-9-3.5-10.75-4
			s-4.5-1.5-9.75-1.25s-31.625,6.75-35,6.75s-3,1.125-4.375,1.25s-0.625-0.625-0.5-1.75s-1.5-3-3.375-7.375s-7-7.5-8-8.25
			s-1-1.25-0.625-1.75s0.625-2.5,0.25-4S305.875,197,305.25,197s-1.875,0.125-2.125-0.75s-0.5-1.25-2-1.25s-5.375,0-6.5,0
			s-0.5,3-0.5,3s-1.625,0-3.625,0s-2.375,1.5-2.375,3.125s2.125,3.5,4,4s3.25,5.5,4.5,8.25s3.5,5.75,3.5,7.875
			s-1.375,2.25-1.375,2.25s-2.5,0-16.625,0s-15.875,7.875-15.875,9.375s0,7.375,0,9.375s-2.375,3.75-4.5,4.375s-3,2.375-3,2.375
			s-24.25,0-40.25,0s-33.875-13-36.5-16.25s-6-4.875-8.25-4.875s-16.75,0.375-22.625,0s-9.375-3.5-11.75-4.875
			s-7.5-4.125-10.5-4.125s-21.625,0-26.5,0s-7,2-7.75,2.875s-5.125,1.25-7.25,0.375s-5-0.875-9.25-0.875s-3,3.5-2.5,4.375
			s3.875,3.75,6.25,5.5s4.25,2.125,6.75,1.875s3.75,1,5,1.125s8.125,9.125,9.5,11s1.75,2.25,3.375,2.25s2.333,1.375,2.417,2.125
			c0.083,0.75-4.667,2.75-8.25,5.083C97.083,256.917,71,279.833,70,280.75c-1,0.917-0.5,1.417-6.083,1.417
			c-17.712,0-27.92,3.518-33.74,6.833H177z"/>
		<path d="M487.25,292.5c-0.75-2.75-3-1.75-4.25-3.25c-0.088-0.106-0.183-0.212-0.273-0.318
			c-13.121-3.722-88.122-23.222-180.007-11.29c-36.305,4.715-52.156,8.614-63.73,11.462C223.534,292.905,215.021,295,177,295H8.808
			c-0.46,0.285-0.558,0.865-0.558,2c0,1.061-0.25,4.625,0,5.625S9.5,304,10.5,304s5.25,0,7.75,0s2.25,3,2.25,4.75s3,1.5,3,2.25
			s0,8.5,0,11.5s4.75,3.75,4.75,4.5s0,6.25,0,6.25s-1.25,0-3,0s-1.75,1.25-1.75,3s0,8,0,9.25s0.375,2.5,2,2.5
			c5.625,0,5.75,1.5,7.25,1.5c4.5,0,5.25,1.5,6,2.75s2.5,1,5.5,1c0,0,109-1.5,117-1.75s10,0.75,13.75,2.25s7.75,1.5,7.75,1.5
			s96-2.25,151.75-2.25s89.25-19.25,94.5-20.5s8.25-4.25,11.25-7.75s7-2.25,9.5-2.25s4.5-2.75,6.25-6.5s19-14.5,21-15.75s2,2,3,2.25
			s2.25,0,5.75-0.75S488,295.25,487.25,292.5z"/>
	</g>
</g>
<g id="Layer_2">
</g>
</svg>
