<?xml version="1.0" encoding="utf-8"?>
<!-- Generator: Adobe Illustrator 19.1.0, SVG Export Plug-In . SVG Version: 6.00 Build 0)  -->
<svg version="1.1" xmlns="http://www.w3.org/2000/svg" xmlns:xlink="http://www.w3.org/1999/xlink" x="0px" y="0px" width="500px"
	 height="500px" viewBox="0 0 500 500" style="enable-background:new 0 0 500 500;" xml:space="preserve">
<g id="Layer_1">
	<g>
		<path d="M369.553,148.814c1.852,5.141,1.502,9.755,0.031,12.991c-0.873-3.524-5.052-14.13-8.034-21.068
			C364.617,142.182,368.058,144.663,369.553,148.814z M311.442,108.551c-1.096-0.961-2.734-2.022-4.244-0.784
			c-1.51,1.238-5.057,6.959-6.642,17.447c-1.585,10.487,5.163,10.792,7.172,9.559c2.01-1.234,5.787-4.453,5.787-4.453l8.636,14.071
			c0,0-2.764,1.728-10.286,4.417c-7.522,2.689-7.605,12.939-7.605,12.939s-3.498-0.278-5.502,0.205
			c-2.004,0.484-4.762,1.461-4.292,5.215c0.189,1.509,1.224,3.26,3.974,3.282c2.75,0.022,6.258-0.949,6.258-0.949
			s0.478,2.754,1.979,2.516c1.502-0.238,5.248,0.293,6.235,1.801c0.988,1.508,9.354,18.077,9.354,18.077l3.996,0.532l-2.012,1.484
			c0,0,7.366,16.56,8.825,21.572s4.143,44.035,3.578,52.031s-2.105,12.983-1.134,16.491s4.382,14.536,4.382,14.536
			s-3.561,7.471-9.654,18.922s-22.581,9.817-22.581,9.817c-22.999-0.187-37.958-5.308-45.413-10.869
			c-12.01-8.958-10.211-35.584-5.671-40.547c4.541-4.963,3.057-6.975,1.057-6.992c-2-0.016,0.533-3.996,0.533-3.996
			s8.471,3.569,12.496,0.602c7.813-5.762,6.674-21.447,0.751-30.995s-15.377-15.125-19.357-17.658
			c-3.979-2.532-9.975-3.081-15.983-2.13c-60.002,9.5-86.44-7.702-92.408-11.751c-5.967-4.049-10.459-5.085-14.971-3.622
			s-25.088,10.797-30.617,14.252c-5.528,3.455-8.585,10.431-7.109,13.443s2.463,4.52,2.463,4.52s-10.552,6.415-14.577,9.382
			s-9.548,5.923-12.573,8.898c-3.024,2.976-4.528,3.463-7.536,4.439c-3.008,0.976-21.133,16.329-23.649,18.309
			c-2.516,1.98-9.077,9.427-7.077,9.443s10.459,5.085,10.459,5.085s-20.271,33.337-23.815,38.808
			c-3.545,5.471-3.565,7.971,0.947,6.508c4.512-1.463,8.52-2.431,10.032-3.919c1.512-1.488,12.134-16.402,13.658-19.39
			c1.524-2.988,3.016-1.976,5.516-1.955c0.444,0.004,4.706,0.686,11.478,1.809c-15.484,10.64-25.725,28.407-25.888,48.576
			c-0.266,32.807,26.208,59.714,59.016,59.981c0.164,0.001,0.325,0.002,0.489,0.002c26.551,0,49.153-17.516,56.757-41.663
			c22.038-2.097,42.752-4.029,44.127-4.018c3,0.024,0.581-9.996,3.081-9.975c1.911,0.016,7.31,0.934,10.423,1.372
			c1.597,2.501,3.062,4.79,4.015,6.245c2.963,4.524,7.979,2.565,7.979,2.565s90.52-2.015,102.019-1.922s13.744,0.862,22.294-5.319
			c8.55-6.181,22.686-22.817,22.686-22.817l0.236,1.752l12.848,0.506c-1.912,5.586-2.945,11.499-2.995,17.574
			c-0.248,30.602,24.446,55.7,55.048,55.949c0.153,0.001,0.305,0.002,0.458,0.002c30.394,0,55.243-24.601,55.491-55.05
			c0.12-14.824-5.54-28.808-15.937-39.375c-4.784-4.862-10.312-8.719-16.325-11.493c9.545-0.57,17.43-0.754,19.43-0.738
			c4.5,0.036,5.496,0.545,3.535-4.221c-4.599-11.174-18.077-21.397-18.077-21.397s0.758-0.994-2.439-7.52
			c-3.197-6.526-8.183-8.317-17.164-10.64s-18.239-1.398-19.753,0.34c-1.514,1.738-2.758,0.978-4.258,0.965
			c-1.5-0.012-3.008,0.976-4.508,0.963c-1.5-0.012-0.492-1.004,4.041-4.967c4.533-3.963,1.075-9.242,0.096-11.75
			c-0.98-2.508-6.893-13.306-7.618-16.312s-6.39-13.552-12.315-22.851c-5.924-9.298-25.737-32.46-27.96-35.728
			c-2.224-3.268-2.726-3.022-3.976-3.032c-1.25-0.01-4.012,1.468-6.27,2.449c-2.258,0.982-4.264,1.715-5.004,0.459
			c-0.74-1.256-0.982-2.258,2.272-2.732c3.254-0.474,13.526-3.14,16.534-4.116c0.294-0.095,0.528-0.236,0.734-0.399l0.119,0.192
			c5.814-3.606,9.625-13.019,5.658-24.031c-3.885-10.786-15.892-13.374-18.188-13.775c-2.054-1.259-5.222-1.567-9.498-2.16
			c-5.744-0.797-12.851-0.352-14.001,0.136c-4.76,2.019-8.851,12.429-8.851,12.429l-9.374-15.577c0,0,2.752-0.228,2.278-3.482
			S316.375,112.875,311.442,108.551z M89.913,394.512c-0.1,0-0.201-0.001-0.301-0.002c-20.125-0.163-36.365-16.67-36.202-36.796
			c0.162-20.025,16.504-36.203,36.494-36.203c0.1,0,0.201,0.001,0.301,0.002c9.26,0.075,17.692,3.616,24.087,9.372
			c-5.139,0.962-9.922,1.877-14.118,2.694c-3.094-1.301-6.486-2.037-10.051-2.066c-14.635-0.119-26.595,11.649-26.714,26.284
			c-0.119,14.635,11.649,26.595,26.284,26.714c5.644,0.046,10.886-1.682,15.209-4.654c4.325-0.418,9.552-0.922,15.273-1.472
			C113.606,388.112,102.483,394.512,89.913,394.512z M140.21,326.221c-0.791-1.246-1.626-2.467-2.514-3.658
			c4.276,0.701,8.416,1.375,12.337,2.007C146.799,325.1,143.509,325.654,140.21,326.221z M428.89,397.764
			c-0.097,0-0.196-0.001-0.293-0.002c-19.574-0.158-35.369-16.213-35.21-35.787c0.158-19.478,16.052-35.212,35.494-35.212
			c0.097,0,0.196,0.001,0.293,0.002c19.574,0.158,35.369,16.213,35.21,35.787C464.226,382.029,448.332,397.765,428.89,397.764z"/>
		<circle cx="428.885" cy="362.263" r="26.5"/>
	</g>
</g>
<g id="Layer_2">
</g>
</svg>
