<?xml version="1.0" encoding="utf-8"?>
<!-- Generator: Adobe Illustrator 19.1.0, SVG Export Plug-In . SVG Version: 6.00 Build 0)  -->
<svg version="1.1" xmlns="http://www.w3.org/2000/svg" xmlns:xlink="http://www.w3.org/1999/xlink" x="0px" y="0px" width="500px"
	 height="500px" viewBox="0 0 500 500" style="enable-background:new 0 0 500 500;" xml:space="preserve">
<g id="Layer_1">
	<path d="M490.565,320.238c-2.226-1.214-8.438-0.352-12.657-0.703c-4.219-0.352-5.315-1.397-8.479-3.155
		c-3.165-1.758-5.936,1.397-5.584,4.913c0.351,3.516-1.758,11.251-3.516,13.36c-1.758,2.109-20.472,14.115-20.472,14.115
		l-0.273,0.437c-5.581-0.036-20.166-0.115-27.125-0.134c-0.911-2.196-1.84-4.952-1.84-6.909c0-2.841-0.521-12.633-7.237-19.348
		c-0.503-0.503-1.106-1.02-1.775-1.542c-0.195-3.338-0.437-6.727-0.649-9.505c2.552-0.655,6.48-2.82,8.392-4.413
		c2.109-1.758,7.031-6.68,11.602-8.086c4.571-1.406,10.547-7.735,11.603-9.493c1.055-1.758,3.867-13.009,3.516-15.821
		s-2.461-2.109-4.571-1.758c-2.109,0.352-2.461,3.867-2.461,8.086c0,4.219-4.219,0.703-5.977-2.109
		c-1.758-2.813-1.758-5.625-1.758-7.383s3.165,1.406,5.274,1.758c2.109,0.352-1.406-5.625-2.813-8.086
		c-1.406-2.461-15.821-16.525-21.447-21.095c-2.048-1.665-6.617-4.87-11.597-8.44c-0.031-0.208-0.076-0.414-0.16-0.61
		c-0.195-0.521-0.591-2.882-0.94-4.966c-0.401-2.394-0.901-5.374-1.552-8.624c-0.302-1.509-0.811-2.92-1.475-4.194
		c-2.658-9.234-12.775-19.765-20.931-27.063c-7.342-6.568-10.553-14.773-10.585-14.855c-1.132-2.944-3.182-5.193-5.624-6.17
		c-1.813-0.725-3.96-1.617-6.787-2.792l-4.26-1.768c-3.2-1.324-6.036-0.758-8.433,1.679l-0.093,0.094
		c-0.491,0.491-0.979,1.232-1.868,2.609c-0.742,1.147-1.583,2.448-2.343,3.376c-2.258,2.761-1.599,5.718,0.073,7.473
		c0.75,1.017,5.071,8.085,9.107,14.796c0.58,1.702-1.14,3.046-3.202,3.046c-2.109,0-5.625-3.516-7.383-5.274
		c-1.758-1.758-5.625-6.328-7.032-6.328s-4.219,0-5.977-0.352c-1.758-0.352-5.273-3.516-6.68-4.922
		c-1.406-1.406-2.109-3.516-2.461-5.977c-0.352-2.461-3.516-5.977-5.625-5.274s-3.867-3.164-5.625-3.164
		c-1.758,0-4.571,2.813-6.68,3.867c-2.11,1.055-1.758,3.516-2.11,4.571c-0.352,1.055-3.516,3.164-5.625,4.219
		c-2.11,1.055,0,3.867,2.109,5.625s3.867-1.758,5.977-2.461c2.109-0.703,3.867,2.461,3.867,2.461l5.274,11.251l-3.164,2.461
		c0,0-0.704-1.758-1.758-2.109c-1.055-0.352-4.57,0.703-6.68,1.055c-2.109,0.352-6.68,4.571-7.735,4.922s3.165,3.164,0.352,3.867
		c-2.812,0.703-1.758,2.109-5.977,4.571c-4.219,2.461-13.711,12.657-15.821,14.767c-2.109,2.109-5.625,5.274-5.625,3.867
		c0-1.406-2.461-1.406-4.219-1.406s-58.363-0.352-71.02-0.703c-12.657-0.352-23.557-4.219-27.775-7.383
		c-4.219-3.164-6.329-2.461-9.142-2.109c-2.812,0.352-20.743,1.406-22.853,1.406c-2.11,0-0.704,3.516-0.704,3.516
		s-24.962-0.703-28.478-0.703c-3.516,0-4.219,0.703-4.219,2.461s-2.109,2.109-5.977,2.109c-3.867,0-3.867,2.813-4.219,4.571
		s-4.219,13.36-4.922,16.173c-0.703,2.813-3.516,1.406-4.922,3.516c-1.406,2.11,1.406,3.516,2.109,4.571
		c0.704,1.055-1.758,2.813-5.273,3.516c-3.516,0.703-3.165,5.977-4.571,7.032c-1.406,1.055-8.086,1.055-10.547,1.406
		s-7.032,2.109-9.493,3.516c-2.461,1.406,1.055,2.109,4.571,2.109c3.516,0,3.516,2.109,3.516,2.109s-1.758,2.461-2.461,4.219
		s-7.735,10.196-10.547,15.821s-7.383,14.767-11.954,18.634c-4.57,3.867-4.219,4.571,0.703,4.571
		c4.922,0,14.767-7.032,17.931-10.899c3.164-3.867,13.36-24.259,16.524-28.83s7.383,0,9.141,0s17.931,10.548,26.721,15.47
		c4.496,2.518,8.253,3.928,11.606,4.85l-2.609,1.713l3.915,5.962c-1.334,0.862-2.783,1.799-4.299,2.782l-4.274-5.937l-3.21,2.311
		l4.162,5.782c-1.802,1.17-3.629,2.36-5.406,3.52l-4.905-5.453l-2.941,2.645l4.497,5c-2.243,1.472-4.292,2.826-5.941,3.932
		l-4.404-4.897l-2.941,2.645l4.055,4.508c-0.233,0.168-0.431,0.314-0.558,0.415c-1.219,0.976-2.864,2.904-4.179,5.39l-5.473-2.812
		l-1.808,3.518l5.782,2.971c-0.676,2.312-0.922,4.868-0.359,7.491l-5.167,1.081l0.81,3.872l5.677-1.187
		c1.359,2.914,3.192,5.162,5.493,6.729l-3.149,5.38l3.413,1.998l3.291-5.621c1.857,0.63,3.919,0.958,6.198,0.958h2.109v5.806h3.955
		v-5.806h6.329v5.806h3.956v-5.806h5.273v5.806h3.956v-5.806h5.274v5.806h3.955v-5.806h5.274v5.806h3.955v-5.806h5.274v5.806h3.956
		v-5.806h5.273v5.806h3.956v-5.806h5.274v5.806h3.955v-5.806h5.274v5.806h3.955v-5.806h5.274v5.806h3.956v-5.806h5.273v5.806h3.956
		v-5.806h5.274v5.806h3.955v-5.806h5.274v5.806h3.955v-5.806h5.274v5.806h3.956v-5.806h5.273v5.806h3.956v-5.807
		c1.578-0.003,3.325-0.028,5.273-0.147v5.953h3.956v-6.319c1.629-0.202,3.38-0.483,5.274-0.877v5.35h3.955v-6.292
		c1.659-0.441,3.417-0.972,5.274-1.597v5.648h3.956v-7.065c1.673-0.643,3.443-1.384,5.273-2.191v6.224h3.956v-8.042
		c0.28-0.134,0.545-0.252,0.83-0.39c1.483-0.722,2.967-1.47,4.444-2.232v5.038h3.955v-7.125c1.785-0.962,3.547-1.936,5.274-2.913
		v5.116h3.955v-7.39c1.823-1.065,3.588-2.118,5.274-3.141v6.268h3.955v-8.701c1.918-1.195,3.688-2.32,5.274-3.343v3.255h3.956
		v-3.905c4.267-0.338,8.396-0.646,11.954-0.138c7.383,1.055,12.306-1.055,22.15-1.055c9.845,0,22.853-2.11,24.26-2.461
		c1.406-0.352,24.962,1.055,26.369,1.055c0.157,0,0.541-0.118,1.085-0.32c1.934,2.457,4.003,5.075,5.919,7.473
		c-0.047,1.667,0.062,3.37,0.383,5.086c1.437,7.662,4.07,11.195,5.336,12.894c0.185,0.247,0.341,0.45,0.451,0.628
		c0.098,0.156,0.203,0.316,0.313,0.484c0.252,0.383,0.503,0.779,0.717,1.241c-7.416-0.092-14.421-0.188-17.369-0.188
		c-5.625,0-16.525,5.274-19.337,5.274s-17.579-2.109-23.205-2.813c-5.625-0.703-5.625,0-5.625,0
		c15.47,5.625,31.643,8.79,36.565,8.79c4.922,0,42.541,0.703,50.979,0.703c8.438,0,24.611-0.352,27.072-0.352
		c2.461,0,26.017-12.305,34.104-17.579c8.087-5.274,9.493-7.032,13.36-10.899C491.972,327.973,494.433,322.348,490.565,320.238z
		 M123.357,302.509c3.208,0.442,6.741,0.927,10.529,1.444l2.799,1.861l-37.733,26.66l0.139,0.196c-1.175,0-2.098,0-2.652,0
		c-0.348,0-0.853,0.035-1.479,0.099c-1.479-5.917-6.787-10.31-13.146-10.376c6.982-4.608,17.858-11.653,25.895-16.825
		C110.293,304.255,115.017,303.082,123.357,302.509z M208.303,334.665l0.399,0.279c-0.344,0.621-0.622,1.282-0.829,1.975
		c-1.367,0.037-3.455,0.061-6.002,0.074c-0.251-0.593-0.559-1.155-0.91-1.687c0.665-0.495,1.249-1.08,1.714-1.777
		c1.192-1.788,2.676-4.013,2.142-6.558c-0.312-1.488-1.265-2.777-2.667-4.026l13.174-7.94c2.145,0.292,4.198,0.572,6.137,0.837
		L208.303,334.665z M165.525,336.889c-3.956,0-26.105,0-28.215,0c-2.11,0-7.383-4.219-12.394-4.219c-2.903,0-10.761,0-17.578,0
		l33.812-23.889c26.512,17.591,37.333,24.385,41.897,27.027c-0.219,0.376-0.423,0.761-0.595,1.164
		C174.384,336.938,167.225,336.889,165.525,336.889z M199.924,327.998c0.104,0.491-0.956,2.079-1.408,2.758
		c-0.28,0.419-0.767,0.765-1.391,1.048c-1.48-0.792-3.17-1.244-4.967-1.244c-1.371,0-2.677,0.27-3.878,0.746l9.312-5.613
		C199.521,327.094,199.873,327.754,199.924,327.998z M157.025,307.102c5.429,0.736,11.003,1.492,16.572,2.246
		c4.974,3.458,13.797,9.566,19.385,13.284l-11.084,6.681c-7.917-4.935-22.357-14.37-34.339-22.288L157.025,307.102z
		 M197.728,319.771c-3.142-2.045-8.352-5.601-13.206-8.945c8.01,1.085,15.798,2.139,22.897,3.104L197.728,319.771z M262.761,334.265
		c-0.136-1.286-0.719-2.655-2.279-3.601c0.308-0.586,0.499-1.242,0.499-1.949c0-2.33-1.889-4.219-4.219-4.219
		c-2.168,0-3.934,1.642-4.171,3.747c-1.342-0.16-2.383-0.013-3.476,0.472c-2.373,1.055-4.483,2.901-5.01,6.065
		c-0.527,3.164-7.911,4.483-10.811,4.483c-2.067,0-4.256,0-5.828,0c-0.27-5.173-4.454-9.3-9.651-9.476l9.215-13.182
		c5.459,0.75,9.581,1.325,11.802,1.65c14.415,2.109,31.643,4.922,40.081,5.977c0.312,0.039,0.629,0.064,0.944,0.094
		C274.86,327.42,268.947,330.927,262.761,334.265z M97.999,298.458c2.717,0.676,5.182,1.065,7.581,1.514
		c0.309,0.058,0.956,0.16,1.871,0.297c-0.782,0.284-1.514,0.584-2.147,0.913l-0.198,0.115c-0.552,0.355-1.878,1.209-3.683,2.374
		L97.999,298.458z M396.892,333.698c-0.132,0.578-0.27,0.942-0.375,1.163c-0.316-0.178-0.875-0.575-1.698-1.447
		c-0.813-0.861-2.821-3.306-5.336-6.44c0.249-2.263,0.827-4.444,1.551-6.436c2.015,1.088,4.02,2.256,5.707,3.386
		C397.004,328.943,397.096,332.757,396.892,333.698z M393.065,315.95c0.298-0.571,0.594-1.106,0.88-1.599
		c0.75-0.325,1.46-0.629,2.123-0.907c0.108,1.472,0.21,2.933,0.305,4.359C395.277,317.16,394.158,316.537,393.065,315.95z
		 M372.081,219.108c0-1.651-0.543-3.687-1.119-5.494c2.952,0.697,5.721,1.335,7.133,1.618c1.488,0.297,2.875,1.51,3.858,3.223
		c0.001,0.006,0.004,0.013,0.005,0.019l0.004-0.001c0.542,0.949,0.965,2.045,1.203,3.236c0.635,3.173,1.127,6.11,1.522,8.47
		c0.024,0.147,0.047,0.279,0.07,0.419C378.038,225.63,372.081,220.837,372.081,219.108z M339.574,192.065
		c-9.292-15.474-9.953-16.139-10.201-16.388c-0.16-0.161-0.299-0.299,0.167-0.869c0.938-1.145,1.898-2.633,2.672-3.828
		c0.432-0.669,1.024-1.585,1.204-1.787l0.122-0.125c0.671-0.681,1.253-1.271,2.956-0.565l4.254,1.765
		c2.853,1.186,5.019,2.085,6.849,2.817c1.137,0.455,2.188,1.697,2.814,3.323c1.242,3.23,5.331,10.895,11.917,16.787
		c6.832,6.113,12.093,11.862,15.498,16.868c-2.233-0.489-5.86-1.346-9.155-2.135c-1.149-1.066-3.163-2.544-5.028-4.641
		c-2.812-3.164-5.977-6.329-10.196-7.735C350.223,194.477,343.72,192.585,339.574,192.065z M383.225,319.094
		c0.847-0.372,1.746-0.77,2.674-1.182c0.212,0.103,0.425,0.207,0.645,0.315c-0.434,1.14-0.833,2.339-1.167,3.592
		C384.666,320.921,383.945,320.008,383.225,319.094z M395.019,344.914c-0.087-0.133-0.172-0.261-0.249-0.385
		c-0.17-0.271-0.4-0.588-0.683-0.966c-0.914-1.226-2.47-3.315-3.676-7.582c0.31,0.359,0.573,0.654,0.773,0.866
		c0.786,0.832,2.979,3.153,5.591,3.153c0.374,0,0.756-0.047,1.143-0.153c1.913-0.522,3.208-2.219,3.85-5.041
		c0.214-0.944,0.252-3.103,0.185-5.844c2.665,4.083,3.668,9.253,3.668,13.201c0,2.177,0.682,4.701,1.471,6.897
		c-3.015-0.015-6.588-0.05-10.271-0.092C396.408,347.035,395.6,345.796,395.019,344.914z M486.61,328.84
		c-1.234,1.437-8.702,7.922-13.272,10.383c-4.57,2.461-18.985,9.493-21.798,9.844c-0.789,0.099-2.793,0.142-5.486,0.153l0.844-0.594
		c1.758-0.703,6.196-4.929,14.135-10.459c7.125-4.963,5.51-11.584,5.862-14.748c0.352-3.164,1.521-3.534,4.686-1.776
		c3.164,1.758,6.157,2.058,12.306,1.406C489.829,322.421,488.28,326.895,486.61,328.84z"/>
</g>
<g id="Layer_2">
</g>
</svg>
