<?xml version="1.0" encoding="utf-8"?>
<!-- Generator: Adobe Illustrator 19.1.0, SVG Export Plug-In . SVG Version: 6.00 Build 0)  -->
<svg version="1.1" xmlns="http://www.w3.org/2000/svg" xmlns:xlink="http://www.w3.org/1999/xlink" x="0px" y="0px" width="500px"
	 height="500px" viewBox="0 0 500 500" style="enable-background:new 0 0 500 500;" xml:space="preserve">
<g id="Layer_1">
	<g>
		<path d="M329.076,106.097c-2.588,1.294-2.269,9.706-0.518,10.61c8.022,4.14,16.044,9.833,27.947,21.995
			c13.882,14.183,24.324,33.64,25.359,34.934c1.035,1.294,8.022,3.105,10.351,0.259c2.329-2.846-5.693-18.114-23.807-40.109
			S331.664,104.803,329.076,106.097z"/>
		<path d="M348.484,150.864c-7.102-6.606-22.388-22.628-37.263-28.206c-2.07-0.776-3.364,1.811-3.364,3.623s1.294,5.952-1.811,5.175
			c-3.105-0.776-9.316-2.07-11.645,1.035c-2.329,3.105-2.07,5.434-2.07,7.504s0.518,5.952-7.504,8.539
			c-8.022,2.588-10.092,1.294-21.478,12.162c-11.386,10.868-39.333,37.263-39.333,37.263l0.606,0.626
			c-4.586-3.43-8.764-5.823-11.992-6.319c-13.456-2.07-21.995,5.693-21.995,5.693s-8.798-5.693-9.574-5.693
			s-10.868,2.07-10.868,2.07l-24.324,23.289l10.61,15.267c0,0,0.776,2.329-1.294,2.329s-11.072,7.394-14.75,14.75
			c-0.518,1.035-1.063,1.214-3.623-0.776c-2.329-1.811-4.14-4.917-7.246-2.329c-3.105,2.588-48.649,45.802-48.649,45.802
			s-2.588,1.553-1.035,3.882c1.553,2.329,14.232,16.044,14.232,16.044s3.623,4.14-0.776,7.504c-2.907,2.223-3.623,4.14-7.763,0.776
			s-9.057-10.351-12.162-13.197c-3.105-2.846-7.763-2.329-11.645,0.518s-4.658,9.833,0.776,15.526s23.548,27.171,47.355,49.425
			s50.418,46.123,54.6,49.425c4.917,3.882,14.232,8.539,19.149,2.846c4.57-5.291,1.294-10.868-2.588-15.009
			c-2.854-3.044-9.833-10.868-10.61-11.127c-0.776-0.259,0-2.329,1.811-3.882c1.811-1.553,2.07-3.364,4.399-2.07
			c2.329,1.294,9.316,9.574,15.009,14.232c2.549,2.086,4.399,2.846,7.504,0.259c3.105-2.588,38.039-36.745,40.886-39.074
			c2.846-2.329,2.846-6.21,1.811-7.763c-1.035-1.553-5.952-7.246-4.14-7.246c1.811,0,8.022-0.776,11.645-4.399
			c3.623-3.623,4.917-10.61,4.917-10.61s1.035-1.811,3.105,0c2.07,1.811,19.925,11.386,19.925,11.386l27.43-26.395l-10.351-16.302
			c0,0,9.465-10.545,8.022-19.925c-0.734-4.768-1.703-9.25-6.173-16.06c4.9-4.717,41.006-39.475,43.177-41.645
			c2.329-2.329,7.763-8.798,9.316-14.232c1.553-5.434,3.882-7.504,6.987-7.504c3.105,0,4.619,1.236,6.728-1.294
			c5.175-6.21-0.776-9.574,2.846-12.421s7.246-1.294,8.798-2.588C375.655,190.456,370.738,171.566,348.484,150.864z M115.159,330.45
			l-10.177-10.748l49.231-47.992l9.941,10.498L115.159,330.45z M230.04,257.194c-0.62,1.082-11.782,11.253-13.228,12.984
			c-1.447,1.731-3.101,2.597-5.581,1.082c-2.48-1.515-22.943-20.125-27.697-25.102s-14.136-16.696-15.169-18.86
			c-1.033-2.164,1.447-4.761,1.447-4.761s12.062-11.586,14.469-13.633c3.307-2.813,5.788,0.433,5.788,0.433
			s6.075,4.145,16.616,13.883c10.916,10.084,21.703,23.155,23.976,26.184C232.934,252.433,230.66,256.112,230.04,257.194z"/>
		<path d="M487.214,34.418c-2.324-4.316-6.79-11.197-18.26-16.933c-6.64-3.32-12.617-2.324-16.601,0.664
			c-3.984,2.988-14.393,7.67-16.601,14.608c-2.324,7.304-2.656,9.296-6.972,12.616c-3.431,2.639-12.676,2.258-15.605,4.98
			c-3.363,3.126-11.126,10.199-11.126,10.199s8.971,1.38,22.479,14.349c11.56,11.099,15.5,20.629,16.164,23.949l11.214-9.661
			c0,0,3.435-3.975,3.435-9.951c0-4.66,3.984-7.636,8.632-7.968c3.703-0.264,6.972-0.996,9.628-2.656
			c2.656-1.66,11.691-13.357,14.609-19.921C489.538,45.707,489.538,38.734,487.214,34.418z"/>
		<path d="M351.09,89.532c-4.316-1.992-6.308,1.328-6.308,2.988c0,1.66,0,6.308,0,6.308s11.952,6.64,28.221,21.581
			c17.811,16.357,25.897,34.529,25.897,34.529s9.628,3.652,10.957,0.332c1.328-3.32-4.98-21.249-26.561-42.498
			C366.887,96.618,355.406,91.524,351.09,89.532z"/>
		<path d="M418.82,82.56c-12.284-11.288-19.589-16.933-34.197-19.257c-14.608-2.324-21.913,10.292-21.913,10.292
			s-1.992,8.632,0,8.632s17.597,10.292,31.873,23.241c14.276,12.948,22.577,33.533,22.577,33.533s2.656,0.996,5.644,2.324
			c2.988,1.328,10.957-7.968,15.273-18.925C443.173,109.464,426.601,89.71,418.82,82.56z"/>
		<path d="M62.285,426.195c-14.491-13.974-34.158-39.592-34.158-39.592L17,395.402c0,0,20.443,26.653,35.193,41.662
			c7.764,7.9,17.604,17.232,25.187,24.301c-2.368,3.264-10.827,13.27-24.928,12.185c-16.82-1.294-27.171-17.338-27.171-17.338
			l-7.246,7.246l11.127,13.197c0,0,9.149,7.648,22.772,9.316c12.68,1.553,33.123-8.539,39.074-15.267
			c0.016-0.018,0.026-0.036,0.042-0.054l9.791-8.486C100.841,462.164,76.776,440.169,62.285,426.195z"/>
		<path d="M34.855,454.66c1.92-1.396,4.895-2.79,6.87-3.551c5.25,4.154,11.012,6.886,13.314,7.174
			c4.14,0.518,8.022-2.846,8.539-4.917c0,0-16.82-10.868-30.276-30.535c-1.169-1.709-5.952,2.07-5.952,5.952
			c0,3.407,3.254,9.953,7.492,15.395c-0.491,1.529-1.641,4.63-3.352,6.342C29.162,452.849,32.009,456.73,34.855,454.66z"/>
		<path d="M66.025,340.408c-1.217-1.208-3.184-1.2-4.391,0.017c-1.209,1.218-1.201,3.184,0.016,4.392
			c0.343,0.34,34.786,34.462,83.712,77.752c0.591,0.523,1.325,0.78,2.057,0.78c0.858,0,1.713-0.354,2.327-1.048
			c1.136-1.284,1.016-3.247-0.268-4.383C100.694,374.753,66.365,340.747,66.025,340.408z"/>
		<path d="M57.485,349.983c-1.217-1.208-3.184-1.2-4.391,0.017c-1.209,1.218-1.201,3.184,0.016,4.391
			c0.343,0.34,34.786,34.462,83.712,77.752c0.591,0.523,1.325,0.78,2.057,0.78c0.858,0,1.713-0.354,2.327-1.048
			c1.136-1.284,1.016-3.247-0.268-4.383C92.154,384.328,57.826,350.322,57.485,349.983z"/>
		<path d="M48.946,359.557c-1.217-1.208-3.184-1.2-4.391,0.017c-1.209,1.218-1.201,3.184,0.016,4.392
			c0.343,0.34,34.786,34.462,83.712,77.752c0.591,0.523,1.325,0.78,2.057,0.78c0.858,0,1.713-0.354,2.327-1.048
			c1.136-1.284,1.016-3.247-0.268-4.383C83.615,393.902,49.287,359.896,48.946,359.557z"/>
		<path d="M40.407,369.132c-1.217-1.208-3.184-1.2-4.391,0.017c-1.209,1.218-1.201,3.184,0.016,4.392
			c0.343,0.34,34.786,34.462,83.712,77.752c0.591,0.523,1.325,0.78,2.057,0.78c0.858,0,1.713-0.354,2.327-1.048
			c1.136-1.284,1.016-3.247-0.268-4.383C75.076,403.477,40.747,369.471,40.407,369.132z"/>
		<path d="M31.867,378.706c-1.217-1.208-3.184-1.2-4.391,0.017c-1.209,1.218-1.201,3.184,0.016,4.392
			c0.343,0.34,34.786,34.462,83.712,77.752c0.591,0.523,1.325,0.78,2.057,0.78c0.858,0,1.713-0.354,2.327-1.048
			c1.136-1.284,1.016-3.247-0.268-4.383C66.536,413.051,32.208,379.045,31.867,378.706z"/>
	</g>
</g>
<g id="Layer_2">
</g>
</svg>
