<?xml version="1.0" encoding="utf-8"?>
<!-- Generator: Adobe Illustrator 19.1.0, SVG Export Plug-In . SVG Version: 6.00 Build 0)  -->
<svg version="1.1" xmlns="http://www.w3.org/2000/svg" xmlns:xlink="http://www.w3.org/1999/xlink" x="0px" y="0px" width="500px"
	 height="500px" viewBox="0 0 500 500" style="enable-background:new 0 0 500 500;" xml:space="preserve">
<g id="Layer_1">
	<path d="M484.498,255.469c6.559-1.441,11.994-1.674,11.969-6.69l0-0.086c-0.026-5.016-5.464-5.193-12.037-6.566
		c-9.112-1.904-11.15-5.332-12.422-12.634c-0.088-7.411,1.287-11.155,9.896-14.696c6.21-2.554,11.523-3.725,10.63-8.661
		l-0.015-0.085c-0.894-4.936-6.28-4.169-12.991-4.384c-9.304-0.298-11.905-3.322-14.421-10.293
		c-1.37-7.284-0.663-11.209,7.203-16.187c5.674-3.591,10.705-5.663,8.97-10.37l-0.03-0.081c-1.734-4.707-6.907-3.019-13.554-2.069
		c-9.215,1.317-12.3-1.211-15.985-7.642c-2.61-6.937-2.593-10.926,4.293-17.19c4.967-4.518,9.563-7.43,7.04-11.766l-0.043-0.075
		c-2.523-4.335-7.325-1.778-13.708,0.308c-8.848,2.892-12.324,0.937-17.066-4.76c-3.771-6.381-4.445-10.312,1.253-17.673
		c4.11-5.31,8.133-8.974,4.897-12.807l-0.056-0.066c-3.235-3.833-7.522-0.484-13.448,2.676c-8.214,4.38-11.976,3.055-17.632-1.734
		c-4.819-5.632-6.163-9.387-1.825-17.623c3.129-5.941,6.457-10.246,2.607-13.461l-0.066-0.055c-3.85-3.215-7.493,0.826-12.781,4.963
		c-7.332,5.736-11.266,5.082-17.666,1.344c-5.721-4.713-7.695-8.179-4.848-17.041c2.053-6.393,4.586-11.209,0.238-13.709
		l-0.075-0.043c-4.348-2.501-7.237,2.11-11.729,7.101c-6.229,6.918-10.217,6.956-17.167,4.382c-6.45-3.651-8.994-6.723-7.724-15.945
		c0.916-6.652,2.576-11.833-2.139-13.543l-0.081-0.029c-4.715-1.71-6.762,3.331-10.323,9.024c-4.937,7.892-8.859,8.619-16.15,7.287
		c-6.984-2.48-10.022-5.065-10.367-14.368c-0.249-6.71,0.49-12.101-4.451-12.969l-0.085-0.015c-4.94-0.868-6.083,4.451-8.606,10.674
		c-3.496,8.627-7.233,10.022-14.645,9.972c-7.308-1.234-10.747-3.254-12.698-12.356c-1.407-6.566-1.612-12.003-6.628-12.003h-0.086
		c-5.016,0-5.221,5.437-6.628,12.003c-2.144,10.003-6.071,11.457-14.973,12.708c-8.976,0.493-13.11-0.173-17.147-9.573
		c-2.65-6.17-3.903-11.464-8.824-10.495l-0.085,0.017c-4.921,0.97-4.072,6.344-4.183,13.058
		c-0.154,9.307-3.137,11.955-10.069,14.578c-7.262,1.482-11.198,0.836-16.297-6.952c-3.678-5.618-5.828-10.616-10.507-8.809
		l-0.081,0.031c-4.679,1.807-2.912,6.953-1.859,13.585c1.46,9.194-1.021,12.318-7.394,16.101
		c-6.896,2.716-10.884,2.761-17.254-4.027c-4.595-4.897-7.577-9.447-11.873-6.857l-0.074,0.045c-4.296,2.59-1.665,7.352,0.52,13.701
		c3.029,8.802,1.127,12.308-4.495,17.138c-6.321,3.869-10.242,4.604-17.69-0.98c-5.373-4.028-9.098-7.993-12.881-4.699l-0.065,0.057
		c-3.783,3.294-0.367,7.529,2.884,13.405c4.507,8.145,3.24,11.927-1.461,17.657c-5.556,4.905-9.291,6.307-17.593,2.097
		c-5.989-3.037-10.344-6.297-13.5-2.398l-0.054,0.067c-3.156,3.899,0.942,7.479,5.16,12.703c5.848,7.242,5.256,11.187,1.617,17.643
		c-4.624,5.793-8.059,7.82-16.965,5.111c-6.424-1.954-11.278-4.412-13.711-0.025l-0.042,0.076
		c-2.433,4.386,2.222,7.203,7.281,11.618c7.014,6.121,7.113,10.108,4.646,17.097c-3.551,6.505-6.583,9.097-15.824,7.97
		c-6.666-0.813-11.872-2.393-13.509,2.348l-0.028,0.082c-1.637,4.741,3.435,6.71,9.182,10.183c7.967,4.814,8.755,8.725,7.536,16.035
		c-2.372,7.022-4.91,10.099-14.206,10.588c-6.706,0.353-12.107-0.302-12.898,4.651l-0.014,0.085
		c-0.792,4.953,4.545,6.014,10.806,8.44c8.68,3.363,10.133,7.077,10.197,14.489c-1.12,7.326-3.088,10.796-12.158,12.887
		c-6.543,1.508-11.976,1.798-11.899,6.813l0.001,0.086c0.078,5.015,5.517,5.137,12.104,6.442c9.131,1.81,11.205,5.217,12.551,12.505
		c0.165,7.41-1.173,11.167-9.745,14.797c-6.183,2.618-11.484,3.844-10.54,8.77l0.016,0.085c0.944,4.926,6.323,4.104,13.036,4.25
		c9.307,0.202,11.939,3.199,14.526,10.144c1.445,7.27,0.778,11.202-7.036,16.261c-5.637,3.649-10.646,5.773-8.863,10.462
		l0.031,0.081c1.783,4.688,6.938,2.948,13.575,1.929c9.201-1.412,12.312,1.084,16.063,7.477c2.681,6.91,2.705,10.898-4.116,17.233
		c-4.92,4.569-9.486,7.529-6.918,11.838l0.044,0.074c2.567,4.309,7.343,1.703,13.704-0.449c8.818-2.983,12.314-1.063,17.115,4.584
		c3.836,6.341,4.551,10.266-1.071,17.685c-4.055,5.352-8.04,9.057-4.765,12.857l0.056,0.065c3.275,3.8,7.527,0.406,13.419-2.815
		c8.168-4.465,11.944-3.179,17.65,1.552c4.876,5.581,6.259,9.323,2.006,17.603c-3.068,5.973-6.351,10.312-2.468,13.487l0.067,0.055
		c3.883,3.176,7.484-0.903,12.729-5.095c7.272-5.811,11.214-5.198,17.652-1.526c5.769,4.653,7.778,8.099,5.023,16.991
		c-1.987,6.414-4.47,11.255-0.096,13.711l0.075,0.042c4.374,2.456,7.214-2.185,11.656-7.221c6.157-6.982,10.145-7.06,17.121-4.558
		c6.487,3.585,9.063,6.63,7.888,15.865c-0.847,6.661-2.455,11.859,2.278,13.521l0.082,0.029c4.733,1.661,6.728-3.4,10.23-9.13
		c4.855-7.942,8.77-8.71,16.074-7.453c7.01,2.408,10.073,4.962,10.515,14.26c0.319,6.707-0.365,12.105,4.584,12.922l0.085,0.014
		c4.949,0.817,6.038-4.513,8.495-10.762c3.407-8.663,7.129-10.096,14.541-10.123c7.321,1.158,10.78,3.143,12.824,12.225
		c1.475,6.551,1.736,11.985,6.752,11.934l0.086-0.001c5.016-0.052,5.165-5.49,6.504-12.07c1.856-9.122,5.274-11.178,12.57-12.487
		c7.41-0.126,11.161,1.23,14.747,9.821c2.586,6.197,3.784,11.504,8.715,10.585l0.085-0.016c4.931-0.919,4.137-6.301,4.317-13.014
		c0.25-9.305,3.26-11.922,10.219-14.474c7.277-1.407,11.206-0.72,16.224,7.12c3.62,5.656,5.718,10.675,10.416,8.917l0.081-0.03
		c4.698-1.759,2.984-6.922,1.999-13.565c-1.365-9.208,1.147-12.306,7.559-16.024c6.923-2.646,10.912-2.649,17.211,4.204
		c4.544,4.944,7.48,9.525,11.802,6.979l0.074-0.044c4.322-2.545,1.74-7.334-0.379-13.706c-2.938-8.833-1-12.319,4.672-17.091
		c6.361-3.804,10.289-4.498,17.679,1.162c5.331,4.083,9.015,8.086,12.832,4.831l0.066-0.056c3.816-3.255,0.445-7.525-2.745-13.434
		c-4.422-8.191-3.117-11.96,1.643-17.641c5.607-4.848,9.355-6.211,17.614-1.916c5.958,3.098,10.279,6.404,13.475,2.537l0.055-0.067
		c3.196-3.866-0.865-7.488-5.029-12.756c-5.773-7.302-5.14-11.24-1.435-17.659c4.683-5.745,8.139-7.737,17.016-4.936
		c6.404,2.021,11.232,4.528,13.71,0.167l0.043-0.075c2.478-4.361-2.147-7.226-7.161-11.693c-6.95-6.193-7.008-10.181-4.47-17.144
		c3.618-6.469,6.677-9.028,15.905-7.806c6.657,0.882,11.846,2.516,13.532-2.209l0.029-0.081c1.686-4.724-3.366-6.745-9.077-10.277
		c-7.917-4.896-8.664-8.814-7.37-16.112c2.444-6.997,5.014-10.048,14.314-10.441c6.709-0.284,12.103,0.427,12.946-4.518l0.014-0.085
		c0.843-4.945-4.482-6.061-10.719-8.551c-8.645-3.452-10.059-7.181-10.047-14.593C473.403,260.916,475.406,257.466,484.498,255.469z
		 M249.987,89.35c8.094,0,14.656,6.562,14.656,14.656c0,8.094-6.562,14.656-14.656,14.656s-14.656-6.562-14.656-14.656
		C235.331,95.912,241.893,89.35,249.987,89.35z M228.344,28.246h1.736c-1.085,0.096-2.172,0.187-3.253,0.299L228.344,28.246z
		 M90.878,173.552c17.81-37.005,48.16-66.827,85.461-83.975c12.796-5.883,27.938-0.278,33.82,12.519
		c1.586,3.449,2.337,7.071,2.337,10.635c0,9.653-5.509,18.889-14.855,23.185c-26.54,12.2-48.135,33.422-60.808,59.754
		c-6.107,12.689-21.346,18.026-34.036,11.919C90.107,201.481,84.769,186.246,90.878,173.552z M118.643,250.006
		c0,8.094-6.562,14.656-14.656,14.656s-14.656-6.562-14.656-14.656c0-8.094,6.562-14.656,14.656-14.656
		S118.643,241.912,118.643,250.006z M207.569,397.196c-6.107,12.69-21.342,18.028-34.036,11.919
		c-37.005-17.81-66.827-48.16-83.975-85.461c-5.883-12.796-0.278-27.938,12.519-33.82c3.449-1.586,7.071-2.337,10.635-2.337
		c9.653,0,18.889,5.509,23.185,14.855c12.2,26.54,33.422,48.135,59.754,60.808C208.34,369.268,213.677,384.506,207.569,397.196z
		 M249.987,410.662c-8.094,0-14.656-6.562-14.656-14.656c0-8.094,6.562-14.656,14.656-14.656s14.656,6.562,14.656,14.656
		C264.643,404.1,258.082,410.662,249.987,410.662z M249.987,344.662c-52.277,0-94.656-42.379-94.656-94.656
		c0-52.277,42.379-94.656,94.656-94.656s94.656,42.379,94.656,94.656C344.643,302.283,302.265,344.662,249.987,344.662z
		 M409.097,326.46c-17.81,37.005-48.16,66.827-85.461,83.975c-12.796,5.883-27.938,0.278-33.82-12.519
		c-1.586-3.449-2.337-7.071-2.337-10.635c0-9.653,5.509-18.889,14.855-23.185c26.54-12.2,48.135-33.422,60.808-59.754
		c6.107-12.689,21.346-18.026,34.036-11.919C409.868,298.532,415.205,313.766,409.097,326.46z M381.331,250.006
		c0-8.094,6.562-14.656,14.656-14.656s14.656,6.562,14.656,14.656c0,8.094-6.562,14.656-14.656,14.656
		S381.331,258.1,381.331,250.006z M397.898,210.178c-3.449,1.586-7.071,2.337-10.635,2.337c-9.653,0-18.889-5.509-23.185-14.855
		c-12.2-26.54-33.422-48.135-59.754-60.808c-12.689-6.107-18.026-21.346-11.919-34.036c6.107-12.69,21.342-18.028,34.036-11.919
		c37.005,17.81,66.827,48.16,83.975,85.461C416.299,189.154,410.694,204.296,397.898,210.178z"/>
</g>
<g id="Layer_2">
</g>
</svg>
