<?xml version="1.0" encoding="utf-8"?>
<!-- Generator: Adobe Illustrator 19.1.0, SVG Export Plug-In . SVG Version: 6.00 Build 0)  -->
<svg version="1.1" xmlns="http://www.w3.org/2000/svg" xmlns:xlink="http://www.w3.org/1999/xlink" x="0px" y="0px" width="500px"
	 height="500px" viewBox="0 0 500 500" style="enable-background:new 0 0 500 500;" xml:space="preserve">
<g id="Layer_1">
	<g>
		<path d="M477.047,22.619c0.056,0.056,0.11,0.116,0.165,0.172c0.057,0.056,0.116,0.109,0.172,0.165L477.047,22.619z"/>
		<path d="M439.086,112.208c0,0,7.255-7.255,12.654-12.654s4.387-8.773,3.712-12.823c-0.675-4.049,0.338-5.736,1.35-6.749
			c1.012-1.012,3.037-3.037,18.221-18.221c15.084-15.084,10.52-30.497,2.19-38.97c-8.473-8.33-23.886-12.894-38.97,2.19
			c-15.185,15.185-17.209,17.209-18.221,18.221s-2.699,2.025-6.749,1.35c-4.049-0.675-7.424-1.687-12.823,3.712
			s-12.654,12.654-12.654,12.654s11.07,2.687,29.862,21.428C436.399,101.138,439.086,112.208,439.086,112.208z M451.235,29.198
			c5.404-5.404,14.167-5.404,19.571,0c5.405,5.405,5.405,14.167,0,19.571c-5.404,5.404-14.167,5.404-19.571,0
			C445.83,43.364,445.83,34.602,451.235,29.198z"/>
		<path d="M400.213,176.854c-0.059-0.413-0.15-0.835-0.235-1.255c6.022-6.047,15.708-15.808,19.537-19.862
			c5.734-6.072,7.592-7.93,8.436-9.786c0.844-1.856,2.362-4.724,8.267-19.74c5.681-14.446-15.02-35.598-20.656-41.24l0.073,0.073
			c-0.029-0.029-0.067-0.068-0.098-0.098c-0.085-0.085-0.162-0.162-0.239-0.239c-0.077-0.077-0.155-0.155-0.239-0.239
			c-0.031-0.031-0.069-0.069-0.098-0.098l0.073,0.073c-5.641-5.636-26.794-26.338-41.24-20.656
			c-15.016,5.905-17.884,7.423-19.74,8.267c-1.856,0.844-3.714,2.702-9.786,8.436c-5.031,4.751-18.848,18.521-23.449,23.113
			c-2.188,1.008-4.179,2.878-5.51,5.335c-2.533,4.678-3.722,13.042,4.878,26.341l-1.608,1.608
			c-7.529-4.107-12.692-6.842-13.666-7.167c-5.071-1.69-8.507,0.341-10.031,2.806c-2.9,4.691-0.195,11.187,8.231,19.826
			l-11.867,11.867c-7.529-4.107-12.692-6.842-13.666-7.167c-5.071-1.69-8.507,0.341-10.031,2.806
			c-2.9,4.691-0.195,11.187,8.231,19.826l-11.867,11.867c-7.529-4.107-12.692-6.842-13.666-7.167
			c-5.071-1.69-8.507,0.341-10.031,2.806c-2.899,4.691-0.195,11.187,8.231,19.826l-11.867,11.867
			c-7.529-4.107-12.692-6.842-13.666-7.167c-5.071-1.69-8.507,0.341-10.031,2.806c-2.9,4.691-0.195,11.187,8.231,19.826
			l-11.867,11.867c-7.529-4.107-12.692-6.842-13.666-7.167c-5.071-1.69-8.507,0.341-10.031,2.806
			c-2.899,4.691-0.195,11.187,8.231,19.826l-11.867,11.867c-7.529-4.107-12.692-6.842-13.666-7.167
			c-6.277-2.092-9.158,1.482-9.892,2.628c-2.986,4.663-0.3,11.028,8.712,20.641c2.506,2.673,7.909,8.242,14.064,14.544l-7.298,7.298
			c-17.222-9.557-31.243-17.22-32.918-17.778c-5.072-1.69-8.507,0.341-10.031,2.806c-2.985,4.83-0.048,11.567,8.932,20.547
			l14.054,14.387l-7.37,7.37c-17.222-9.557-31.243-17.22-32.918-17.778c-5.072-1.69-8.507,0.341-10.031,2.806
			c-2.986,4.83-0.048,11.567,8.948,20.563c4.152,4.218,9.004,9.219,13.983,14.427l-2.619,2.619
			c-5.428-6.435-9.449-11.049-9.561-11.177c-2.848-3.242-6.662-7.055-10.469-10.469c-5.247-4.706-9.038-8.106-13.205-4.451
			c-0.451,0.396-4.284,4.013,0.131,9.058c0.527,0.602,1.066,1.24,1.683,1.969c3.122,3.693,8.08,9.557,22.394,24.097l-3.344,3.344
			c-4.733-5.395-10.302-11.37-16.929-17.997c-3.299-3.299-5.958-5.565-8.131-6.927c-5.436-3.41-8.719-1.082-9.877,0.077
			c-2.879,2.879-2.428,7.671,1.024,11.123l0.002,0.002c0.084,0.102,0.324,0.493,0.517,0.806c1.731,2.808,5.12,8.295,21.325,24.986
			l-1.103,1.103c-3.209-3.309-6.618-6.747-10.236-10.333c-1.067-1.058-2.037-2.02-2.886-2.868
			c-9.919-9.919-16.493-12.959-21.313-9.855c-2.203,1.418-4.186,4.648-2.523,9.082c0.253,0.673,0.553,1.403,0.927,2.205
			c-2.453-0.751-4.985-0.896-7.076,0.428c-0.209-0.194-0.43-0.402-0.637-0.594l-4.049-0.506c0,0-12.534,16.323,0.331,31.557
			c-0.156,0.156-0.342,0.342-0.584,0.584c-5.062,5.062-27.51,27.51-30.875,30.875c-3.796,3.796-18.221,20.752,1.518,40.492
			l1.012,1.012c19.74,19.74,36.696,5.315,40.492,1.518c3.364-3.364,25.813-25.813,30.875-30.875
			c0.273-0.273,0.483-0.483,0.649-0.649l-0.857-0.857c7.781,4.564,19.614,3.605,28.805-0.772c0.328-0.156-0.266-3.933-3.037-7.086
			c-0.101-0.115-0.205-0.23-0.306-0.345c2.206,0.492,3.415,0.262,4.132,0.122c2.936-0.571,5.163-2.721,5.811-5.609
			c0.175-0.778,0.272-1.583,0.293-2.418c3.664,0.723,6.515,0.097,8.794-1.761c4.299-3.506,3.789-9.298,2.419-13.87
			c4.6,1.334,8.656,1.226,11.664-0.971c1.977-1.445,5.939-5.698,1.828-14.808c9.683,4.098,13.114,1.564,14.359,0.644
			c2.423-1.789,4.302-5.674,1.623-10.734c-2.269-4.284-11.092-14.383-20.656-24.751l8.114-8.114
			c11.52,6.428,23.417,13.092,33.526,18.771c1.098,0.618,2.368,0.855,3.615,0.677c2.208-0.316,5.19-1.894,6.327-5.305
			c1.651-4.955-1.24-10.664-9.621-19.044l-14.304-14.643l7.789-7.789c11.52,6.428,23.417,13.092,33.526,18.771
			c1.098,0.618,2.368,0.855,3.615,0.677c2.208-0.316,5.19-1.894,6.327-5.305c1.651-4.955-1.24-10.664-9.639-19.063
			c-0.149-0.151-6.502-6.596-14.336-14.574l7.839-7.839c11.521,6.429,23.417,13.092,33.526,18.771
			c1.098,0.618,2.368,0.855,3.615,0.677c2.208-0.316,5.19-1.894,6.327-5.305c1.617-4.853-1.137-10.436-9.168-18.581l12.186-12.186
			c5.017,2.81,9.873,5.535,14.372,8.062c1.098,0.618,2.368,0.855,3.615,0.677c2.208-0.316,5.19-1.894,6.327-5.305
			c1.617-4.853-1.137-10.436-9.168-18.581l12.186-12.186c5.017,2.81,9.873,5.535,14.372,8.062c1.098,0.618,2.368,0.855,3.615,0.677
			c2.208-0.316,5.19-1.894,6.327-5.305c1.617-4.853-1.137-10.436-9.168-18.581l12.186-12.186c5.017,2.81,9.873,5.535,14.372,8.062
			c1.098,0.618,2.368,0.855,3.615,0.677c2.208-0.316,5.19-1.894,6.327-5.305c1.617-4.853-1.137-10.436-9.168-18.581l12.186-12.186
			c5.017,2.81,9.873,5.535,14.372,8.062c1.098,0.618,2.368,0.855,3.615,0.677c2.208-0.316,5.19-1.894,6.327-5.305
			c1.617-4.853-1.137-10.436-9.168-18.581l12.186-12.186c5.017,2.81,9.873,5.535,14.372,8.062c1.098,0.618,2.368,0.855,3.615,0.677
			c1.831-0.262,4.18-1.411,5.581-3.734c1.192,0.951,2.75,1.437,4.379,1.202C398.491,182.888,400.663,179.985,400.213,176.854z
			 M341.039,124.548c9.991,7.892,22.191,18.681,31.788,29.102c1.321,1.516,2.527,2.95,3.634,4.308l-7.121,7.121
			c-15.07-8.441-31.636-17.683-44.224-24.608L341.039,124.548z M29.105,470.899c-5.405-5.405-5.405-14.167,0-19.571
			c5.404-5.404,14.167-5.405,19.571,0c5.405,5.405,5.404,14.167,0,19.571C43.271,476.304,34.509,476.304,29.105,470.899z
			 M123.868,417.69c-2.767-4.622-6.649-9.752-11.48-15.398l1.914-1.914c2.563,2.234,5.204,4.38,7.859,6.347
			c2.164,3.461,3.671,6.209,4.828,8.322l0.264,0.483c0.916,1.672,1.567,3.439,1.931,4.833
			C127.992,419.912,126.276,419.111,123.868,417.69z M143.108,405.526c-2.596-0.793-6.839-2.795-12.397-6.707
			c-1.667-2.583-3.672-5.509-6.078-8.773l4.353-4.353c6.287,7.884,11.744,15.163,13.636,18.829
			C142.812,404.888,142.972,405.223,143.108,405.526z M152.972,387.658c-4.087-2.316-9.245-5.834-15.097-10.853l2.837-2.837
			C145.395,379.041,149.675,383.796,152.972,387.658z M134.587,350.74c-4.612-4.818-8.637-8.959-11.243-11.625
			c4.254,2.335,9.271,5.107,14.731,8.136L134.587,350.74z M178.529,356.692c-4.305-2.411-8.739-4.892-13.172-7.369l3.022-3.022
			L178.529,356.692z M161.972,323.355l-11.317-11.585c4.259,2.338,9.283,5.115,14.753,8.149L161.972,323.355z M205.785,329.318
			c-4.281-2.398-8.689-4.864-13.096-7.326l2.971-2.971C199.615,323.048,203.192,326.684,205.785,329.318z M189.233,296.094
			c-4.507-4.615-8.595-8.82-11.391-11.735c4.289,2.354,9.367,5.16,14.898,8.228L189.233,296.094z M232.68,301.74
			c-15.07-8.441-31.636-17.683-44.224-24.608l18.904-18.904c11.746,6.463,28.38,15.728,44.235,24.598L232.68,301.74z
			 M260.012,274.408c-15.07-8.441-31.636-17.683-44.224-24.608l18.904-18.904c11.746,6.463,28.38,15.728,44.235,24.598
			L260.012,274.408z M287.344,247.076c-15.07-8.441-31.636-17.683-44.224-24.608l18.904-18.904
			c11.746,6.463,28.38,15.728,44.235,24.598L287.344,247.076z M314.676,219.744c-15.07-8.441-31.636-17.683-44.224-24.608
			l18.904-18.904c11.746,6.463,28.38,15.728,44.235,24.598L314.676,219.744z M342.008,192.412
			c-15.07-8.441-31.636-17.683-44.224-24.608l18.904-18.904c11.746,6.463,28.38,15.728,44.235,24.598L342.008,192.412z"/>
	</g>
</g>
<g id="Layer_2">
</g>
</svg>
