<?xml version="1.0" encoding="utf-8"?>
<!-- Generator: Adobe Illustrator 19.1.0, SVG Export Plug-In . SVG Version: 6.00 Build 0)  -->
<svg version="1.1" xmlns="http://www.w3.org/2000/svg" xmlns:xlink="http://www.w3.org/1999/xlink" x="0px" y="0px" width="500px"
	 height="500px" viewBox="0 0 500 500" style="enable-background:new 0 0 500 500;" xml:space="preserve">
<g id="Layer_1">
	<g>
		<path d="M493.998,262.285v-24.57h-9.532c-0.283-5.497-0.766-10.941-1.421-16.332l9.38-1.654l-4.267-24.197l-9.342,1.647
			c-1.231-5.354-2.654-10.635-4.244-15.843l8.913-3.244l-8.404-23.089l-8.908,3.242c-2.145-5.046-4.46-10.003-6.94-14.861
			l8.218-4.744l-12.285-21.279l-8.246,4.761c-2.985-4.587-6.123-9.065-9.412-13.423l7.302-6.127L429.016,83.75l-7.317,6.14
			c-3.728-3.996-7.593-7.861-11.589-11.589l6.139-7.317L397.428,55.19l-6.127,7.302c-4.358-3.289-8.836-6.427-13.423-9.412
			l4.761-8.246L361.36,32.549l-4.744,8.218c-4.858-2.48-9.815-4.796-14.861-6.94l3.242-8.908l-23.089-8.404l-3.244,8.913
			c-5.208-1.59-10.488-3.013-15.843-4.244l1.647-9.342l-24.197-4.267l-1.654,9.38c-5.391-0.655-10.835-1.137-16.332-1.421V6.002
			h-24.57v9.532c-5.497,0.283-10.941,0.766-16.332,1.421l-1.654-9.38l-24.197,4.267l1.647,9.342
			c-5.354,1.231-10.635,2.654-15.843,4.244l-3.244-8.913l-23.089,8.404l3.242,8.908c-5.046,2.145-10.003,4.46-14.861,6.94
			l-4.744-8.218l-21.279,12.285l4.761,8.246c-4.587,2.985-9.065,6.123-13.423,9.412l-6.127-7.302L83.75,70.984L89.89,78.3
			c-3.996,3.728-7.861,7.593-11.589,11.589l-7.317-6.139L55.19,102.572l7.302,6.127c-3.289,4.358-6.427,8.836-9.412,13.423
			l-8.246-4.761L32.549,138.64l8.218,4.744c-2.48,4.858-4.796,9.815-6.94,14.861l-8.908-3.242l-8.404,23.089l8.913,3.244
			c-1.59,5.208-3.013,10.488-4.244,15.843l-9.342-1.647l-4.267,24.197l9.38,1.654c-0.655,5.391-1.138,10.835-1.421,16.332H6.002
			v24.57h9.532c0.283,5.497,0.766,10.941,1.421,16.332l-9.38,1.654l4.267,24.197l9.342-1.647c1.231,5.355,2.654,10.635,4.244,15.843
			l-8.913,3.244l8.404,23.089l8.908-3.242c2.145,5.046,4.46,10.003,6.94,14.861l-8.218,4.745l12.285,21.279l8.246-4.761
			c2.985,4.587,6.123,9.065,9.412,13.423l-7.302,6.127l15.794,18.822l7.317-6.139c3.728,3.996,7.593,7.861,11.589,11.589
			l-6.139,7.317l18.822,15.794l6.127-7.302c4.358,3.289,8.836,6.427,13.423,9.412l-4.761,8.246l21.279,12.285l4.744-8.218
			c4.858,2.48,9.814,4.796,14.861,6.94l-3.242,8.908l23.089,8.404l3.244-8.913c5.208,1.59,10.488,3.013,15.843,4.244l-1.647,9.342
			l24.197,4.267l1.654-9.38c5.391,0.655,10.835,1.138,16.332,1.421v9.532h24.57v-9.532c5.497-0.283,10.941-0.766,16.332-1.421
			l1.654,9.38l24.197-4.267l-1.647-9.342c5.354-1.231,10.635-2.654,15.843-4.244l3.244,8.913l23.089-8.404l-3.242-8.908
			c5.046-2.145,10.003-4.46,14.861-6.94l4.744,8.218l21.279-12.285l-4.761-8.246c4.587-2.985,9.065-6.123,13.423-9.412l6.127,7.302
			l18.822-15.794l-6.139-7.317c3.996-3.728,7.861-7.593,11.589-11.589l7.317,6.139l15.794-18.822l-7.302-6.127
			c3.289-4.358,6.427-8.836,9.412-13.423l8.246,4.761l12.285-21.279l-8.218-4.745c2.48-4.858,4.796-9.814,6.94-14.861l8.908,3.242
			l8.404-23.089l-8.913-3.244c1.59-5.208,3.013-10.488,4.244-15.843l9.342,1.647l4.267-24.197l-9.38-1.654
			c0.655-5.391,1.138-10.835,1.421-16.332H493.998z M250,421.31c-94.612,0-171.31-76.698-171.31-171.31S155.388,78.69,250,78.69
			S421.31,155.388,421.31,250S344.612,421.31,250,421.31z"/>
		<path d="M250,91.657C162.69,91.657,91.657,162.69,91.657,250S162.69,408.342,250,408.342S408.342,337.31,408.342,250
			S337.31,91.657,250,91.657z M317.379,115.841c15.413,7.772,29.314,18.117,41.129,30.477l-44.553,15.018L317.379,115.841z
			 M309.447,112.129l-3.918,52.048l-21.928,7.392c-9.729-4.174-20.393-6.571-31.588-6.831l-13.686-15.914l24.029-48.464
			C278.958,101.718,294.802,105.79,309.447,112.129z M250,297.776c-26.386,0-47.776-21.39-47.776-47.776s21.39-47.776,47.776-47.776
			c26.386,0,47.776,21.39,47.776,47.776S276.386,297.776,250,297.776z M270.811,332.746l-5.187,10.463l-7.152-8.316
			C262.684,334.477,266.802,333.751,270.811,332.746z M206.214,323.223l-11.075,3.733l0.824-10.943
			C199.19,318.658,202.617,321.067,206.214,323.223z M229.189,167.254l5.187-10.462l7.152,8.316
			C237.316,165.523,233.197,166.249,229.189,167.254z M293.785,176.777l11.076-3.734l-0.824,10.944
			C300.81,181.342,297.383,178.933,293.785,176.777z M250,99.848c1.152,0,2.3,0.018,3.446,0.044l-20.918,42.19l-29.767-34.613
			C217.622,102.53,233.503,99.848,250,99.848z M194.537,110.468l34.04,39.581L218.289,170.8
			c-10.169,4.076-19.366,10.049-27.161,17.488l-20.924-1.575l-17.254-51.186C165.27,125.066,179.29,116.55,194.537,110.468z
			 M183.987,195.963c-2.645,3.228-5.054,6.655-7.21,10.252l-3.733-11.075L183.987,195.963z M146.318,141.491l15.018,44.554
			l-45.495-3.424C123.614,167.208,133.959,153.306,146.318,141.491z M112.129,190.554l52.048,3.918l7.391,21.928
			c-4.174,9.729-6.571,20.393-6.831,31.588l-15.914,13.686l-48.464-24.028C101.718,221.043,105.79,205.199,112.129,190.554z
			 M167.254,270.811l-10.463-5.187l8.316-7.152C165.523,262.683,166.249,266.802,167.254,270.811z M99.848,250
			c0-1.152,0.018-2.3,0.044-3.446l42.189,20.917l-34.613,29.767C102.53,282.378,99.848,266.498,99.848,250z M182.621,384.159
			c-15.413-7.772-29.315-18.117-41.13-30.476l44.554-15.019L182.621,384.159z M186.713,329.797l-51.186,17.254
			c-10.462-12.321-18.977-26.341-25.06-41.588l39.581-34.04l20.751,10.288c4.076,10.17,10.049,19.366,17.488,27.161L186.713,329.797
			z M190.554,387.871l3.917-52.048l21.927-7.391c9.729,4.174,20.393,6.571,31.588,6.831l13.686,15.914l-24.028,48.464
			C221.043,398.282,205.199,394.21,190.554,387.871z M250,400.152c-1.152,0-2.3-0.018-3.445-0.044l20.917-42.189l29.767,34.613
			C282.378,397.47,266.497,400.152,250,400.152z M305.462,389.532l-34.04-39.581l10.288-20.751
			c10.169-4.076,19.366-10.048,27.161-17.487l20.926,1.575l17.254,51.185C334.73,374.934,320.71,383.45,305.462,389.532z
			 M316.013,304.038c2.645-3.228,5.054-6.655,7.21-10.252l3.734,11.076L316.013,304.038z M353.682,358.508l-15.018-44.553
			l45.495,3.424C376.386,332.792,366.042,346.694,353.682,358.508z M387.871,309.447l-52.047-3.918l-7.392-21.928
			c4.174-9.729,6.571-20.394,6.831-31.589l15.914-13.686l48.464,24.029C398.282,278.957,394.21,294.802,387.871,309.447z
			 M332.746,229.189l10.462,5.187l-8.316,7.151C334.477,237.316,333.751,233.197,332.746,229.189z M400.152,250
			c0,1.152-0.018,2.299-0.044,3.445l-42.189-20.917l34.613-29.767C397.47,217.622,400.152,233.503,400.152,250z M389.532,194.538
			l-39.581,34.04L329.2,218.289c-4.076-10.169-10.048-19.365-17.487-27.161l1.575-20.925l51.185-17.253
			C374.934,165.27,383.45,179.29,389.532,194.538z"/>
	</g>
</g>
<g id="Layer_2">
</g>
</svg>
