<?xml version="1.0" encoding="utf-8"?>
<!-- Generator: Adobe Illustrator 19.1.0, SVG Export Plug-In . SVG Version: 6.00 Build 0)  -->
<svg version="1.1" xmlns="http://www.w3.org/2000/svg" xmlns:xlink="http://www.w3.org/1999/xlink" x="0px" y="0px" width="500px"
	 height="500px" viewBox="0 0 500 500" style="enable-background:new 0 0 500 500;" xml:space="preserve">
<g id="Layer_1">
	<g>
		<path d="M250.148,130.265c-66.023-0.081-119.801,53.566-119.881,119.589s53.566,119.801,119.589,119.881
			c66.023,0.081,119.801-53.566,119.881-119.589C369.817,184.123,316.171,130.345,250.148,130.265z M249.887,343.844
			c-51.745-0.063-93.793-42.214-93.73-93.96c0.063-51.745,42.214-93.793,93.96-93.73c51.745,0.063,93.793,42.214,93.73,93.96
			S301.632,343.908,249.887,343.844z"/>
		<circle cx="250" cy="249.999" r="61.485"/>
		<path d="M483.114,270.581c0.141-1.608,0.267-3.22,0.374-4.836l-0.092-0.551c0.779-11.651,0.753-23.381-0.231-35.112l12.634-2.208
			l-7.052-40.379l-12.59,2.198c-2.746-10.311-6.273-20.507-10.513-30.541l-1.458-8.707l9.223-5.305l-20.438-35.533l-0.007,0.004
			l-0.05-0.086l-11.108,6.395c-7.852-11.249-16.541-21.633-25.966-31.092l8.231-9.777l-0.076-0.064l0.005-0.006L408.376,61.84
			l-15.661-13.185l-0.005,0.006l-0.076-0.064l-8.258,9.818c-5.546-3.877-11.244-7.499-17.074-10.861
			c-5.833-3.397-11.827-6.548-17.969-9.439l4.407-12.047l-0.093-0.034l0.003-0.007l-19.159-7l-19.246-7.04l-0.003,0.008
			l-0.093-0.034l-4.386,12.004c-12.892-3.469-26.225-5.841-39.889-7.055l0.021-12.817l-0.097,0V4.084l-20.651-0.025l-20.242-0.033
			v0.008l-0.099,0l-0.016,12.816c-13.669,1.175-27.006,3.513-39.909,6.945l-4.352-12.017l-0.094,0.034l-0.003-0.009l-20.753,7.524
			l-17.692,6.406l0.003,0.008l-0.093,0.033l4.371,12.053c-6.064,2.826-12.073,5.871-17.977,9.267
			c-5.932,3.412-11.612,7.092-17.128,10.931l-8.224-9.833l-0.076,0.063l-0.005-0.006L90.422,62.845L76.498,74.491l0.004,0.005
			l-0.076,0.063l8.208,9.805c-9.654,9.642-18.346,20.031-26.048,31.019l-11.1-6.432l-0.05,0.085l-0.007-0.004l-10.302,17.794
			l-10.193,17.589l0.007,0.004l-0.05,0.085l11.102,6.428c-5.699,12.148-10.385,24.856-13.947,38.028l-12.589-2.241l-0.017,0.097
			l-0.006-0.001L8.196,205.04l-3.922,22.036l0.008,0.002l-0.017,0.097l12.622,2.241c-0.586,6.695-0.953,13.453-0.961,20.297
			c-0.008,6.812,0.34,13.539,0.905,20.206l-12.63,2.204l0.017,0.098l-0.008,0.001l3.184,18.182l3.859,22.098l0.01-0.002l0.017,0.098
			l12.592-2.205c0.04,0.151,0.09,0.298,0.131,0.449c0.841,3.127,1.744,6.244,2.722,9.348c0.089,0.282,0.193,0.557,0.283,0.838
			c0.938,2.936,1.921,5.864,2.982,8.779c0.181,0.496,0.387,0.98,0.571,1.474c2.148,5.779,4.507,11.516,7.142,17.185l-11.111,6.391
			l0.049,0.086l-0.007,0.004l10.111,17.562l10.285,17.881l0.007-0.004l0.049,0.085l11.11-6.396
			c7.851,11.249,16.541,21.633,25.966,31.091l-8.233,9.778l0.076,0.064l-0.005,0.006l15.467,13.01l15.82,13.319l0.005-0.006
			l0.076,0.063l8.26-9.818c5.58,3.901,11.313,7.541,17.18,10.92c5.801,3.373,11.759,6.504,17.863,9.378l-4.409,12.05l0.093,0.034
			l-0.003,0.008l19.246,7.032l19.159,7.009l0.003-0.008l0.093,0.034l4.388-12.006c12.892,3.469,26.222,5.84,39.887,7.055
			l-0.021,12.82h0.099v0.008l18.853,0.023l22.039,0.037v-0.01h0.1l0.016-12.818c6.32-0.543,12.561-1.363,18.729-2.396
			c0.428-0.072,0.857-0.121,1.285-0.195c3.159-0.547,6.292-1.168,9.407-1.842c0.186-0.04,0.373-0.069,0.559-0.11
			c3.335-0.73,6.645-1.529,9.927-2.402l4.353,12.021l0.093-0.034l0.003,0.007l18.871-6.842l19.574-7.089l-0.003-0.008l0.093-0.034
			l-4.37-12.053c1.434-0.669,2.865-1.351,4.291-2.051l0.241-0.198c10.673-5.274,20.91-11.294,30.594-18.071l8.283,9.897
			l31.432-26.31l-8.266-9.876c7.479-7.467,14.409-15.473,20.817-23.899l7.286-6.002l9.161,5.304l14.226-24.569l0.006-0.004
			l6.264-10.81l-0.006-0.004l0.05-0.086l-11.104-6.429c5.699-12.148,10.385-24.856,13.947-38.028l12.589,2.241l0.017-0.098
			l0.008,0.002l3.614-20.351l3.544-19.909l-0.008-0.001l0.017-0.097L483.114,270.581z M380.431,253.545
			c-0.598,20.738-6.117,41.114-16.083,59.314c-0.47,0.85-0.968,1.682-1.456,2.522c-0.488,0.847-0.966,1.699-1.474,2.535
			c-10.84,17.717-25.787,32.654-43.502,43.493c-0.262,0.16-0.523,0.321-0.787,0.48c-1.42,0.855-2.862,1.675-4.316,2.477
			c-0.538,0.295-1.077,0.589-1.618,0.876c-1.275,0.68-2.564,1.338-3.864,1.976c-0.703,0.345-1.408,0.68-2.114,1.011
			c-1.194,0.56-2.397,1.105-3.611,1.63c-0.81,0.349-1.623,0.685-2.437,1.016c-1.146,0.468-2.297,0.925-3.458,1.361
			c-0.891,0.334-1.786,0.65-2.681,0.963c-1.107,0.388-2.217,0.769-3.337,1.127c-0.962,0.308-1.928,0.594-2.894,0.878
			c-1.073,0.316-2.147,0.627-3.231,0.915c-1.03,0.274-2.063,0.526-3.097,0.773c-1.029,0.247-2.06,0.49-3.098,0.713
			c-1.104,0.236-2.21,0.449-3.316,0.655c-0.981,0.184-1.963,0.363-2.951,0.524c-1.175,0.191-2.35,0.36-3.527,0.518
			c-0.922,0.125-1.845,0.245-2.773,0.35c-1.269,0.144-2.539,0.264-3.809,0.37c-0.821,0.069-1.642,0.132-2.467,0.185
			c-1.403,0.089-2.806,0.158-4.208,0.203c-0.658,0.022-1.317,0.036-1.977,0.048c-1.616,0.026-3.231,0.032-4.845-0.001
			c-0.354-0.007-0.707-0.019-1.061-0.028c-20.723-0.599-41.084-6.113-59.273-16.067c-0.995-0.549-1.971-1.129-2.951-1.703
			c-0.703-0.409-1.413-0.803-2.109-1.225c-17.718-10.834-32.656-25.777-43.499-43.486c-0.173-0.283-0.347-0.565-0.518-0.85
			c-0.84-1.396-1.647-2.813-2.436-4.243c-0.313-0.568-0.622-1.137-0.926-1.708c-0.663-1.244-1.304-2.501-1.927-3.769
			c-0.362-0.739-0.715-1.479-1.062-2.222c-0.542-1.158-1.071-2.323-1.579-3.499c-0.368-0.853-0.722-1.708-1.07-2.566
			c-0.449-1.101-0.888-2.206-1.307-3.322c-0.354-0.943-0.688-1.889-1.019-2.836c-0.368-1.053-0.73-2.109-1.072-3.174
			c-0.328-1.025-0.634-2.054-0.936-3.084c-0.295-1.006-0.586-2.013-0.858-3.029c-0.293-1.1-0.563-2.204-0.826-3.309
			c-0.229-0.959-0.456-1.918-0.664-2.885c-0.252-1.177-0.48-2.355-0.698-3.535c-0.168-0.904-0.334-1.808-0.483-2.718
			c-0.205-1.254-0.385-2.51-0.553-3.767c-0.112-0.839-0.222-1.678-0.318-2.522c-0.153-1.349-0.282-2.698-0.393-4.048
			c-0.061-0.739-0.118-1.48-0.167-2.222c-0.096-1.482-0.169-2.963-0.214-4.444c-0.018-0.574-0.031-1.15-0.042-1.726
			c-0.029-1.697-0.035-3.394,0.002-5.088c0.005-0.267,0.014-0.533,0.021-0.799c0.578-20.782,6.1-41.204,16.086-59.442
			c0.474-0.858,0.977-1.698,1.469-2.544c0.485-0.84,0.958-1.685,1.462-2.515c10.839-17.717,25.787-32.653,43.5-43.492
			c0.265-0.161,0.528-0.324,0.794-0.484c1.415-0.852,2.852-1.67,4.301-2.469c0.546-0.3,1.094-0.598,1.642-0.89
			c1.265-0.674,2.543-1.326,3.832-1.96c0.717-0.351,1.435-0.694,2.156-1.03c1.179-0.553,2.366-1.09,3.563-1.608
			c0.832-0.359,1.666-0.703,2.502-1.044c1.119-0.457,2.243-0.903,3.378-1.329c0.926-0.347,1.856-0.676,2.787-1.001
			c1.068-0.374,2.139-0.741,3.22-1.088c1.01-0.323,2.024-0.625,3.039-0.922c1.021-0.3,2.043-0.596,3.074-0.871
			c1.085-0.289,2.173-0.555,3.262-0.815c0.974-0.233,1.949-0.463,2.931-0.674c1.163-0.249,2.328-0.474,3.493-0.691
			c0.916-0.171,1.834-0.338,2.757-0.49c1.246-0.204,2.493-0.382,3.741-0.549c0.844-0.114,1.69-0.223,2.539-0.321
			c1.348-0.152,2.696-0.282,4.044-0.392c0.737-0.061,1.476-0.118,2.216-0.167c1.486-0.096,2.971-0.169,4.456-0.214
			c0.569-0.019,1.14-0.031,1.71-0.041c1.703-0.03,3.406-0.036,5.106,0.002c0.26,0.005,0.518,0.014,0.777,0.02
			c20.797,0.577,41.234,6.105,59.482,16.102c0.718,0.397,1.42,0.82,2.13,1.229c0.979,0.56,1.961,1.114,2.926,1.701
			c17.719,10.846,32.657,25.801,43.493,43.524c0.146,0.24,0.294,0.479,0.439,0.72c0.869,1.443,1.704,2.908,2.518,4.386
			c0.281,0.512,0.56,1.024,0.833,1.538c0.694,1.3,1.364,2.613,2.014,3.939c0.332,0.679,0.656,1.359,0.975,2.04
			c0.571,1.217,1.126,2.443,1.661,3.68c0.339,0.787,0.665,1.576,0.987,2.366c0.477,1.168,0.944,2.342,1.388,3.527
			c0.325,0.868,0.633,1.74,0.938,2.612c0.396,1.129,0.784,2.26,1.149,3.402c0.301,0.943,0.582,1.89,0.861,2.838
			c0.321,1.089,0.637,2.18,0.93,3.281c0.269,1.013,0.516,2.028,0.76,3.044c0.252,1.048,0.499,2.097,0.726,3.154
			c0.232,1.088,0.442,2.177,0.646,3.268c0.186,0.994,0.368,1.99,0.532,2.992c0.19,1.166,0.357,2.333,0.514,3.501
			c0.126,0.928,0.246,1.857,0.352,2.79c0.143,1.266,0.263,2.532,0.369,3.798c0.069,0.823,0.132,1.647,0.186,2.474
			c0.09,1.404,0.158,2.808,0.202,4.211c0.021,0.653,0.036,1.308,0.047,1.963c0.026,1.622,0.032,3.244-0.002,4.862
			C380.452,252.854,380.44,253.199,380.431,253.545z"/>
	</g>
</g>
<g id="Layer_2">
</g>
</svg>
