<?xml version="1.0" encoding="utf-8"?>
<!-- Generator: Adobe Illustrator 19.1.0, SVG Export Plug-In . SVG Version: 6.00 Build 0)  -->
<svg version="1.1" xmlns="http://www.w3.org/2000/svg" xmlns:xlink="http://www.w3.org/1999/xlink" x="0px" y="0px"
	 viewBox="0 0 500 500" style="enable-background:new 0 0 500 500;" xml:space="preserve">
<g id="Layer_1">
	<g>
		<path d="M250,2.1C113.088,2.1,2.1,113.088,2.1,250S113.088,497.9,250,497.9S497.9,386.912,497.9,250S386.912,2.1,250,2.1z
			 M250,429.9c-99.356,0-179.9-80.544-179.9-179.9c0-99.356,80.544-179.9,179.9-179.9S429.9,150.644,429.9,250
			C429.9,349.356,349.356,429.9,250,429.9z"/>
		<path d="M250,84.1c-91.624,0-165.9,74.276-165.9,165.9c0,91.624,74.276,165.9,165.9,165.9S415.9,341.624,415.9,250
			C415.9,158.375,341.624,84.1,250,84.1z M276.651,113.518c10.02,2.004,53.486,5.84,85.975,55.258
			c5.265,8.008,8.087,16.364-2.672,19.438c-2.152,0.615-66.089,23.977-71.623,25.821c-5.533,1.844-6.694,0.051-6.694,0.051
			c-3.897-3.436-8.359-6.248-13.227-8.278c0,0-2.211-0.687-2.211-6.528c0-5.84-2.152-73.467-2.152-74.696
			C264.048,119.051,265.893,111.366,276.651,113.518z M250,232.878c9.456,0,17.122,7.666,17.122,17.122
			c0,9.456-7.666,17.122-17.122,17.122c-9.456,0-17.122-7.666-17.122-17.122C232.878,240.544,240.544,232.878,250,232.878z
			 M128.601,182.176c5.024-8.898,22.205-49.009,79.282-64.495c9.249-2.51,18.069-2.589,17.64,8.592
			c-0.086,2.236,2.206,70.27,2.236,76.102s-2.036,6.377-2.036,6.377c-4.479,2.634-8.54,5.998-11.985,9.992
			c0,0-1.342,1.888-6.892,0.069c-5.55-1.819-70.485-20.831-71.653-21.214C129.935,195.875,123.207,191.73,128.601,182.176z
			 M148.04,344.561c-6.914-7.524-39.771-36.238-36.898-95.309c0.466-9.572,3.11-17.986,13.613-14.13
			c2.101,0.771,67.524,19.575,73.081,21.345c5.557,1.771,5.438,3.904,5.438,3.904c1.124,5.073,3.071,9.973,5.808,14.482
			c0,0,1.382,1.858-2.06,6.577c-3.442,4.719-41.555,60.623-42.28,61.617C161.483,347.518,155.464,352.64,148.04,344.561z
			 M308.504,376.155c-9.289,4.257-46.737,26.656-102.043,5.703c-8.962-3.395-16.15-8.506-9.242-17.308
			c1.382-1.76,39.447-58.195,42.845-62.935c3.398-4.74,5.391-3.969,5.391-3.969c5.172,0.495,10.434,0.155,15.568-1.058
			c0,0,2.194-0.741,5.621,3.988c3.427,4.729,44.851,58.227,45.573,59.223C315.463,364.279,318.479,371.584,308.504,376.155z
			 M362.001,332.084c-5.994,7.478-13.072,12.74-19.315,3.453c-1.248-1.857-43.191-55.472-46.652-60.167s-2.113-6.352-2.113-6.352
			c2.066-4.767,3.365-9.878,3.795-15.135c0,0-0.028-2.316,5.527-4.117s69.222-24.706,70.391-25.085
			c5.263-1.707,13.142-2.322,14.414,8.576C389.233,243.407,398.989,285.938,362.001,332.084z"/>
	</g>
</g>
<g id="Layer_2">
</g>
</svg>
