<?xml version="1.0" encoding="utf-8"?>
<!-- Generator: Adobe Illustrator 19.1.0, SVG Export Plug-In . SVG Version: 6.00 Build 0)  -->
<svg version="1.1" xmlns="http://www.w3.org/2000/svg" xmlns:xlink="http://www.w3.org/1999/xlink" x="0px" y="0px"
	 viewBox="0 0 500 500" style="enable-background:new 0 0 500 500;" xml:space="preserve">
<g id="Layer_1">
	<g>
		<path d="M76.836,391.223c15.839,0,28.725-12.886,28.725-28.725s-12.886-28.726-28.725-28.726s-28.725,12.887-28.725,28.726
			S60.997,391.223,76.836,391.223z M76.836,339.983c12.414,0,22.514,10.1,22.514,22.515c0,12.414-10.1,22.514-22.514,22.514
			s-22.514-10.1-22.514-22.514C54.322,350.083,64.422,339.983,76.836,339.983z"/>
		<circle cx="76.836" cy="362.498" r="14.751"/>
		<path d="M486.992,362.498c0-1.642-0.086-3.263-0.225-4.87l3.028-0.534l-1.708-9.684l-3.02,0.532
			c-0.852-3.169-1.975-6.226-3.342-9.149l2.665-1.539l-4.917-8.516l-2.681,1.548c-1.872-2.662-3.957-5.164-6.251-7.46l1.985-2.366
			l-7.533-6.321l-1.99,2.371c-2.65-1.859-5.464-3.497-8.421-4.883l1.052-2.891l-7.946-2.892c6.25,0.322,11.424,0.823,12.976,0.823
			c4,0,6.667-1.667,7.667-3.333s3-19,4-27.333c1-8.333-1.333-7.667-3.333-8c-0.37-0.062-0.782-0.106-1.214-0.141
			c-0.157-4.275-1.239-9.579-5.283-14.86c-3.387-4.424-12.484-7.831-17.905-9.544c-0.772-0.307-1.734-0.672-2.931-1.121
			c-5.047-1.893-44.462-14.268-73.705-23.313c-0.446-5.988-0.794-11.102-0.794-12.354c0-5.097-4.077-11.95-5.498-13.938
			c-0.904-1.295-13.254-20.767-24.149-37.947c-16.045-25.297-26.65-42.006-27.833-43.696c-1.982-2.832-4.768-4.266-7.65-3.933
			c-2.597,0.3-4.905,2.07-5.882,4.51c-0.078,0.195-0.235,0.593-0.442,1.12c-12.25-3.809-57.593-17.9-60.861-18.791
			c-1.048-0.286-2.643-0.771-4.331-1.284c-6.317-1.92-9.547-2.842-11.422-2.874c-2.229-0.127-29.522-3.064-49.479-5.212
			c-15.412-1.659-27.585-2.969-29.245-3.107c-5.721-0.469-12.662,3.775-14.033,8.581c-0.19,0.665-0.971,2.921-1.797,5.311
			c-1.841,5.328-4.624,13.378-6.21,19.045c-1.964,7.011-1.942,13.618,0.063,19.637c0.207,0.62,25.785,72.973,30.572,85.289
			C147.367,220.355,145.733,221,145,221c-1.667,0-3.333,0-4-1s-7-12.667-7.667-15c-0.667-2.333-4.333-2.333-4.333-2.333
			s-14.667,0.667-17,0.667S109,204,108,205s-12.333,17-12.333,17S28.333,226.333,25,226.333s-2.667,1.333-3.333,3.667
			C21,232.333,15,261,15,261s0,0-2.667,0.333c-2.667,0.333-1.667,1.667-2,3C10,265.667,12,269,14.667,269c2.667,0,4.333,4,5,9.667
			c0.667,5.667,6.333,8.333,8,8.667c0.576,0.115,10.328,2.177,23.152,4.923l2.391,16.052l-1.173,0.427l1.052,2.892
			c-2.957,1.386-5.771,3.024-8.421,4.884l-1.99-2.372l-7.533,6.321l1.985,2.366c-2.294,2.296-4.379,4.798-6.251,7.46l-2.681-1.548
			l-4.917,8.516l2.666,1.539c-1.367,2.923-2.49,5.98-3.342,9.149l-3.02-0.533l-1.708,9.684l3.028,0.534
			c-0.139,1.607-0.225,3.228-0.225,4.87c0,1.642,0.086,3.263,0.225,4.869l-3.028,0.534l1.708,9.684l3.02-0.532
			c0.852,3.169,1.975,6.226,3.341,9.149l-2.665,1.539l4.917,8.516l2.681-1.548c1.872,2.662,3.957,5.164,6.251,7.46l-1.985,2.366
			l7.533,6.321l1.99-2.372c2.65,1.859,5.464,3.497,8.421,4.883l-1.052,2.892l9.241,3.363l1.048-2.881
			c3.102,0.83,6.308,1.397,9.594,1.683v3.075h9.834v-3.075c3.286-0.287,6.493-0.853,9.594-1.683l1.049,2.881l9.241-3.363
			l-1.052-2.892c2.957-1.386,5.771-3.024,8.421-4.883l1.99,2.372l7.533-6.321l-1.985-2.366c2.294-2.296,4.379-4.798,6.251-7.46
			l2.681,1.548l4.917-8.516l-2.665-1.539c1.367-2.923,2.49-5.98,3.341-9.149l3.02,0.532l1.708-9.684l-3.028-0.534
			c0.139-1.606,0.225-3.228,0.225-4.869c0-1.642-0.086-3.263-0.225-4.87l3.028-0.534l-0.435-2.468
			c4.665,0.34,9.807,0.685,13.85,0.88c4.005,6.456,7.152,11.288,8.123,12.161c3.333,3,10.333,3.333,10.333,3.333
			s178.667,1,189.667,1c9.234,0,13.826-6.499,16.708-14.524l0.863,0.152c-0.139,1.607-0.225,3.228-0.225,4.87
			c0,1.642,0.086,3.263,0.225,4.869l-3.028,0.534l1.708,9.684l3.02-0.532c0.852,3.169,1.975,6.226,3.341,9.149l-2.665,1.539
			l4.917,8.516l2.681-1.548c1.872,2.662,3.957,5.164,6.251,7.46l-1.985,2.366l7.533,6.321l1.99-2.372
			c2.65,1.859,5.464,3.497,8.421,4.883l-1.052,2.892l9.241,3.363l1.048-2.881c3.102,0.83,6.308,1.397,9.594,1.683v3.075h9.834
			v-3.075c3.286-0.287,6.493-0.853,9.594-1.683l1.049,2.881l9.241-3.363l-1.052-2.892c2.957-1.386,5.771-3.024,8.421-4.883
			l1.99,2.372l7.533-6.321l-1.985-2.366c2.294-2.296,4.379-4.798,6.251-7.46l2.681,1.548l4.917-8.516l-2.665-1.539
			c1.367-2.923,2.49-5.98,3.341-9.149l3.02,0.532l1.708-9.684l-3.028-0.534C486.906,365.761,486.992,364.14,486.992,362.498z
			 M425.919,306.57c-0.386,0.034-0.773,0.064-1.157,0.106c0.376-0.081,0.761-0.157,1.157-0.227V306.57z M430.836,331.186
			c17.266,0,31.312,14.047,31.312,31.312s-14.047,31.312-31.312,31.312s-31.312-14.046-31.312-31.312
			S413.57,331.186,430.836,331.186z M457.739,256.646c2.684,3.504,3.94,7.144,4.047,11.789c-0.262,0.073-0.523,0.143-0.786,0.231
			c-3,1-8.333,0.333-12.667-3.667c-4.977-4.594-4.53-11.172-3.438-15.128C450.163,251.691,455.897,254.24,457.739,256.646z
			 M446.25,305.773l-0.903,2.48c-3.101-0.83-6.308-1.397-9.594-1.683v-0.963C439.252,305.531,442.873,305.62,446.25,305.773z
			 M232.482,102.675c2.684,0.732,38.509,11.846,59.931,18.508c-0.57,1.453-1.149,2.928-1.695,4.316
			c-13.539-3.989-53.238-15.647-56.979-16.271l-1.822-0.31c-0.629-0.108-1.319-0.226-2.052-0.35l-2.019-7.266
			c0.018,0.005,0.037,0.011,0.055,0.017C229.654,101.852,231.31,102.355,232.482,102.675z M134.937,92.767
			c0.595-0.879,3.013-2.419,4.689-2.282c1.553,0.129,14.899,1.566,29.03,3.086c33.021,3.553,45.452,4.868,49.142,5.183l2.321,8.355
			c-2.254-0.277-4.503-0.5-6.561-0.602c-6.504-0.326-35.944-1.339-38.891-1.339c-0.211,0-0.433-0.019-0.662-0.035
			c-1.6-0.107-4.566-0.31-7.121,2.001c-2.391,2.165-3.536,5.678-3.715,11.393c-0.073,2.335-0.162,4.942-0.256,7.6l-30.857-24.893
			c0.351-1.021,0.687-1.993,0.995-2.884C134.079,95.372,134.661,93.683,134.937,92.767z M127,116.88
			c0.543-1.941,1.245-4.204,2.002-6.548l33.497,27.023c-0.014,0.371-0.028,0.757-0.042,1.114c-0.215,5.693-0.29,7.728-0.29,8.18
			c-0.002,0.158-0.018,0.492-0.036,0.958c-0.096,2.297-0.177,4.823-0.179,7.277c-3.795-0.281-7.974,1.373-9.952,2.115
			c-2.667,1,0.333,7.333-4.333,8.333c-4.392,0.941-4.651,3.948-6.333,6.522c-7.008-19.63-13.725-38.597-14.396-40.612
			C125.488,126.901,125.51,122.203,127,116.88z M76.836,331.186c17.266,0,31.312,14.047,31.312,31.312S94.102,393.81,76.836,393.81
			s-31.312-14.046-31.312-31.312S59.57,331.186,76.836,331.186z M85.544,299.773l0.537,7.344c-1.426-0.237-2.869-0.419-4.329-0.546
			v-3.075h-9.834v3.075c-0.867,0.076-1.727,0.173-2.582,0.287l1.347-10.324C75.707,297.622,80.745,298.719,85.544,299.773z
			 M192.333,188.333c0.333-6.667-3.333-10-6.667-11.667c-3.168-1.584-6.635-0.474-8.974-6.655c5.283-0.482,9.788-0.845,11.308-0.845
			c3.442,0,5.971,2.237,6.829,3.74c1.188,2.079,12.878,27.658,16.545,36.09c2.627,6.042,1.763,8.77,1.164,10.266
			c-0.408,0.279-1.147,0.673-2.111,1.144c-0.683-1.256-1.4-2.398-2.094-3.407c-3.378-4.914-11.667-10-16-14.333
			C188,198.333,192,195,192.333,188.333z M317.667,296.667c0,0-39,0.333-42,0.333s-1.667-2-2.333-4c-0.667-2-2-2-3-2.667
			s0-2.667,0.667-6.667s0-8-2-8s-3-1.333-2-2.667c4.652-6.203-0.667-10.333-1.333-12c-0.667-1.667-4-3.333-8-5
			c-4-1.667-12.333-1.333-15-1.333c-2.667,0-5,0.333-5.667-1.333S233.667,252,230.333,252c-3.333,0-11-0.333-15.333-0.333
			s-6,0.333-2.333-10c2.208-6.223,1.507-11.955-0.194-16.702c3.966-1.996,4.275-2.77,4.516-3.371l0.089-0.219
			c0.807-1.976,2.485-6.086-1.117-14.373c-3.055-7.023-15.338-34.037-16.789-36.577c-1.78-3.116-5.925-6.26-11.171-6.26
			c-1.868,0-7.393,0.461-13.22,1.001c-1.055-2.083-2.292-3.708-3.648-5.058c-0.232-2.603-0.236-6.661-0.009-12.127
			c0.027-0.67,0.044-1.132,0.044-1.305c0.004-0.46,0.14-4.059,0.283-7.87c0.222-5.891,0.522-13.878,0.715-20.001
			c0.088-2.827,0.447-4.164,0.667-4.729c0.188,0.008,0.396,0.022,0.561,0.033c0.441,0.03,0.869,0.056,1.274,0.056
			c2.486,0,31.618,0.986,38.441,1.328c5.511,0.276,12.884,1.54,17.288,2.294l1.858,0.316c2.802,0.496,34.016,9.576,55.294,15.843
			c-0.82,3.629,0.353,6.298,1.033,7.834c0.085,0.192,0.168,0.377,0.24,0.557c0.974,2.433,30.006,57.155,31.624,59.93
			c1.588,2.72,2.279,4.685,2.835,6.263c0.176,0.501,0.336,0.951,0.492,1.352c0.442,1.58,1.919,10.56,3.11,18.455l0.213-0.032
			c-1.367,0.946-3.278,1.937-5.095,3.027c-6.732-4.931-12.853-9.589-13.001-10.332c-0.333-1.667,0-7-2-9s-6-5.333-6-5.333
			s3.695-5.318,8.333-13.667c3.333-6-1-11.667-5.333-3.667c-1.28,2.363-27,37.333-30,42.667c-3,5.333,2,7.667,5,4
			c1.648-2.015,11.667-14.333,11.667-14.333s4,3.333,5.667,4c1.667,0.667,8.333-0.333,8.333-0.333l14.134,10.601
			c-0.131,0.637-0.134,1.066-0.134,1.066s0,50.667,0.333,56C319.333,298.333,317.667,296.667,317.667,296.667z M336,209.333
			c-3.012-0.602-2.759,0.702-2.682,2.434c-0.505-2.759-0.887-4.471-1.141-5.106c-0.131-0.327-0.26-0.699-0.407-1.119
			c-0.61-1.732-1.531-4.351-3.551-7.81c-2.163-3.71-29.561-55.569-31.073-58.816c-0.103-0.253-0.217-0.513-0.336-0.781
			c-0.558-1.259-0.745-1.683-0.3-2.798c0.796-1.988,3.248-8.237,5.244-13.322c0.604-1.539,1.166-2.971,1.626-4.144
			c3.703,5.726,15.747,24.716,26.538,41.729c14.599,23.018,23.589,37.185,24.42,38.348c1.671,2.339,3.828,6.987,3.828,8.717
			c0,1.253,0.244,5.062,0.562,9.505C346.166,212.306,336.999,209.533,336,209.333z"/>
		<path d="M430.836,391.223c15.839,0,28.725-12.886,28.725-28.725s-12.886-28.726-28.725-28.726s-28.725,12.887-28.725,28.726
			S414.997,391.223,430.836,391.223z M430.836,339.983c12.414,0,22.514,10.1,22.514,22.515c0,12.414-10.1,22.514-22.514,22.514
			s-22.514-10.1-22.514-22.514C408.322,350.083,418.422,339.983,430.836,339.983z"/>
		<circle cx="430.836" cy="362.498" r="14.751"/>
	</g>
</g>
<g id="Layer_2">
</g>
</svg>
