<?xml version="1.0" encoding="utf-8"?>
<!-- Generator: Adobe Illustrator 19.1.0, SVG Export Plug-In . SVG Version: 6.00 Build 0)  -->
<svg version="1.1" id="Layer_1" xmlns="http://www.w3.org/2000/svg" xmlns:xlink="http://www.w3.org/1999/xlink" x="0px" y="0px"
	 width="500px" height="500px" viewBox="0 0 500 500" style="enable-background:new 0 0 500 500;" xml:space="preserve">
<g>
	<path d="M68.841,335.609c-15.879-0.019-28.813,12.883-28.832,28.762c-0.019,15.879,12.883,28.813,28.762,28.832
		c15.879,0.019,28.813-12.883,28.832-28.762C97.622,348.562,84.72,335.629,68.841,335.609z M68.778,386.977
		c-12.445-0.015-22.558-10.153-22.543-22.598c0.015-12.445,10.153-22.558,22.598-22.543c12.445,0.015,22.558,10.153,22.542,22.598
		C91.36,376.879,81.223,386.992,68.778,386.977z"/>
	<circle cx="68.805" cy="364.406" r="14.787"/>
	<path d="M431.231,335.609c-15.879-0.019-28.813,12.883-28.832,28.762c-0.02,15.879,12.883,28.813,28.762,28.832
		c15.879,0.019,28.812-12.883,28.832-28.762C460.012,348.562,447.109,335.629,431.231,335.609z M431.168,386.977
		c-12.445-0.015-22.558-10.153-22.542-22.598c0.015-12.445,10.153-22.558,22.598-22.543c12.445,0.015,22.558,10.153,22.543,22.598
		C453.75,376.879,443.613,386.992,431.168,386.977z"/>
	<circle cx="431.195" cy="364.406" r="14.787"/>
	<path d="M487.26,369.356c0.034-0.387,0.064-0.774,0.09-1.163l-0.022-0.133c0.187-2.802,0.181-5.623-0.056-8.445l3.039-0.531
		l-1.696-9.711l-3.028,0.529c-0.661-2.48-1.509-4.932-2.528-7.345l-0.351-2.094l2.218-1.276l-4.915-8.546l-0.002,0.001l-0.012-0.021
		l-2.671,1.538c-1.889-2.706-3.979-5.203-6.245-7.478l1.979-2.351l-0.018-0.015l0.001-0.001l-3.758-3.161l-3.767-3.171l-0.001,0.001
		l-0.018-0.015l-1.986,2.361c-1.334-0.933-2.704-1.804-4.106-2.612c-1.403-0.817-2.844-1.575-4.321-2.27l1.06-2.897l-0.022-0.008
		l0.001-0.002l-4.608-1.684l-2.377-0.869c3.954-4.621,9.986-11.944,11.55-12.987c2.25-1.5,5.5-7,6.25-10.75s2-11.25,2.75-17
		s0-5.75-0.75-7.25s-3.25-4.75-3.5-5.5s-1.75-13.25-2.25-15.5s-2-3.75-5.25-5.5s-6-2.5-6-2.5s-3.75,0-4.25-1
		c-3.106-6.213-51.75-18-54.25-19.25s-4.75-1.25-5.75-1.25s-26-0.75-26-0.75s-2.03-0.497-4.366-1.329l0.951-0.63
		c-5.378-8.118-52.575-79.359-53.83-81.116c-1.973-2.762-4.162-4.422-10.655-5.833c-5.558-1.208-66.721-17.771-71.047-18.95
		c-1.258-0.343-7.833-2.069-13.843-2.386c-4.572-0.241-26.285-1.005-27.96-1.005c-0.101,0-10.146,0.146-16.117,12.792
		c-2.827,5.988-11.861,27.113-17.839,41.092c-2.74,6.409-5.329,12.462-5.622,13.077c-1.032,2.065-3.322,10.093-1.569,17.688
		c0.394,1.708,1.455,5.476,2.814,10.133l-23.35-0.19c-0.612-1.315-0.865-1.843-2.316-1.843c-1.75,0-4.25,0-5.5,0
		s-1.75,0.5-2.25,1.25c-0.052,0.078-0.156,0.266-0.285,0.509l-15.528-0.126c-0.067-0.141-0.132-0.273-0.187-0.383
		c-1-2-1.5-1.75-1.5-1.75s-4.75-0.25-6.25,0s-2,0-2.25,1.25s-5.75,9.5-5.75,9.5s-7.5,0.75-7.5,0s-2.25-1.75-3.75-1.75s-4,0-5.5,0
		s-2,1-3,2.75s-7.25,10-7.25,10s-4,0-7,0s-2.5,1.5-3,3.5s-9,19-11.5,20s-5,2-5,2s0.493,5.786,5.261,5.982l5.947,34.765h2.989
		l2.598-16.196c2.703,6.595,11.304,7.835,15.347,4.056c3.522-3.292,7.457-4.297,20.858,5.394c8.595,6.215,10,6.5,10,8.5
		s-10,0.833-12,17.5c-0.302,2.519-1.92,5.462-3.93,8.259l-2.168-0.003l-4.868-0.008v0.002l-0.024,0l-0.004,3.082
		c-3.287,0.283-6.495,0.845-9.598,1.67l-1.047-2.89l-0.023,0.008l-0.001-0.002l-4.991,1.81l-4.255,1.541l0.001,0.002l-0.022,0.008
		l1.051,2.899c-1.458,0.68-2.904,1.412-4.324,2.229c-1.427,0.821-2.793,1.706-4.119,2.629l-1.978-2.365l-0.018,0.015l-0.001-0.002
		l-4.194,3.51l-3.349,2.801l0.001,0.001l-0.018,0.015l1.974,2.358c-2.322,2.319-4.412,4.818-6.265,7.46l-2.669-1.547l-0.012,0.02
		l-0.002-0.001l-2.478,4.28l-2.452,4.23l0.002,0.001l-0.012,0.021l2.67,1.546c-1.37,2.922-2.498,5.978-3.354,9.146l-3.028-0.539
		l-0.004,0.023l-0.001,0l-0.778,4.383l-0.943,5.3l0.002,0l-0.004,0.023l3.036,0.539c-0.141,1.61-0.229,3.236-0.231,4.881
		c-0.002,1.638,0.082,3.256,0.218,4.86l-3.038,0.53l0.004,0.023l-0.002,0l0.766,4.373l0.928,5.315l0.002,0l0.004,0.024l3.028-0.53
		c0.01,0.036,0.022,0.072,0.031,0.108c0.202,0.752,0.419,1.502,0.655,2.248c0.021,0.068,0.046,0.134,0.068,0.202
		c0.225,0.706,0.462,1.41,0.717,2.111c0.043,0.119,0.093,0.236,0.137,0.354c0.517,1.39,1.084,2.77,1.718,4.133l-2.672,1.537
		l0.012,0.021l-0.002,0.001l2.432,4.224l2.474,4.3l0.002-0.001l0.012,0.02l2.672-1.538c1.888,2.705,3.978,5.203,6.245,7.478
		l-1.98,2.352l0.018,0.015l-0.001,0.001l3.72,3.129l3.805,3.203l0.001-0.002l0.018,0.015l1.987-2.361
		c1.342,0.938,2.721,1.814,4.132,2.626c1.395,0.811,2.828,1.564,4.296,2.255l-1.061,2.898l0.022,0.008l-0.001,0.002l4.629,1.691
		l4.608,1.686l0.001-0.002l0.022,0.008l1.055-2.888c3.101,0.834,6.306,1.405,9.593,1.697l-0.005,3.083h0.024v0.002l4.534,0.006
		l5.3,0.009v-0.002h0.024l0.004-3.083c1.52-0.131,3.021-0.328,4.504-0.576c0.103-0.017,0.206-0.029,0.309-0.047
		c0.76-0.132,1.513-0.281,2.262-0.443c0.045-0.01,0.09-0.017,0.135-0.026c0.802-0.176,1.598-0.368,2.387-0.578l1.047,2.891
		l0.022-0.008l0.001,0.002l4.539-1.646l4.708-1.705l-0.001-0.002l0.022-0.008l-1.051-2.899c0.345-0.161,0.689-0.325,1.032-0.493
		l0.058-0.048c2.567-1.268,5.029-2.716,7.358-4.346l1.992,2.38l7.56-6.328l-1.988-2.375c1.799-1.796,3.465-3.721,5.007-5.748
		l1.752-1.444l2.203,1.276l3.422-5.909l0.001-0.001l1.507-2.6l-0.001-0.001l0.012-0.021l-2.67-1.546
		c1.371-2.922,2.498-5.978,3.354-9.146l3.028,0.539l0.004-0.023l0.002,0l0.869-4.895l0.852-4.788l-0.002,0l0.004-0.023l-3.036-0.539
		c0.023-0.263,0.042-0.526,0.061-0.79L137.939,369l88.5-21.5c0,0,111-3.5,113-3.5s10-0.5,11-3s8.5-2.5,16-3.5s2.5-5,2.5-5h12.38
		l-1.321,2.282l-2.452,4.23l0.001,0.001l-0.012,0.021l2.67,1.546c-1.371,2.922-2.498,5.978-3.354,9.146l-3.028-0.539l-0.004,0.023
		l-0.001,0l-0.778,4.383l-0.943,5.3l0.002,0l-0.004,0.023l3.036,0.539c-0.141,1.61-0.229,3.236-0.231,4.881
		c-0.002,1.638,0.082,3.256,0.218,4.86l-3.038,0.53l0.004,0.023l-0.002,0l0.766,4.373l0.928,5.315l0.002,0l0.004,0.024l3.028-0.53
		c0.01,0.036,0.021,0.072,0.031,0.108c0.202,0.752,0.419,1.502,0.655,2.248c0.021,0.068,0.046,0.134,0.068,0.202
		c0.225,0.706,0.462,1.41,0.717,2.111c0.043,0.119,0.093,0.236,0.137,0.354c0.517,1.39,1.084,2.77,1.717,4.133l-2.672,1.537
		l0.012,0.021l-0.002,0.001l2.432,4.224l2.474,4.3l0.002-0.001l0.012,0.02l2.672-1.538c1.889,2.705,3.979,5.203,6.245,7.478
		l-1.98,2.352l0.018,0.015l-0.001,0.001l3.72,3.129l3.805,3.203l0.001-0.002l0.018,0.015l1.986-2.361
		c1.342,0.938,2.721,1.814,4.132,2.626c1.396,0.811,2.828,1.564,4.296,2.255l-1.06,2.898l0.022,0.008l0,0.002l4.628,1.691
		l4.608,1.686l0.001-0.002l0.022,0.008l1.055-2.888c3.101,0.834,6.306,1.405,9.593,1.697l-0.005,3.083h0.024v0.002l4.534,0.006
		l5.301,0.009v-0.002h0.023l0.004-3.083c1.52-0.131,3.021-0.328,4.505-0.576c0.103-0.017,0.206-0.029,0.309-0.047
		c0.76-0.132,1.514-0.281,2.263-0.443c0.044-0.01,0.089-0.017,0.134-0.026c0.802-0.176,1.598-0.368,2.387-0.578l1.047,2.891
		l0.022-0.008l0.001,0.002l4.539-1.646l4.708-1.705l-0.001-0.002l0.022-0.008l-1.051-2.899c0.345-0.161,0.689-0.325,1.032-0.493
		l0.058-0.048c2.567-1.268,5.029-2.716,7.358-4.346l1.992,2.38l7.56-6.328l-1.988-2.375c1.799-1.796,3.466-3.721,5.007-5.748
		l1.752-1.444l2.204,1.276l3.421-5.909l0.001-0.001l1.507-2.6l-0.001-0.001l0.012-0.021l-2.671-1.546
		c1.371-2.922,2.498-5.978,3.354-9.146l3.028,0.539l0.004-0.023l0.002,0l0.869-4.895l0.853-4.788l-0.002,0l0.004-0.023
		L487.26,369.356z M148.517,168.039c0.285-0.572,1.656-3.769,5.821-13.509c5.955-13.925,14.953-34.968,17.718-40.822
		c3.601-7.625,8.896-8.206,8.883-8.208c0.079,0,0.24,0.003,0.471,0.009c-3.851,3.558-5.929,7.67-6.949,10.292
		c-0.637,1.636-2.42,5.965-4.483,10.977c-3.621,8.792-8.128,19.734-10.034,24.819c-1.198,3.194-1.396,6.667-1.128,9.883
		c-2.038-0.208-3.787,0.066-4.877,0.771c-4.25,2.75,2.25,21.75,3,24s4.016,14.156,4.016,14.156s-3.173-0.022-7.616-0.052
		c-2.646-8.838-5.131-17.311-5.752-20.004C146.381,175.127,147.983,169.165,148.517,168.039z M106.645,196.491
		c-1.239,2.507-2.456,5.009-2.456,5.009l-6.75-0.5c0,0-0.972-2.242-2.015-4.6L106.645,196.491z M100.181,365.009
		c-0.002,0.083-0.004,0.166-0.007,0.25c-0.144,4.988-1.471,9.888-3.868,14.265c-0.113,0.205-0.233,0.405-0.35,0.606
		c-0.117,0.204-0.232,0.409-0.354,0.61c-2.607,4.261-6.202,7.854-10.463,10.46c-0.063,0.039-0.126,0.077-0.189,0.115
		c-0.342,0.206-0.688,0.403-1.038,0.596c-0.129,0.071-0.259,0.142-0.389,0.211c-0.307,0.164-0.617,0.322-0.929,0.475
		c-0.169,0.083-0.338,0.164-0.508,0.243c-0.287,0.135-0.577,0.266-0.868,0.392c-0.195,0.084-0.39,0.165-0.586,0.244
		c-0.276,0.113-0.552,0.223-0.832,0.327c-0.214,0.08-0.429,0.156-0.645,0.232c-0.266,0.093-0.533,0.185-0.802,0.271
		c-0.231,0.074-0.464,0.143-0.696,0.211c-0.258,0.076-0.516,0.151-0.777,0.22c-0.248,0.066-0.496,0.126-0.745,0.186
		c-0.248,0.059-0.495,0.118-0.745,0.172c-0.265,0.057-0.531,0.108-0.798,0.157c-0.236,0.044-0.472,0.087-0.709,0.126
		c-0.282,0.046-0.565,0.086-0.848,0.125c-0.222,0.03-0.444,0.059-0.667,0.084c-0.305,0.035-0.61,0.064-0.916,0.089
		c-0.197,0.017-0.395,0.032-0.593,0.045c-0.337,0.021-0.675,0.038-1.012,0.049c-0.158,0.005-0.317,0.009-0.475,0.011
		c-0.389,0.006-0.777,0.008-1.165,0c-0.085-0.002-0.17-0.005-0.255-0.007c-4.984-0.144-9.881-1.47-14.255-3.864
		c-0.24-0.132-0.474-0.272-0.71-0.41c-0.169-0.098-0.34-0.193-0.507-0.295c-4.261-2.606-7.854-6.199-10.462-10.459
		c-0.042-0.068-0.083-0.136-0.125-0.204c-0.202-0.336-0.396-0.677-0.586-1.02c-0.075-0.137-0.15-0.273-0.223-0.411
		c-0.159-0.299-0.314-0.602-0.464-0.906c-0.087-0.178-0.172-0.356-0.255-0.534c-0.13-0.278-0.257-0.559-0.38-0.841
		c-0.088-0.205-0.173-0.411-0.257-0.617c-0.108-0.265-0.214-0.531-0.314-0.799c-0.085-0.227-0.166-0.454-0.245-0.682
		c-0.089-0.253-0.176-0.507-0.258-0.763c-0.079-0.247-0.153-0.494-0.225-0.742c-0.071-0.242-0.141-0.484-0.206-0.728
		c-0.071-0.265-0.135-0.53-0.199-0.796c-0.055-0.231-0.11-0.461-0.16-0.694c-0.061-0.283-0.115-0.566-0.168-0.85
		c-0.041-0.217-0.081-0.435-0.116-0.654c-0.049-0.302-0.093-0.604-0.133-0.906c-0.027-0.202-0.053-0.404-0.077-0.607
		c-0.037-0.324-0.068-0.649-0.094-0.974c-0.015-0.178-0.028-0.356-0.04-0.534c-0.023-0.356-0.041-0.713-0.052-1.069
		c-0.004-0.138-0.008-0.276-0.01-0.415c-0.007-0.408-0.009-0.816,0-1.224c0.001-0.064,0.003-0.128,0.005-0.192
		c0.139-4.998,1.467-9.91,3.869-14.296c0.114-0.206,0.235-0.408,0.353-0.612c0.116-0.202,0.23-0.405,0.352-0.605
		c2.607-4.261,6.202-7.853,10.462-10.46c0.064-0.039,0.127-0.078,0.191-0.116c0.34-0.205,0.686-0.402,1.034-0.594
		c0.131-0.072,0.263-0.144,0.395-0.214c0.304-0.162,0.612-0.319,0.922-0.471c0.172-0.084,0.345-0.167,0.519-0.248
		c0.283-0.133,0.569-0.262,0.857-0.387c0.2-0.086,0.401-0.169,0.602-0.251c0.269-0.11,0.54-0.217,0.812-0.32
		c0.223-0.083,0.446-0.162,0.67-0.241c0.257-0.09,0.514-0.178,0.774-0.262c0.243-0.078,0.487-0.15,0.731-0.222
		c0.245-0.072,0.491-0.143,0.739-0.209c0.261-0.07,0.523-0.133,0.784-0.196c0.234-0.056,0.469-0.111,0.705-0.162
		c0.28-0.06,0.56-0.114,0.84-0.166c0.22-0.041,0.441-0.081,0.663-0.118c0.3-0.049,0.6-0.092,0.9-0.132
		c0.203-0.027,0.406-0.054,0.611-0.077c0.324-0.037,0.648-0.068,0.973-0.094c0.177-0.015,0.355-0.028,0.533-0.04
		c0.357-0.023,0.715-0.041,1.072-0.052c0.137-0.004,0.274-0.007,0.411-0.01c0.41-0.007,0.819-0.009,1.228,0
		c0.062,0.001,0.125,0.003,0.187,0.005c5.002,0.139,9.917,1.468,14.306,3.873c0.173,0.095,0.342,0.197,0.512,0.296
		c0.235,0.135,0.472,0.268,0.704,0.409c4.262,2.609,7.854,6.205,10.46,10.468c0.035,0.058,0.071,0.115,0.105,0.173
		c0.209,0.347,0.41,0.699,0.605,1.055c0.068,0.123,0.135,0.246,0.201,0.37c0.167,0.313,0.328,0.628,0.484,0.947
		c0.08,0.163,0.158,0.327,0.234,0.491c0.137,0.293,0.271,0.588,0.399,0.885c0.082,0.189,0.16,0.379,0.237,0.569
		c0.115,0.281,0.227,0.563,0.334,0.848c0.078,0.209,0.152,0.418,0.226,0.628c0.095,0.271,0.188,0.544,0.276,0.818
		c0.072,0.227,0.14,0.455,0.207,0.683c0.077,0.262,0.153,0.524,0.224,0.789c0.065,0.244,0.124,0.488,0.183,0.732
		c0.061,0.252,0.12,0.504,0.175,0.759c0.056,0.262,0.106,0.524,0.155,0.786c0.045,0.239,0.088,0.479,0.128,0.72
		c0.045,0.28,0.086,0.561,0.124,0.842c0.03,0.223,0.059,0.447,0.085,0.671c0.034,0.304,0.063,0.609,0.089,0.913
		c0.017,0.198,0.032,0.396,0.045,0.595c0.021,0.338,0.038,0.675,0.049,1.013c0.005,0.157,0.009,0.315,0.011,0.472
		C100.188,364.23,100.189,364.62,100.181,365.009z M125.556,200.177c-2,0-2.368,1.573-2.368,1.573s-0.987-2.664-1.968-5.141
		l22.71,0.185c0.339,1.145,0.688,2.318,1.041,3.504C136.081,200.239,126.594,200.177,125.556,200.177z M138.939,361.25l-0.5-16
		l4.5-1.5l7,14.5L138.939,361.25z M157.689,355.25l-0.5-16l4.5-1.5l7,14.5L157.689,355.25z M174.189,350.75l-0.5-16l4.5-1.5l7,14.5
		L174.189,350.75z M335.939,203c-2.25-0.25-6.75-2.5-8.75-2.25s-4.25,4.5-4.25,4.5s-6.146,10.132-10.957,18.517l-8.73-4.566
		l1.438-2.951l-7.073-9.777l8.174-14.229c0.825-1.437,0.329-3.27-1.107-4.096c-1.436-0.825-3.271-0.33-4.096,1.107l-27,47
		c-0.825,1.437-0.329,3.27,1.107,4.096c0.471,0.271,0.984,0.399,1.491,0.399c1.039,0,2.05-0.541,2.604-1.506l7.215-12.559
		L299.939,226l1.328-2.726l8.487,4.481c-1.875,3.459-2.956,5.215-3.565,7.246c-2.25,7.5,5.75,5.25,5.75,5.25l12.25,46
		c0,0-41.25,0-44.25,0s-2-2.25-2-5.75s-0.5-7.25-2.5-11.25s-15.5-9-32.25-9s-32.25,11.5-34,14.5s-3.75,2.75-4.75,1.25
		s1.887-17.058-6.833-46.333c-9.333-31.333-21.917-28.167-23.167-28.917s3-10,0.5-23.75c-1.026-5.646-4.035-9.603-7.518-12.119
		c-0.761-3.302-1.167-7.332,0.013-10.477c1.862-4.965,6.342-15.841,9.94-24.581c2.166-5.259,3.877-9.414,4.544-11.129
		c2.017-5.185,7.659-13.636,22.834-11.969l0.043-0.396c1.573,0.064,2.863,0.121,3.683,0.164c4.028,0.212,9.066,1.271,12.157,2.114
		c0.636,0.173,65.384,17.73,71.453,19.05c4.664,1.014,5.186,1.743,5.84,2.66c1.047,1.487,27.925,42.028,46.643,70.277
		c-0.906,0.079-1.68,0.376-2.133,0.904C340.939,203.25,338.189,203.25,335.939,203z M452.689,239.25c1.5,0,6,17,6,17l-7.5-5l-7-1
		l-1.5-12.75C442.689,237.5,451.189,239.25,452.689,239.25z M415.867,263.438l-1.765-4.824c0.179-0.168,0.326-0.342,0.429-0.522
		c2.813,5.094,8.46,15.287,14.189,25.44c0.994,1.761,0.21,11.191-0.117,18.573c-0.236-0.309-0.689-0.619-1.571-0.557
		c-0.527,0.037-1.231,0.191-2.151,0.471c-1.848,0.563-3.441,1.109-4.825,1.631l-0.284-0.933c4.014-1.256,5.485-1.842,6.411-2.211
		c0.183-0.073,0.343-0.137,0.497-0.195c1.293-0.49,0.946-1.519,0.903-1.635c-0.403-1.069-1.423-0.818-2.833-0.471
		c-1.024,0.252-2.088,0.575-2.92,0.889c-0.033,0.012-1.212,0.462-2.823,1.106l-0.222-0.73c1.411-0.464,2.778-0.903,3.943-1.268
		c2.509-0.764,3.697-1.704,3.623-2.872c-0.038-0.596-0.466-1.299-1.552-1.484c-0.359-0.061-3.653-0.027-7.713,0.04l-0.625-2.056
		l3.952-1.254c2.505-0.762,3.693-1.703,3.618-2.871c-0.038-0.596-0.466-1.299-1.552-1.484c-0.359-0.061-3.653-0.027-7.712,0.04
		l-0.62-2.035c1.731-0.549,3.254-1.038,3.969-1.281c2.572-0.874,3.678-1.772,3.587-2.909c-0.022-0.28-0.2-1.209-1.544-1.438
		c-0.208-0.035-1.414-0.039-3.181-0.022l-1.007-3.31c2.371-0.754,3.493-1.673,3.421-2.808c-0.038-0.596-0.466-1.299-1.553-1.484
		c-0.208-0.035-1.413-0.039-3.181-0.022l-0.566-1.862c0.141-0.053,0.265-0.091,0.351-0.091c0.566,0,1.132-1.281,1.517-2.394
		c0.779-0.525,1.155-1.11,1.113-1.771C417.034,264.308,416.694,263.7,415.867,263.438z M413.232,255.737
		c-0.013-0.002-0.023-0.007-0.037-0.009c-0.03-0.005-0.085-0.009-0.154-0.013l-0.353-0.965
		C412.689,254.75,412.88,255.098,413.232,255.737z M377.439,264l9-11.75l8.646-1l0.856,2.814c-2.251,0.703-3.293,1.451-3.47,2.491
		c-0.124,0.731,0.265,1.307,0.636,1.579c0.209,0.153,0.463,0.233,0.723,0.228c1.064-0.023,2.211-0.048,3.396-0.072l1.035,3.399
		c-2.251,0.703-3.293,1.451-3.47,2.49c-0.124,0.731,0.265,1.307,0.636,1.579c0.209,0.153,0.463,0.233,0.723,0.228
		c1.063-0.023,2.211-0.048,3.396-0.072l1.035,3.399c-2.251,0.702-3.294,1.451-3.47,2.49c-0.033,0.194-0.026,0.375,0.003,0.545
		c-3.433-0.901-12.253-1.096-14.676-1.096C379.689,271.25,377.439,264,377.439,264z M462.571,365.009
		c-0.001,0.083-0.004,0.166-0.006,0.25c-0.144,4.988-1.471,9.888-3.868,14.265c-0.113,0.205-0.233,0.405-0.35,0.606
		c-0.118,0.204-0.232,0.409-0.354,0.61c-2.607,4.261-6.202,7.854-10.462,10.46c-0.063,0.039-0.126,0.077-0.189,0.115
		c-0.342,0.206-0.688,0.403-1.038,0.596c-0.129,0.071-0.259,0.142-0.389,0.211c-0.307,0.164-0.617,0.322-0.929,0.475
		c-0.169,0.083-0.338,0.164-0.508,0.243c-0.288,0.135-0.577,0.266-0.869,0.392c-0.195,0.084-0.39,0.165-0.586,0.244
		c-0.275,0.113-0.552,0.223-0.832,0.327c-0.214,0.08-0.429,0.156-0.645,0.232c-0.266,0.093-0.533,0.185-0.803,0.271
		c-0.231,0.074-0.463,0.143-0.696,0.211c-0.258,0.076-0.517,0.151-0.777,0.22c-0.248,0.066-0.497,0.126-0.745,0.186
		c-0.248,0.059-0.496,0.118-0.745,0.172c-0.266,0.057-0.531,0.108-0.797,0.157c-0.236,0.044-0.472,0.087-0.71,0.126
		c-0.282,0.046-0.565,0.086-0.848,0.125c-0.222,0.03-0.443,0.059-0.667,0.084c-0.305,0.035-0.61,0.064-0.916,0.089
		c-0.198,0.017-0.395,0.032-0.593,0.045c-0.338,0.021-0.675,0.038-1.012,0.049c-0.158,0.005-0.317,0.009-0.476,0.011
		c-0.389,0.006-0.777,0.008-1.165,0c-0.085-0.002-0.17-0.005-0.255-0.007c-4.984-0.144-9.881-1.47-14.255-3.864
		c-0.239-0.132-0.474-0.272-0.709-0.41c-0.169-0.098-0.34-0.193-0.507-0.295c-4.261-2.606-7.854-6.199-10.461-10.459
		c-0.042-0.068-0.083-0.136-0.125-0.204c-0.202-0.336-0.396-0.677-0.585-1.02c-0.075-0.137-0.15-0.273-0.223-0.411
		c-0.16-0.299-0.314-0.602-0.463-0.906c-0.087-0.178-0.172-0.356-0.256-0.534c-0.13-0.278-0.257-0.559-0.38-0.841
		c-0.088-0.205-0.173-0.411-0.257-0.617c-0.108-0.265-0.213-0.531-0.314-0.799c-0.085-0.227-0.166-0.454-0.245-0.682
		c-0.089-0.253-0.176-0.507-0.258-0.763c-0.079-0.247-0.153-0.494-0.225-0.742c-0.071-0.242-0.141-0.484-0.207-0.728
		c-0.07-0.265-0.135-0.53-0.199-0.796c-0.055-0.231-0.109-0.461-0.16-0.694c-0.061-0.283-0.115-0.566-0.168-0.85
		c-0.041-0.217-0.08-0.435-0.116-0.654c-0.049-0.302-0.093-0.604-0.133-0.906c-0.027-0.202-0.054-0.404-0.077-0.607
		c-0.037-0.324-0.068-0.649-0.095-0.974c-0.015-0.178-0.028-0.356-0.04-0.534c-0.023-0.356-0.041-0.713-0.051-1.069
		c-0.004-0.138-0.007-0.276-0.01-0.415c-0.007-0.408-0.008-0.816,0-1.224c0.001-0.064,0.003-0.128,0.005-0.192
		c0.139-4.998,1.467-9.91,3.869-14.296c0.114-0.206,0.235-0.408,0.353-0.612c0.117-0.202,0.23-0.405,0.352-0.605
		c2.607-4.261,6.202-7.853,10.462-10.46c0.063-0.039,0.127-0.078,0.191-0.116c0.34-0.205,0.686-0.402,1.034-0.594
		c0.131-0.072,0.263-0.144,0.395-0.214c0.304-0.162,0.612-0.319,0.922-0.471c0.172-0.084,0.345-0.167,0.519-0.248
		c0.283-0.133,0.569-0.262,0.857-0.387c0.2-0.086,0.401-0.169,0.602-0.251c0.269-0.11,0.539-0.217,0.812-0.32
		c0.223-0.083,0.446-0.162,0.67-0.241c0.257-0.09,0.515-0.178,0.774-0.262c0.243-0.078,0.487-0.15,0.731-0.222
		c0.246-0.072,0.491-0.143,0.739-0.209c0.261-0.07,0.522-0.133,0.785-0.196c0.234-0.056,0.469-0.111,0.705-0.162
		c0.28-0.06,0.56-0.114,0.84-0.166c0.22-0.041,0.441-0.081,0.663-0.118c0.299-0.049,0.6-0.092,0.899-0.132
		c0.203-0.027,0.407-0.054,0.611-0.077c0.324-0.037,0.648-0.068,0.973-0.094c0.177-0.015,0.355-0.028,0.533-0.04
		c0.357-0.023,0.715-0.041,1.072-0.052c0.137-0.004,0.274-0.007,0.412-0.01c0.41-0.007,0.819-0.009,1.228,0
		c0.062,0.001,0.125,0.003,0.187,0.005c5.002,0.139,9.917,1.468,14.306,3.873c0.172,0.095,0.341,0.197,0.512,0.296
		c0.235,0.135,0.472,0.268,0.704,0.409c4.261,2.609,7.854,6.205,10.46,10.468c0.035,0.058,0.071,0.115,0.105,0.173
		c0.209,0.347,0.41,0.699,0.606,1.055c0.067,0.123,0.134,0.246,0.2,0.37c0.167,0.313,0.328,0.628,0.484,0.947
		c0.08,0.163,0.158,0.327,0.234,0.491c0.138,0.293,0.271,0.588,0.399,0.885c0.082,0.189,0.16,0.379,0.238,0.569
		c0.115,0.281,0.227,0.563,0.333,0.848c0.078,0.209,0.152,0.418,0.226,0.628c0.095,0.271,0.188,0.544,0.276,0.818
		c0.073,0.227,0.14,0.455,0.207,0.683c0.077,0.262,0.153,0.524,0.224,0.789c0.065,0.244,0.125,0.488,0.183,0.732
		c0.061,0.252,0.12,0.504,0.174,0.759c0.056,0.262,0.106,0.524,0.155,0.786c0.045,0.239,0.088,0.479,0.128,0.72
		c0.045,0.28,0.086,0.561,0.124,0.842c0.03,0.223,0.06,0.447,0.085,0.671c0.034,0.304,0.063,0.609,0.088,0.913
		c0.017,0.198,0.032,0.396,0.045,0.595c0.021,0.338,0.038,0.675,0.048,1.013c0.005,0.157,0.009,0.315,0.012,0.472
		C462.578,364.23,462.579,364.62,462.571,365.009z"/>
	<path d="M387.633,204.301l-0.094,0.029c0.016-0.005,0.032-0.009,0.047-0.013C387.602,204.311,387.618,204.305,387.633,204.301z"/>
</g>
</svg>
